<svg width="80" height="80" viewBox="0 0 80 80" fill="none" xmlns="http://www.w3.org/2000/svg">
<path d="M42.9519 78.3528C41.1166 79.4588 38.8833 79.4588 37.0481 78.3528C31.1123 74.7753 17.672 65.2941 10.3149 49.1618C4.96619 37.4334 4.84632 20.8995 5.05531 14.1547C5.10723 12.479 6.57094 11.2195 8.24747 11.2283C11.8989 11.2477 18.3196 10.9071 24.6426 8.74954C30.7476 6.66636 35.2947 3.69798 37.7988 1.81038C39.0757 0.847854 40.9242 0.84785 42.2011 1.81037C44.7053 3.69797 49.2524 6.66635 55.3574 8.74954C61.6804 10.9071 68.1011 11.2477 71.7525 11.2283C73.429 11.2195 74.8927 12.479 74.9447 14.1547C75.1537 20.8995 75.0338 37.4334 69.6851 49.1618C62.328 65.2941 48.8876 74.7753 42.9519 78.3528Z" fill="url(#paint0_linear_69_12033)"/>
<path fill-rule="evenodd" clip-rule="evenodd" d="M43.5143 25.5686C41.473 26.453 38.5269 26.453 36.4857 25.5686C34.8272 24.85 32.972 24.7834 31.2603 25.5363C27.648 27.1253 26.0278 31.7689 27.6 35.9578C27.6004 35.9587 27.6004 35.9597 27.6 35.9607L28.0906 37.0396C29.7491 40.6866 30.9992 44.5096 31.8177 48.4376L32.5963 52.1741C32.8657 53.2483 33.8178 54 34.9088 54C36.0806 54 37.079 53.1357 37.2651 51.9603L38.3627 45.025C38.4919 44.2082 39.1857 43.6076 40 43.6076C40.8143 43.6076 41.5081 44.2082 41.6374 45.025L42.7349 51.9603C42.921 53.1357 43.9194 54 45.0912 54C46.1822 54 47.1343 53.2483 47.4037 52.1741L48.1823 48.4376C49.0008 44.5096 50.2509 40.6866 51.9094 37.0395L52.4 35.9607C52.3996 35.9597 52.3996 35.9587 52.4 35.9578C53.9722 31.7689 52.352 27.1253 48.7397 25.5363C47.028 24.7834 45.1728 24.85 43.5143 25.5686Z" fill="url(#paint1_linear_69_12033)"/>
<path fill-rule="evenodd" clip-rule="evenodd" d="M38.2278 75.7497C39.3271 76.4109 40.674 76.4109 41.7733 75.7497C46.5471 72.8782 59.7987 63.827 67.0276 48.108C72.3522 36.5297 72.4209 20.0725 72.3011 15.0009C72.281 14.1508 71.5429 13.5102 70.6931 13.5376C67.7176 13.6339 60.9156 13.545 54.2314 11.2833C47.7444 9.08818 43.1556 5.53658 41.1427 3.77052C40.5005 3.20703 39.5007 3.20703 38.8584 3.77052C36.8456 5.53658 32.2568 9.08818 25.7698 11.2833C19.0856 13.545 12.2836 13.6339 9.30809 13.5376C8.45823 13.5102 7.72017 14.1508 7.70008 15.0008C7.58022 20.0725 7.64889 36.5297 12.9735 48.108C20.2024 63.827 33.454 72.8782 38.2278 75.7497ZM38.6936 67.2689C39.5052 67.751 40.4959 67.751 41.3074 67.2689C44.8437 65.1682 54.6944 58.4844 60.0659 46.4999C64.076 37.5529 64.0707 24.5486 63.9771 20.815C63.9629 20.2464 63.4719 19.8168 62.9035 19.8378C60.7596 19.9171 55.6174 19.8785 50.5658 18.1246C45.6147 16.4056 42.1531 13.8255 40.7274 12.6388C40.3126 12.2935 39.6885 12.2935 39.2737 12.6388C37.848 13.8256 34.3864 16.4056 29.4353 18.1246C24.3837 19.8785 19.2415 19.9171 17.0976 19.8378C16.5292 19.8168 16.0382 20.2464 16.024 20.815C15.9304 24.5486 15.9251 37.5529 19.9351 46.4999C25.3066 58.4844 35.1573 65.1682 38.6936 67.2689Z" fill="url(#paint2_linear_69_12033)"/>
<path fill-rule="evenodd" clip-rule="evenodd" d="M38.2278 75.7497C39.3271 76.4109 40.674 76.4109 41.7733 75.7497C46.5471 72.8782 59.7987 63.827 67.0276 48.108C72.3522 36.5297 72.4209 20.0725 72.3011 15.0009C72.281 14.1508 71.5429 13.5102 70.6931 13.5376C67.7176 13.6339 60.9156 13.545 54.2314 11.2833C47.7444 9.08818 43.1556 5.53658 41.1427 3.77052C40.5005 3.20703 39.5007 3.20703 38.8584 3.77052C36.8456 5.53658 32.2568 9.08818 25.7698 11.2833C19.0856 13.545 12.2836 13.6339 9.30809 13.5376C8.45823 13.5102 7.72017 14.1508 7.70008 15.0008C7.58022 20.0725 7.64889 36.5297 12.9735 48.108C20.2024 63.827 33.454 72.8782 38.2278 75.7497ZM38.6936 67.2689C39.5052 67.751 40.4959 67.751 41.3074 67.2689C44.8437 65.1682 54.6944 58.4844 60.0659 46.4999C64.076 37.5529 64.0707 24.5486 63.9771 20.815C63.9629 20.2464 63.4719 19.8168 62.9035 19.8378C60.7596 19.9171 55.6174 19.8785 50.5658 18.1246C45.6147 16.4056 42.1531 13.8255 40.7274 12.6388C40.3126 12.2935 39.6885 12.2935 39.2737 12.6388C37.848 13.8256 34.3864 16.4056 29.4353 18.1246C24.3837 19.8785 19.2415 19.9171 17.0976 19.8378C16.5292 19.8168 16.0382 20.2464 16.024 20.815C15.9304 24.5486 15.9251 37.5529 19.9351 46.4999C25.3066 58.4844 35.1573 65.1682 38.6936 67.2689Z" fill="url(#paint3_linear_69_12033)" fill-opacity="0.2"/>
<path fill-rule="evenodd" clip-rule="evenodd" d="M38.2278 75.7497C39.3271 76.4109 40.674 76.4109 41.7733 75.7497C46.5471 72.8782 59.7987 63.827 67.0276 48.108C72.3522 36.5297 72.4209 20.0725 72.3011 15.0009C72.281 14.1508 71.5429 13.5102 70.6931 13.5376C67.7176 13.6339 60.9156 13.545 54.2314 11.2833C47.7444 9.08818 43.1556 5.53658 41.1427 3.77052C40.5005 3.20703 39.5007 3.20703 38.8584 3.77052C36.8456 5.53658 32.2568 9.08818 25.7698 11.2833C19.0856 13.545 12.2836 13.6339 9.30809 13.5376C8.45823 13.5102 7.72017 14.1508 7.70008 15.0008C7.58022 20.0725 7.64889 36.5297 12.9735 48.108C20.2024 63.827 33.454 72.8782 38.2278 75.7497ZM38.6936 67.2689C39.5052 67.751 40.4959 67.751 41.3074 67.2689C44.8437 65.1682 54.6944 58.4844 60.0659 46.4999C64.076 37.5529 64.0707 24.5486 63.9771 20.815C63.9629 20.2464 63.4719 19.8168 62.9035 19.8378C60.7596 19.9171 55.6174 19.8785 50.5658 18.1246C45.6147 16.4056 42.1531 13.8255 40.7274 12.6388C40.3126 12.2935 39.6885 12.2935 39.2737 12.6388C37.848 13.8256 34.3864 16.4056 29.4353 18.1246C24.3837 19.8785 19.2415 19.9171 17.0976 19.8378C16.5292 19.8168 16.0382 20.2464 16.024 20.815C15.9304 24.5486 15.9251 37.5529 19.9351 46.4999C25.3066 58.4844 35.1573 65.1682 38.6936 67.2689Z" fill="url(#paint4_angular_69_12033)" fill-opacity="0.14"/>
<g filter="url(#filter0_d_69_12033)">
<rect x="38" y="2" width="4" height="7" rx="2" fill="#E2E6F5"/>
</g>
<g filter="url(#filter1_d_69_12033)">
<rect x="38" y="71" width="4" height="7" rx="2" fill="#C7CBDF"/>
</g>
<g filter="url(#filter2_d_69_12033)">
<rect x="6" y="14.8284" width="4" height="5" rx="2" transform="rotate(-45 6 14.8284)" fill="#DEE2F2"/>
</g>
<g filter="url(#filter3_d_69_12033)">
<rect width="4" height="5" rx="2" transform="matrix(-0.707107 -0.707107 -0.707107 0.707107 74.3633 14.8284)" fill="#DEE2F2"/>
</g>
<defs>
<filter id="filter0_d_69_12033" x="34" y="2" width="12" height="15" filterUnits="userSpaceOnUse" color-interpolation-filters="sRGB">
<feFlood flood-opacity="0" result="BackgroundImageFix"/>
<feColorMatrix in="SourceAlpha" type="matrix" values="0 0 0 0 0 0 0 0 0 0 0 0 0 0 0 0 0 0 127 0" result="hardAlpha"/>
<feOffset dy="4"/>
<feGaussianBlur stdDeviation="2"/>
<feComposite in2="hardAlpha" operator="out"/>
<feColorMatrix type="matrix" values="0 0 0 0 0.0684722 0 0 0 0 0.0823278 0 0 0 0 0.414861 0 0 0 0.15 0"/>
<feBlend mode="normal" in2="BackgroundImageFix" result="effect1_dropShadow_69_12033"/>
<feBlend mode="normal" in="SourceGraphic" in2="effect1_dropShadow_69_12033" result="shape"/>
</filter>
<filter id="filter1_d_69_12033" x="34" y="64" width="12" height="15" filterUnits="userSpaceOnUse" color-interpolation-filters="sRGB">
<feFlood flood-opacity="0" result="BackgroundImageFix"/>
<feColorMatrix in="SourceAlpha" type="matrix" values="0 0 0 0 0 0 0 0 0 0 0 0 0 0 0 0 0 0 127 0" result="hardAlpha"/>
<feOffset dy="-3"/>
<feGaussianBlur stdDeviation="2"/>
<feComposite in2="hardAlpha" operator="out"/>
<feColorMatrix type="matrix" values="0 0 0 0 0.0684722 0 0 0 0 0.0823278 0 0 0 0 0.414861 0 0 0 0.15 0"/>
<feBlend mode="normal" in2="BackgroundImageFix" result="effect1_dropShadow_69_12033"/>
<feBlend mode="normal" in="SourceGraphic" in2="effect1_dropShadow_69_12033" result="shape"/>
</filter>
<filter id="filter2_d_69_12033" x="3.82812" y="11.8284" width="12.707" height="12.707" filterUnits="userSpaceOnUse" color-interpolation-filters="sRGB">
<feFlood flood-opacity="0" result="BackgroundImageFix"/>
<feColorMatrix in="SourceAlpha" type="matrix" values="0 0 0 0 0 0 0 0 0 0 0 0 0 0 0 0 0 0 127 0" result="hardAlpha"/>
<feOffset dx="1" dy="3"/>
<feGaussianBlur stdDeviation="2"/>
<feComposite in2="hardAlpha" operator="out"/>
<feColorMatrix type="matrix" values="0 0 0 0 0.0684722 0 0 0 0 0.0823278 0 0 0 0 0.414861 0 0 0 0.15 0"/>
<feBlend mode="normal" in2="BackgroundImageFix" result="effect1_dropShadow_69_12033"/>
<feBlend mode="normal" in="SourceGraphic" in2="effect1_dropShadow_69_12033" result="shape"/>
</filter>
<filter id="filter3_d_69_12033" x="63.8281" y="11.8284" width="12.707" height="12.707" filterUnits="userSpaceOnUse" color-interpolation-filters="sRGB">
<feFlood flood-opacity="0" result="BackgroundImageFix"/>
<feColorMatrix in="SourceAlpha" type="matrix" values="0 0 0 0 0 0 0 0 0 0 0 0 0 0 0 0 0 0 127 0" result="hardAlpha"/>
<feOffset dx="-1" dy="3"/>
<feGaussianBlur stdDeviation="2"/>
<feComposite in2="hardAlpha" operator="out"/>
<feColorMatrix type="matrix" values="0 0 0 0 0.0684722 0 0 0 0 0.0823278 0 0 0 0 0.414861 0 0 0 0.15 0"/>
<feBlend mode="normal" in2="BackgroundImageFix" result="effect1_dropShadow_69_12033"/>
<feBlend mode="normal" in="SourceGraphic" in2="effect1_dropShadow_69_12033" result="shape"/>
</filter>
<linearGradient id="paint0_linear_69_12033" x1="40" y1="1.55925e-08" x2="41.0189" y2="79.987" gradientUnits="userSpaceOnUse">
<stop stop-color="#E2E6F5"/>
<stop offset="1" stop-color="#C6CADE"/>
</linearGradient>
<linearGradient id="paint1_linear_69_12033" x1="30.4412" y1="25" x2="46.3848" y2="52.6862" gradientUnits="userSpaceOnUse">
<stop stop-color="#F5F6FA"/>
<stop offset="1" stop-color="#DDDFEA"/>
</linearGradient>
<linearGradient id="paint2_linear_69_12033" x1="47.783" y1="74.0096" x2="-17.7525" y2="-35.1928" gradientUnits="userSpaceOnUse">
<stop stop-color="#E2E6F5"/>
<stop offset="0.705135" stop-color="#C6CADE"/>
</linearGradient>
<linearGradient id="paint3_linear_69_12033" x1="40.0006" y1="3.13681" x2="40.0006" y2="76.2456" gradientUnits="userSpaceOnUse">
<stop stop-color="#9DA6CE"/>
<stop offset="1" stop-color="#CED2E4"/>
</linearGradient>
<radialGradient id="paint4_angular_69_12033" cx="0" cy="0" r="1" gradientUnits="userSpaceOnUse" gradientTransform="translate(40.0005 -10.0001) rotate(90) scale(86.5 69.4527)">
<stop offset="0.000281262" stop-color="#454D6C" stop-opacity="0.67"/>
<stop offset="0.999714" stop-color="#CCD1E5"/>
</radialGradient>
</defs>
</svg>
