<svg width="80" height="80" viewBox="0 0 80 80" fill="none" xmlns="http://www.w3.org/2000/svg">
<rect x="27" y="42" width="3" height="10" fill="url(#paint0_linear_69_12051)"/>
<circle cx="28.5" cy="23.5" r="19.5" fill="url(#paint1_linear_69_12051)"/>
<circle cx="28.5" cy="23.5" r="16.5" fill="url(#paint2_linear_69_12051)"/>
<ellipse opacity="0.55" cx="32.6651" cy="29.9675" rx="11.0945" ry="7.97794" transform="rotate(-35.8938 32.6651 29.9675)" fill="url(#paint3_linear_69_12051)"/>
<g opacity="0.3" filter="url(#filter0_f_69_12051)">
<ellipse cx="21.5107" cy="17.5108" rx="11.1852" ry="6.50778" transform="rotate(135 21.5107 17.5108)" fill="url(#paint4_linear_69_12051)"/>
</g>
<g filter="url(#filter1_f_69_12051)">
<path d="M20.4804 9.12891L20.2748 8.14805C20.1619 7.60954 19.687 7.22388 19.1368 7.22388C18.5712 7.22388 18.0876 7.63095 17.9912 8.18831L17.8726 8.87401C17.3812 11.7135 15.1914 13.9569 12.3646 14.5168L10.8632 14.8142C10.3529 14.9152 9.98525 15.3629 9.98525 15.8831C9.98525 16.4196 10.3758 16.8763 10.9058 16.9596L12.069 17.1424C15.0467 17.6103 17.3893 19.9339 17.8814 22.9077L17.9984 23.6142C18.0905 24.1708 18.5719 24.5791 19.1361 24.5791C19.6856 24.5791 20.1588 24.1914 20.2668 23.6526L20.5224 22.3778C21.0592 19.7001 23.2005 17.6361 25.8961 17.1981L27.3336 16.9645C27.8641 16.8783 28.2539 16.42 28.2539 15.8825C28.2539 15.3619 27.8877 14.9131 27.3777 14.8086L25.8776 14.5014C23.1684 13.9466 21.0476 11.8355 20.4804 9.12891Z" fill="url(#paint5_linear_69_12051)"/>
</g>
<path d="M20.0673 11.0866L19.633 7.66975C19.6006 7.41489 19.3837 7.22388 19.1268 7.22388C18.8638 7.22388 18.6438 7.42388 18.6189 7.68576L18.296 11.0789C18.1061 13.0755 16.5485 14.669 14.5567 14.9044L10.4306 15.3921C10.1766 15.4222 9.98525 15.6375 9.98525 15.8933C9.98525 16.156 10.1868 16.3747 10.4486 16.3962L14.3403 16.7152C16.4391 16.8873 18.1105 18.5429 18.3024 20.6399L18.6206 24.1173C18.6445 24.3789 18.8639 24.5791 19.1266 24.5791C19.3833 24.5791 19.5997 24.3875 19.6309 24.1327L20.0586 20.6345C20.3165 18.5245 22.0189 16.8847 24.1371 16.7058L27.7904 16.3973C28.0524 16.3752 28.2539 16.156 28.2539 15.893C28.2539 15.6371 28.0629 15.4215 27.8089 15.3906L23.9179 14.9169C21.9088 14.6723 20.3226 13.0943 20.0673 11.0866Z" fill="url(#paint6_linear_69_12051)"/>
<path d="M56 40.9626C56 38.3718 56.7189 35.8318 58.0768 33.6253L65.9399 20.8477C67.191 18.8146 67.1179 16.2333 65.7538 14.2743L61.5992 8.30825C61.4782 8.13445 61.5117 7.89673 61.6761 7.76318C61.8533 7.61919 62.1145 7.65035 62.2529 7.83197L67.5747 14.8168C69.0432 16.7443 69.2082 19.3658 67.993 21.4622L60.8879 33.7188C59.6513 35.8522 59 38.2742 59 40.7401V52H56V40.9626Z" fill="url(#paint7_linear_69_12051)"/>
<path d="M56 40.9626C56 38.3718 56.7189 35.8318 58.0768 33.6253L65.9399 20.8477C67.191 18.8146 67.1179 16.2333 65.7538 14.2743L61.5992 8.30825C61.4782 8.13445 61.5117 7.89673 61.6761 7.76318C61.8533 7.61919 62.1145 7.65035 62.2529 7.83197L67.5747 14.8168C69.0432 16.7443 69.2082 19.3658 67.993 21.4622L60.8879 33.7188C59.6513 35.8522 59 38.2742 59 40.7401V52H56V40.9626Z" fill="url(#paint8_linear_69_12051)" fill-opacity="0.2"/>
<path d="M54.1436 50.9148C54.1878 50.3975 54.6207 50 55.1399 50H59.8592C60.3784 50 60.8113 50.3975 60.8555 50.9148L62.5312 70.52C62.7831 73.4679 60.4582 76 57.4996 76C54.5409 76 52.216 73.4679 52.4679 70.52L54.1436 50.9148Z" fill="url(#paint9_linear_69_12051)"/>
<path d="M54.1436 50.9148C54.1878 50.3975 54.6207 50 55.1399 50H59.8592C60.3784 50 60.8113 50.3975 60.8555 50.9148L62.5312 70.52C62.7831 73.4679 60.4582 76 57.4996 76C54.5409 76 52.216 73.4679 52.4679 70.52L54.1436 50.9148Z" fill="url(#paint10_linear_69_12051)" fill-opacity="0.6"/>
<path d="M54.1436 50.9148C54.1878 50.3975 54.6207 50 55.1399 50H59.8592C60.3784 50 60.8113 50.3975 60.8555 50.9148L62.5312 70.52C62.7831 73.4679 60.4582 76 57.4996 76C54.5409 76 52.216 73.4679 52.4679 70.52L54.1436 50.9148Z" fill="url(#paint11_linear_69_12051)" fill-opacity="0.5"/>
<path d="M25.1436 50.9148C25.1878 50.3975 25.6207 50 26.1399 50H30.8592C31.3784 50 31.8113 50.3975 31.8555 50.9148L33.5312 70.52C33.7831 73.4679 31.4582 76 28.4996 76C25.5409 76 23.216 73.4679 23.4679 70.52L25.1436 50.9148Z" fill="url(#paint12_linear_69_12051)"/>
<path d="M25.1436 50.9148C25.1878 50.3975 25.6207 50 26.1399 50H30.8592C31.3784 50 31.8113 50.3975 31.8555 50.9148L33.5312 70.52C33.7831 73.4679 31.4582 76 28.4996 76C25.5409 76 23.216 73.4679 23.4679 70.52L25.1436 50.9148Z" fill="url(#paint13_linear_69_12051)" fill-opacity="0.6"/>
<path d="M25.1436 50.9148C25.1878 50.3975 25.6207 50 26.1399 50H30.8592C31.3784 50 31.8113 50.3975 31.8555 50.9148L33.5312 70.52C33.7831 73.4679 31.4582 76 28.4996 76C25.5409 76 23.216 73.4679 23.4679 70.52L25.1436 50.9148Z" fill="url(#paint14_linear_69_12051)" fill-opacity="0.5"/>
<defs>
<filter id="filter0_f_69_12051" x="8.35938" y="4.35889" width="26.3027" height="26.3037" filterUnits="userSpaceOnUse" color-interpolation-filters="sRGB">
<feFlood flood-opacity="0" result="BackgroundImageFix"/>
<feBlend mode="normal" in="SourceGraphic" in2="BackgroundImageFix" result="shape"/>
<feGaussianBlur stdDeviation="2" result="effect1_foregroundBlur_69_12051"/>
</filter>
<filter id="filter1_f_69_12051" x="5.98438" y="3.22388" width="26.2695" height="25.3552" filterUnits="userSpaceOnUse" color-interpolation-filters="sRGB">
<feFlood flood-opacity="0" result="BackgroundImageFix"/>
<feBlend mode="normal" in="SourceGraphic" in2="BackgroundImageFix" result="shape"/>
<feGaussianBlur stdDeviation="2" result="effect1_foregroundBlur_69_12051"/>
</filter>
<linearGradient id="paint0_linear_69_12051" x1="29.5" y1="42.4167" x2="27.2811" y2="47.7421" gradientUnits="userSpaceOnUse">
<stop stop-color="#B9BED9"/>
<stop offset="1" stop-color="#D3D7E8"/>
</linearGradient>
<linearGradient id="paint1_linear_69_12051" x1="28.5" y1="4" x2="28.5" y2="43" gradientUnits="userSpaceOnUse">
<stop stop-color="#E9ECF7"/>
<stop offset="1" stop-color="#CDD1E4"/>
</linearGradient>
<linearGradient id="paint2_linear_69_12051" x1="28.5" y1="7" x2="28.5" y2="40" gradientUnits="userSpaceOnUse">
<stop stop-color="white"/>
<stop offset="1" stop-color="#E4E6ED"/>
</linearGradient>
<linearGradient id="paint3_linear_69_12051" x1="32.0937" y1="18.44" x2="32.2869" y2="43.9956" gradientUnits="userSpaceOnUse">
<stop stop-color="white" stop-opacity="0"/>
<stop offset="1" stop-color="white"/>
</linearGradient>
<linearGradient id="paint4_linear_69_12051" x1="17.5293" y1="14.8765" x2="17.859" y2="28.2501" gradientUnits="userSpaceOnUse">
<stop stop-color="white" stop-opacity="0"/>
<stop offset="1" stop-color="white"/>
</linearGradient>
<linearGradient id="paint5_linear_69_12051" x1="19.1196" y1="7.22388" x2="19.1196" y2="24.5791" gradientUnits="userSpaceOnUse">
<stop stop-color="white"/>
<stop offset="1" stop-color="white"/>
</linearGradient>
<linearGradient id="paint6_linear_69_12051" x1="19.1196" y1="7.22388" x2="19.1196" y2="24.5791" gradientUnits="userSpaceOnUse">
<stop stop-color="white"/>
<stop offset="1" stop-color="white"/>
</linearGradient>
<linearGradient id="paint7_linear_69_12051" x1="67.3077" y1="55.7561" x2="56.0737" y2="12.2737" gradientUnits="userSpaceOnUse">
<stop stop-color="#B9BED9"/>
<stop offset="1" stop-color="#D3D7E8"/>
</linearGradient>
<linearGradient id="paint8_linear_69_12051" x1="57.0769" y1="33.7561" x2="58.6888" y2="34.8345" gradientUnits="userSpaceOnUse">
<stop stop-color="white"/>
<stop offset="1" stop-color="white" stop-opacity="0"/>
</linearGradient>
<linearGradient id="paint9_linear_69_12051" x1="51.9996" y1="63.619" x2="62.0056" y2="64.1179" gradientUnits="userSpaceOnUse">
<stop stop-color="#C7C0FA"/>
<stop offset="0.3125" stop-color="#D6D0FB"/>
<stop offset="1" stop-color="#8574F1"/>
</linearGradient>
<linearGradient id="paint10_linear_69_12051" x1="56.9996" y1="75" x2="56.9996" y2="63" gradientUnits="userSpaceOnUse">
<stop stop-color="#9080F3"/>
<stop offset="0.648933" stop-color="#9080F3" stop-opacity="0"/>
</linearGradient>
<linearGradient id="paint11_linear_69_12051" x1="57.4996" y1="50" x2="57.4996" y2="51.5" gradientUnits="userSpaceOnUse">
<stop stop-color="white"/>
<stop offset="1" stop-color="white" stop-opacity="0"/>
</linearGradient>
<linearGradient id="paint12_linear_69_12051" x1="22.9996" y1="63.619" x2="33.0056" y2="64.1179" gradientUnits="userSpaceOnUse">
<stop stop-color="#C7C0FA"/>
<stop offset="0.3125" stop-color="#D6D0FB"/>
<stop offset="1" stop-color="#8574F1"/>
</linearGradient>
<linearGradient id="paint13_linear_69_12051" x1="27.9996" y1="75" x2="27.9996" y2="63" gradientUnits="userSpaceOnUse">
<stop stop-color="#9080F3"/>
<stop offset="0.648933" stop-color="#9080F3" stop-opacity="0"/>
</linearGradient>
<linearGradient id="paint14_linear_69_12051" x1="28.4996" y1="50" x2="28.4996" y2="51.5" gradientUnits="userSpaceOnUse">
<stop stop-color="white"/>
<stop offset="1" stop-color="white" stop-opacity="0"/>
</linearGradient>
</defs>
</svg>
