<svg width="80" height="80" viewBox="0 0 80 80" fill="none" xmlns="http://www.w3.org/2000/svg">
<path fill-rule="evenodd" clip-rule="evenodd" d="M48.3118 6.37244C43.329 8.50723 36.1375 8.50722 31.1548 6.37243C27.1063 4.63793 22.5779 4.47709 18.3995 6.2946C9.58175 10.1301 5.62683 21.3387 9.46466 31.4498C9.46551 31.4521 9.46547 31.4546 9.46454 31.4568L10.6622 34.061C14.7107 42.8641 17.7622 52.0923 19.7601 61.5735L21.6606 70.5927C22.3183 73.1855 24.6424 75 27.3057 75C30.166 75 32.6032 72.9137 33.0573 70.0765L35.7366 53.3363C36.0521 51.3647 37.7457 49.9149 39.7334 49.9149C41.721 49.9149 43.4146 51.3647 43.7302 53.3363L46.4094 70.0765C46.8635 72.9137 49.3007 75 52.161 75C54.8243 75 57.1484 73.1855 57.8061 70.5927L59.7066 61.5735C61.7044 52.0923 64.756 42.8641 68.8045 34.061L70.0021 31.4568C70.0012 31.4546 70.0012 31.4521 70.002 31.4498C73.8398 21.3387 69.8849 10.1301 61.0672 6.2946C56.8888 4.47707 52.3603 4.63792 48.3118 6.37244Z" fill="url(#paint0_linear_69_12043)"/>
<g filter="url(#filter0_f_69_12043)">
<path d="M20.2484 13.4022L19.7759 11.1475C19.6358 10.4789 19.0461 10 18.3629 10C17.6606 10 17.0601 10.5055 16.9404 11.1975L16.6003 13.1629C16.1064 16.0176 13.9048 18.2731 11.0628 18.836L8.08958 19.4249C7.45595 19.5504 6.99938 20.1062 6.99938 20.7522C6.99938 21.4183 7.48429 21.9854 8.1424 22.0888L10.7865 22.5044C13.7677 22.9729 16.113 25.2992 16.6058 28.2765L16.9493 30.3519C17.0637 31.0431 17.6614 31.55 18.362 31.55C19.0444 31.55 19.6319 31.0685 19.766 30.3995L20.2381 28.0447C20.8116 25.1841 23.0991 22.9792 25.9788 22.5112L28.5408 22.0949C29.1996 21.9879 29.6836 21.4189 29.6836 20.7514C29.6836 20.1049 29.2289 19.5477 28.5956 19.418L25.6952 18.824C22.9612 18.2641 20.8209 16.1337 20.2484 13.4022Z" fill="url(#paint1_linear_69_12043)"/>
</g>
<path d="M19.5183 14.7963L18.979 10.5536C18.9387 10.2372 18.6695 10 18.3505 10C18.0239 10 17.7508 10.2483 17.7198 10.5735L17.3189 14.7867C17.083 17.266 15.149 19.2446 12.6758 19.5369L7.55242 20.1425C7.23701 20.1798 6.99938 20.4472 6.99938 20.7648C6.99938 21.091 7.24966 21.3626 7.57478 21.3893L12.4071 21.7854C15.0131 21.9991 17.0885 24.0549 17.3267 26.6587L17.7219 30.9766C17.7516 31.3014 18.024 31.55 18.3502 31.55C18.669 31.55 18.9377 31.3121 18.9764 30.9957L19.5074 26.652C19.8278 24.032 21.9416 21.9958 24.5717 21.7738L29.108 21.3907C29.4334 21.3632 29.6836 21.0911 29.6836 20.7645C29.6836 20.4468 29.4465 20.179 29.1311 20.1406L24.2996 19.5524C21.8049 19.2487 19.8352 17.2894 19.5183 14.7963Z" fill="url(#paint2_linear_69_12043)"/>
<g filter="url(#filter1_f_69_12043)">
<path d="M59.3 42.4873L59.1395 41.7215C59.0514 41.3011 58.6806 41 58.251 41C57.8094 41 57.4319 41.3178 57.3566 41.753L57.264 42.2883C56.8804 44.5053 55.1707 46.2568 52.9637 46.6939L51.7915 46.9261C51.3931 47.005 51.106 47.3545 51.106 47.7606C51.106 48.1795 51.4109 48.5361 51.8247 48.6011L52.7329 48.7438C55.0577 49.1092 56.8866 50.9233 57.2709 53.245L57.3622 53.7966C57.4341 54.2313 57.8099 54.55 58.2505 54.55C58.6795 54.55 59.0489 54.2473 59.1333 53.8266L59.3328 52.8313C59.7519 50.7407 61.4237 49.1293 63.5283 48.7873L64.6506 48.6049C65.0648 48.5376 65.3691 48.1798 65.3691 47.7602C65.3691 47.3537 65.0832 47.0033 64.685 46.9217L63.5138 46.6819C61.3987 46.2487 59.7429 44.6005 59.3 42.4873Z" fill="url(#paint3_linear_69_12043)"/>
</g>
<path d="M58.9775 44.0158L58.6384 41.3481C58.6131 41.1491 58.4438 41 58.2432 41C58.0378 41 57.8661 41.1562 57.8467 41.3606L57.5946 44.0098C57.4463 45.5687 56.2302 46.8127 54.6751 46.9965L51.4537 47.3773C51.2554 47.4008 51.106 47.5689 51.106 47.7686C51.106 47.9737 51.2634 48.1445 51.4678 48.1612L54.5062 48.4103C56.1448 48.5447 57.4497 49.8373 57.5995 51.4745L57.848 54.1895C57.8667 54.3937 58.0379 54.55 58.243 54.55C58.4435 54.55 58.6124 54.4004 58.6368 54.2015L58.9707 51.4703C59.1721 49.8229 60.5012 48.5426 62.1549 48.403L65.0072 48.1621C65.2119 48.1449 65.3691 47.9737 65.3691 47.7684C65.3691 47.5686 65.22 47.4003 65.0217 47.3761L61.9838 47.0063C60.4153 46.8153 59.1768 45.5833 58.9775 44.0158Z" fill="url(#paint4_linear_69_12043)"/>
<defs>
<filter id="filter0_f_69_12043" x="3" y="6" width="30.6836" height="29.55" filterUnits="userSpaceOnUse" color-interpolation-filters="sRGB">
<feFlood flood-opacity="0" result="BackgroundImageFix"/>
<feBlend mode="normal" in="SourceGraphic" in2="BackgroundImageFix" result="shape"/>
<feGaussianBlur stdDeviation="2" result="effect1_foregroundBlur_69_12043"/>
</filter>
<filter id="filter1_f_69_12043" x="47.1055" y="37" width="22.2637" height="21.55" filterUnits="userSpaceOnUse" color-interpolation-filters="sRGB">
<feFlood flood-opacity="0" result="BackgroundImageFix"/>
<feBlend mode="normal" in="SourceGraphic" in2="BackgroundImageFix" result="shape"/>
<feGaussianBlur stdDeviation="2" result="effect1_foregroundBlur_69_12043"/>
</filter>
<linearGradient id="paint0_linear_69_12043" x1="16.4" y1="5" x2="54.6667" y2="72.2" gradientUnits="userSpaceOnUse">
<stop stop-color="#F0F6F9"/>
<stop offset="1" stop-color="#CDDFF2"/>
</linearGradient>
<linearGradient id="paint1_linear_69_12043" x1="18.3415" y1="10" x2="18.3415" y2="31.55" gradientUnits="userSpaceOnUse">
<stop stop-color="white"/>
<stop offset="1" stop-color="white"/>
</linearGradient>
<linearGradient id="paint2_linear_69_12043" x1="18.3415" y1="10" x2="18.3415" y2="31.55" gradientUnits="userSpaceOnUse">
<stop stop-color="white"/>
<stop offset="1" stop-color="white"/>
</linearGradient>
<linearGradient id="paint3_linear_69_12043" x1="58.2376" y1="41" x2="58.2376" y2="54.55" gradientUnits="userSpaceOnUse">
<stop stop-color="white"/>
<stop offset="1" stop-color="white"/>
</linearGradient>
<linearGradient id="paint4_linear_69_12043" x1="58.2376" y1="41" x2="58.2376" y2="54.55" gradientUnits="userSpaceOnUse">
<stop stop-color="white"/>
<stop offset="1" stop-color="white"/>
</linearGradient>
</defs>
</svg>
