<svg width="56" height="56" viewBox="0 0 56 56" fill="none" xmlns="http://www.w3.org/2000/svg">
<path d="M17.3482 9.90734C16.2405 10.5627 15.8729 11.9935 16.5271 13.1031C17.1813 14.2127 18.6096 14.5809 19.7172 13.9256C25.9703 10.226 34.1594 11.0711 39.5294 16.4504C42.7119 19.6385 44.3054 23.8174 44.3053 28H39.6466L46.6345 37.3335L53.6224 28H48.9633C48.9631 22.628 46.9181 17.2523 42.8235 13.1506C35.914 6.22905 25.3868 5.15138 17.3482 9.90734Z" fill="#BC74A5"/>
<path d="M56 29.65L55.9517 29.6984V29.65H56Z" fill="#BC74A5"/>
<path d="M16.4705 39.5496C21.8405 44.9289 30.0296 45.774 36.2826 42.0744C37.3903 41.4191 38.8186 41.7873 39.4728 42.8969C40.127 44.0065 39.7594 45.4373 38.6517 46.0927C30.6131 50.8486 20.0858 49.771 13.1764 42.8494C9.08181 38.7477 7.03677 33.372 7.03661 28.0001L2.37791 28L9.36579 18.6665L16.3537 28H11.6946C11.6944 32.1826 13.288 36.3615 16.4705 39.5496Z" fill="#BC74A5"/>
<path d="M0.0484844 26.3501V26.3016L0 26.3501H0.0484844Z" fill="#BC74A5"/>
<path d="M30.3294 16.3332H25.6708V18.6665C23.0316 19.0795 21.0123 21.3866 21.0123 24.1464C21.0123 26.8322 22.9399 29.1292 25.5812 29.5907L29.7388 30.3171C30.4842 30.4473 31.0283 31.0956 31.0283 31.8536C31.0283 32.7151 30.3312 33.4134 29.4712 33.4134H26.8821C25.8272 33.4134 24.9721 32.5568 24.9721 31.5001H21.0123C21.0123 34.3316 23.0102 36.7743 25.6708 37.3335V39.6668H30.3294V37.3335C32.9687 36.9205 34.9881 34.6134 34.9881 31.8536C34.9881 29.1678 33.0604 26.8708 30.4192 26.4094L26.2616 25.6829C25.5162 25.5527 24.9721 24.9044 24.9721 24.1464C24.9721 23.2849 25.6692 22.5866 26.5292 22.5866H29.118C30.1729 22.5866 31.028 23.4432 31.028 24.4999H34.9878C34.9878 21.6685 32.99 19.2258 30.3294 18.6665V16.3332Z" fill="#BC74A5"/>
</svg>
