<svg width="14" height="12" viewBox="0 0 14 12" fill="none" xmlns="http://www.w3.org/2000/svg">
<path d="M13.8661 6.33809L8.68174 11.8381C8.57861 11.9475 8.40986 12.0006 8.29736 12.0006C8.1728 12.0006 8.04774 11.9576 7.94861 11.8707C7.73696 11.6852 7.72127 11.3688 7.91368 11.1648L12.3099 6.50059H0.518926C0.232332 6.50059 0.000488281 6.277 0.000488281 6.02872C0.000488281 5.78043 0.232395 5.50059 0.518926 5.50059H12.3096L7.91268 0.834966C7.72027 0.630872 7.73596 0.314341 7.94761 0.129029C8.15977 -0.055534 8.4873 -0.0418777 8.68043 0.163216L13.8648 5.66322C14.0442 5.85372 14.0442 6.14747 13.8661 6.33809Z" fill="white"/>
</svg>
