<svg width="25" height="24" viewBox="0 0 25 24" fill="none" xmlns="http://www.w3.org/2000/svg">
<path d="M19.3661 12.3382L14.1817 17.8382C14.0786 17.9475 13.9099 18.0007 13.7974 18.0007C13.6728 18.0007 13.5477 17.9577 13.4486 17.8708C13.237 17.6852 13.2213 17.3689 13.4137 17.1648L17.8099 12.5007H6.01893C5.73233 12.5007 5.50049 12.2771 5.50049 12.0288C5.50049 11.7805 5.73239 11.5007 6.01893 11.5007H17.8096L13.4127 6.83503C13.2203 6.63093 13.236 6.3144 13.4476 6.12909C13.6598 5.94453 13.9873 5.95818 14.1804 6.16328L19.3648 11.6633C19.5442 11.8538 19.5442 12.1475 19.3661 12.3382Z" fill="#3C3C3C"/>
</svg>
