<svg width="404" height="98" viewBox="0 0 404 98" fill="none" xmlns="http://www.w3.org/2000/svg">
<path d="M11.8437 51.132L12.0245 51.0522L12.8646 50.9735C13.1135 50.9501 13.4493 50.6257 13.8719 50.0002C13.9095 49.9548 14.4407 49.7062 15.4655 49.2544L15.5783 49.1183C15.8453 48.8422 16.0372 48.6568 16.1539 48.5622L16.745 48.5067C16.7865 48.5028 16.9437 48.3939 17.2166 48.18C17.4876 47.9454 18.0781 47.6599 18.9881 47.3234C19.9189 46.9851 20.5218 46.7193 20.7966 46.5261C20.9172 46.473 21.3677 46.368 22.1481 46.2111L23.0047 45.9739L23.695 45.9719C24.7944 45.8688 25.6506 46.5209 26.2639 47.9282C26.2716 48.0111 26.3361 48.1411 26.4573 48.3181C26.5766 48.4743 26.6401 48.5939 26.6479 48.6768C26.7296 49.548 26.3899 50.5005 25.629 51.5344L25.3013 52.7265C25.3052 52.768 25.2057 52.9342 25.0028 53.2253C24.8207 53.5144 24.6641 53.8534 24.5332 54.2423C24.4003 54.6105 24.0049 55.1916 23.347 55.9856C23.2459 56.2462 23.1065 56.6568 22.9289 57.2175C22.7494 57.7575 22.5844 58.1182 22.434 58.2997C22.3044 58.4793 21.9582 59.1394 21.3956 60.2803C20.8537 61.4192 20.5915 62.082 20.609 62.2686C20.3193 62.526 20.1375 62.9301 20.0636 63.4811C20.0104 64.0301 19.8507 64.5578 19.5843 65.064L19.5424 65.2876C20.1848 64.9972 20.4827 64.6031 20.436 64.1053C20.4301 64.0431 20.5919 63.871 20.9212 63.589L21.1292 63.1301C21.3509 62.8164 21.5531 62.63 21.7359 62.571C21.7619 62.4012 21.9573 62.1422 22.3222 61.7941C22.6852 61.4253 22.9231 61.1728 23.0359 61.0367C23.1694 60.8987 23.3859 60.7528 23.6854 60.5992C23.9829 60.4248 24.2869 59.8732 24.5974 58.9443C24.6233 58.7745 24.7662 58.6251 25.0262 58.4961C25.3068 58.3652 25.5298 58.1768 25.6951 57.9312C25.8585 57.6648 25.9985 57.4842 26.1151 57.3896L26.329 56.9929C26.5378 56.7641 26.6817 56.6251 26.7607 56.5758L28.1103 54.566C28.8706 53.9716 29.2787 53.5253 29.3344 53.2272L29.5775 53.1416L29.7642 53.1241C30.0708 52.8233 30.271 52.6162 30.365 52.5028C30.3067 51.8805 30.4969 51.4547 30.9358 51.2252C31.3934 50.9731 31.7133 50.7024 31.8954 50.4133C32.0756 50.1035 32.2902 49.9369 32.5391 49.9136C32.6013 49.9077 32.7212 49.9593 32.8988 50.0682L32.9611 50.0623C33.0233 50.0565 33.0758 49.9469 33.1186 49.7337L33.0894 49.4226C33.0563 49.0699 33.1328 48.7698 33.3189 48.5222C33.5049 48.2746 33.7713 48.1031 34.1181 48.0079C34.4629 47.8918 34.7799 47.5901 35.069 47.1026C35.3581 46.6152 35.7091 46.3416 36.122 46.282C36.5556 46.2204 36.8305 46.0273 36.9465 45.7025C37.0625 45.3778 37.4774 45.0041 38.191 44.5814C38.9027 44.1381 39.351 43.8973 39.5357 43.859C39.7185 43.8 39.8786 43.7222 40.016 43.6257C40.1742 43.5271 40.3362 43.4701 40.5022 43.4545C40.7096 43.4351 41.0162 43.4691 41.422 43.5566L41.9937 43.6286C42.4902 43.7913 42.9721 44.1332 43.4395 44.6543L43.7798 44.9363L43.7915 45.0608L43.9033 45.5839L43.9266 45.8328C44.2079 45.9319 44.3544 46.0438 44.3661 46.1682L44.1862 46.5931C44.1169 46.7461 44.0919 46.9263 44.1114 47.1337C44.1289 47.3204 44.137 47.5184 44.1357 47.7278C44.1324 47.9164 44.1188 48.106 44.0948 48.2966C44.0897 48.4645 44.0637 48.6343 44.0171 48.8061C43.9892 48.9551 43.951 49.1052 43.9023 49.2562C43.8518 49.3865 43.7908 49.5178 43.7195 49.65L43.564 50.669C43.518 51.0709 43.3345 51.5693 43.0137 52.1644C42.7116 52.7367 42.5402 53.1399 42.4993 53.3739C42.4566 53.5872 42.3386 53.8912 42.1454 54.2859L42.2251 54.4668L42.266 54.9024C42.9012 54.7591 43.1994 54.4801 43.1605 54.0652C43.1197 53.6296 43.3488 53.2838 43.8479 53.0278L44.4799 52.4036C44.9297 51.3988 45.5352 50.7143 46.2961 50.3501C46.265 50.0182 46.43 49.6575 46.791 49.2679L47.8683 48.0369L48.6646 47.4915C48.9661 46.689 49.3475 46.1824 49.809 45.9718L50.4527 45.472C50.8481 45.2257 51.0578 45.0072 51.0818 44.8167C51.1245 44.6034 51.271 44.3804 51.5212 44.1477C51.7714 43.915 52.1335 43.5358 52.6073 43.0101L52.8445 42.8623L53.1265 42.522C53.343 42.3762 53.5926 42.2482 53.8752 42.138L54.1124 41.9902C54.594 41.5475 55.0364 41.2444 55.4396 41.0811C55.8408 40.897 56.2861 40.6251 56.7755 40.2653L57.8499 40.0076C58.091 39.9013 58.2531 39.8443 58.3361 39.8365C60.3066 39.6518 61.3959 40.6691 61.604 42.8885L61.5884 43.3922L61.8198 45.191C61.381 46.09 61.1635 46.5603 61.1674 46.6018L61.2822 47.156C61.2899 47.2389 61.1785 47.5005 60.9477 47.9406C60.715 48.36 60.5714 48.6141 60.517 48.7029C60.4833 48.7898 60.317 49.0251 60.0182 49.4088L59.7946 50.3714C59.7103 50.5885 59.5525 50.8021 59.3211 51.0121L59.3561 51.3855C59.3852 51.6966 59.0245 52.2012 58.2739 52.8994C58.2208 53.4484 58.072 53.8704 57.8276 54.1653C57.6021 54.4375 57.4303 54.7257 57.3123 55.0297C57.2131 55.311 57.03 55.5897 56.763 55.8658C56.7883 56.1355 56.6547 56.6084 56.3624 57.2844C56.0701 57.9605 55.8289 58.4016 55.639 58.6077C55.4679 58.7912 55.299 59.1104 55.1324 59.5655L54.8641 59.7162C54.8135 60.516 54.7102 60.9756 54.5539 61.0949L54.0503 61.0793L54.062 61.2038C54.0658 61.2453 54.1141 61.314 54.2068 61.4099C54.2995 61.5058 54.3517 61.616 54.3634 61.7405C54.377 61.8857 54.3264 62.016 54.2117 62.1314C54.097 62.2467 54.0341 62.3573 54.0231 62.4629C54.012 62.5686 53.9699 62.6771 53.8967 62.7886C53.8442 62.8982 53.8221 63.1095 53.8306 63.4226C53.837 63.7149 53.7194 64.134 53.4776 64.6798C53.2358 65.2255 53.1133 65.5927 53.1101 65.7814C53.1069 65.97 53.0903 66.1285 53.0605 66.2568C53.0307 66.3852 53.0216 66.5116 53.0333 66.636C53.045 66.7605 53.0232 67.0868 52.9682 67.6151C53.4498 68.5116 53.7891 69.118 53.9862 69.4343C54.1832 69.7506 54.2866 69.9606 54.2963 70.0643C54.3741 70.894 54.3229 71.4638 54.1427 71.7736C53.9606 72.0627 53.465 72.2452 52.6561 72.3211C52.1375 72.3697 51.6646 72.2362 51.2375 71.9205C50.8291 71.5821 50.4797 71.4266 50.1893 71.4538L50.1368 70.8937L50.0688 70.8373L49.571 70.884C49.5256 70.8464 49.4254 70.7826 49.2705 70.6925C49.1363 70.6004 48.9983 70.4669 48.8563 70.2919L48.6521 70.1227C48.4667 69.9308 48.2895 69.6022 48.1203 69.1368L47.8753 68.532L47.8908 68.0284L47.7557 67.2564C47.7362 67.049 47.7414 66.8811 47.7712 66.7527L47.7547 65.9068C47.7469 65.8239 47.7719 65.6437 47.8295 65.3662C47.8853 65.0681 47.906 64.7313 47.8918 64.356C47.8756 63.96 47.9407 63.6504 48.0872 63.4275C48.2337 63.2045 48.3105 63.0194 48.3176 62.8723C48.3247 62.7251 48.3659 62.6062 48.4411 62.5154C48.5351 62.402 48.5957 62.1557 48.6229 61.7765C48.6501 61.3973 48.8397 61.0761 49.1917 60.8129C49.3641 60.4201 49.5074 60.051 49.6215 59.7055C50.0006 59.0631 50.2006 58.741 50.2214 58.739L50.6569 58.6982C50.4262 58.4687 50.3089 58.3333 50.305 58.2918C50.2525 57.7317 50.444 57.4313 50.8796 57.3904C50.9626 57.3827 51.0682 57.3937 51.1966 57.4235L51.2977 57.1629L51.1236 56.6457C51.0906 56.293 51.3272 55.9151 51.8334 55.512C51.777 54.9104 52.0065 54.3449 52.5218 53.8153L52.4129 53.3233C52.5257 53.1872 52.6767 52.901 52.866 52.4648C53.0533 52.0078 53.3029 51.545 53.6146 51.0763L54.4421 49.5236L54.831 48.9849C54.8329 49.0056 54.8339 49.016 54.8339 49.016C54.8527 48.9933 54.8695 48.9499 54.8845 48.8857C54.9182 48.7989 54.9489 48.6809 54.9768 48.5318L55.1197 48.0476L55.3142 47.7783C55.8399 47.5825 56.092 47.3706 56.0706 47.1424C56.0668 47.1009 55.9711 46.9739 55.7838 46.7612L55.7721 46.6368C55.7566 46.4709 55.8616 46.2518 56.0872 45.9795C56.3127 45.7073 56.5088 45.3436 56.6754 44.8886C56.8608 44.4109 56.9486 44.1202 56.9389 44.0164C56.9311 43.9335 56.8857 43.8959 56.8028 43.9037C56.139 43.9659 55.7154 44.2462 55.532 44.7447C55.5436 44.8692 55.1625 45.156 54.3886 45.6052L54.1212 46.1011C53.8937 46.3526 53.6866 46.4871 53.4999 46.5046C53.3132 46.5221 53.076 46.6699 52.7882 46.9479C52.5192 47.2033 51.9163 47.8039 50.9797 48.7496C50.0411 49.6746 49.3586 50.4291 48.932 51.0131L48.2631 51.5781C47.9863 51.7505 47.8518 51.8782 47.8596 51.9611C47.8791 52.1686 47.728 52.4547 47.4065 52.8197L47.0769 53.3214C46.7768 53.2449 46.606 53.2086 46.5645 53.2125C46.3363 53.2339 46.15 53.3664 46.0054 53.6102C46.1869 53.7606 46.2796 53.8565 46.2835 53.898C46.3146 54.2299 46.0356 54.6013 45.4464 55.0122L44.2398 56.5378C44.2022 56.5831 44.0573 56.7118 43.8051 56.9238C43.553 57.1357 43.3679 57.3937 43.25 57.6977C43.1508 57.9791 42.8335 58.5005 42.2981 59.2622C41.7607 60.0031 41.4431 60.4095 41.3453 60.4814C41.2454 60.5326 41.1336 60.6791 41.0098 60.9209C40.886 61.1627 40.6154 61.5124 40.1979 61.97C39.7805 62.4277 39.564 62.9083 39.5485 63.412C39.168 63.5941 38.9826 63.737 38.9923 63.8407L38.8348 64.1694L38.5976 64.3172C38.5638 64.404 38.5463 64.5521 38.5451 64.7615C38.5418 64.9501 38.16 65.3417 37.3997 65.9361C36.6374 66.5097 36.1526 66.8063 35.9451 66.8257C35.8829 66.8316 35.7935 66.8818 35.6768 66.9764C35.5601 67.0711 35.481 67.1203 35.4395 67.1242C35.3773 67.13 35.0856 67.0318 34.5645 66.8296C34.0641 66.6254 33.657 66.0777 33.3433 65.1864L33.5163 64.3541L33.3306 63.7124C33.3189 63.588 33.3967 63.4133 33.564 63.1884C33.7519 62.9615 33.8313 62.6925 33.8022 62.3813C34.064 61.6035 34.2634 61.0512 34.4001 60.7245L34.4157 60.2209C34.4792 60.0057 34.5926 59.7649 34.756 59.4985C34.9381 59.2094 35.0353 58.9073 35.0477 58.5923C35.058 58.2565 35.1734 58.0365 35.3938 57.9321C35.6142 57.8277 36.3366 56.4941 37.561 53.9311L37.5202 53.4955L38.2766 51.8552C38.5035 51.3736 38.7868 50.8239 39.1264 50.2062L39.3393 49.4643C38.673 49.2757 38.3191 49.1833 38.2776 49.1872C38.1531 49.1989 38.0053 49.2964 37.8342 49.4799C37.8673 49.8325 37.2894 50.2529 36.1006 50.741C35.8634 50.8888 35.5701 51.2197 35.2207 51.7337L34.3962 52.3132C34.2795 52.4078 34.098 52.5922 33.8517 52.8664L33.454 53.3117C32.9471 53.4848 32.5284 53.817 32.1978 54.3084L31.4132 54.9783C31.1837 55.209 31.0324 55.3802 30.9591 55.4917C30.8859 55.6031 30.5235 55.8673 29.8721 56.2841L29.421 56.8286L28.9776 57.1212C28.6788 57.505 28.4581 57.8291 28.3155 58.0935C28.1729 58.358 27.9687 58.5236 27.7029 58.5904L27.0418 58.9035C26.9679 59.4544 26.6327 60.009 26.0364 60.5671L25.2391 61.7718C25.0868 61.9325 24.9523 62.0602 24.8356 62.1549C24.7721 62.3701 24.6405 62.5289 24.4409 62.6313C24.2023 62.9884 24.0474 63.2331 23.9761 63.3654L23.629 63.6804C23.0884 63.9403 22.8239 64.1325 22.8356 64.257L22.9503 64.8112C22.9717 65.0393 22.7433 65.2805 22.2649 65.5346C22.0672 65.6577 21.9583 65.8353 21.9382 66.0674C21.9388 66.2975 21.8886 66.5429 21.7875 66.8034L21.2274 66.8559C21.1652 66.8618 20.9779 66.984 20.6655 67.2225C20.624 67.2264 20.5844 67.251 20.5468 67.2964L20.7384 68.0003C20.7617 68.2492 20.623 68.5552 20.3222 68.9182C20.0195 69.2604 19.7865 69.5648 19.6232 69.8312C19.4806 70.0956 19.3678 70.2318 19.2848 70.2395L19.0981 70.2571L18.9231 70.399C18.9808 70.7912 18.7614 71.2407 18.2649 71.7476L17.9353 72.2493C17.8205 72.3647 17.5165 72.9163 17.0233 73.9042C16.53 74.892 16.0513 75.7006 15.5872 76.33C15.1231 76.9595 14.683 77.3983 14.2668 77.6465C13.8487 77.8741 13.4005 78.1149 12.9221 78.369L11.6231 78.2397C11.4773 78.0232 11.2731 77.854 11.0106 77.7321C10.7688 77.6083 10.6401 77.4635 10.6246 77.2975L10.1491 76.2435C10.1219 75.9532 10.2029 75.5898 10.3922 75.1536C10.5795 74.6966 10.6832 74.3521 10.7033 74.12C10.7422 73.8653 10.8365 73.5321 10.9863 73.1205C11.134 72.6882 11.206 72.4512 11.2021 72.4098C11.1496 71.8497 11.2005 71.4997 11.3547 71.3597C11.5278 71.197 11.9031 70.8479 12.4807 70.3125C12.5221 70.3086 12.539 70.2652 12.5312 70.1822L12.5254 70.12L12.4136 69.5969C12.8148 68.7432 13.0776 68.3105 13.2021 68.2989C13.2436 68.295 13.3285 68.3079 13.4568 68.3378L13.206 67.6708C13.1982 67.5878 13.2996 67.4423 13.5103 67.2342C13.721 67.0261 13.8778 66.8022 13.9809 66.5623L13.8214 66.2006L13.8098 66.0762C13.7728 65.6821 13.9942 65.2533 14.4738 64.7898C14.5413 64.6161 14.6673 64.1753 14.8521 63.4675L15.5268 61.9604C15.6973 61.5469 15.8908 61.2672 16.1073 61.1213C16.3218 60.9548 16.4307 60.7771 16.434 60.5885C16.4372 60.3999 16.4904 60.1857 16.5934 59.9458C16.6032 60.0495 16.6145 60.0589 16.6275 59.974C16.6592 59.8664 16.6916 59.6541 16.7247 59.3372C16.7785 59.0183 16.9937 58.747 17.3703 58.5234C17.7326 57.2548 18.0486 56.6079 18.3183 56.5826C18.4012 56.5749 18.5192 56.6057 18.6722 56.675L18.7966 56.6633C19.1285 56.6322 19.2828 56.4922 19.2595 56.2433C19.2517 56.1603 19.2063 56.1227 19.1233 56.1305C18.9561 56.3554 18.7999 56.4747 18.6547 56.4883C18.5095 56.5019 18.433 56.4673 18.4252 56.3843C18.4213 56.3428 18.4486 56.2984 18.5069 56.2511L19.0601 54.7868L19.0669 54.1898C19.1382 54.0576 19.2867 53.8553 19.5122 53.5831L19.9741 52.8179L19.9449 52.5068C19.941 52.4653 20.0149 52.2491 20.1666 51.8582C20.3163 51.4466 20.4152 51.0502 20.4631 50.6691L20.9191 49.8417C20.9788 49.585 20.9989 49.3529 20.9794 49.1455C20.9502 48.8344 20.8942 48.6827 20.8112 48.6905L19.0387 49.2019C18.1105 49.7911 17.4526 50.2504 17.0649 50.5797L16.3639 50.8023C16.3224 50.8062 16.056 50.9777 15.5647 51.3167C15.0922 51.633 14.6608 51.8304 14.2706 51.9088C13.8991 51.9646 13.5809 52.1409 13.3158 52.4378L13.1972 52.5117L12.606 52.5671C12.4031 52.8581 12.267 53.0801 12.1976 53.2331C12.1263 53.3653 12.0596 53.4344 11.9973 53.4402C10.0327 55.0264 8.7839 55.9909 8.25109 56.3338C7.71827 56.6767 7.31833 56.9862 7.05127 57.2623C6.78227 57.5177 6.54892 57.707 6.35122 57.8302L6.38623 58.2035C6.41929 58.5561 6.19793 58.9849 5.72215 59.4899C5.26517 59.9721 4.85 60.2308 4.47664 60.2658C4.35219 60.2775 4.1493 60.2337 3.86798 60.1345C3.60546 60.0127 3.30632 59.9466 2.97055 59.9362C2.65552 59.9239 2.46301 59.5443 2.393 58.7976C2.29382 57.7398 3.07457 56.6936 4.73525 55.659C4.99323 55.5093 5.22853 55.3408 5.44113 55.1534C5.65374 54.9661 6.53886 54.4751 8.09648 53.6804L8.95793 53.1602C9.14591 52.9333 9.47065 52.7146 9.93217 52.5039C10.4125 52.2705 10.7816 52.079 11.0396 51.9293C11.3183 51.7776 11.5387 51.6732 11.7008 51.6162L11.8437 51.132ZM41.7341 55.9252L41.9928 55.336L41.9869 55.2738C41.9831 55.2323 41.9396 55.2155 41.8567 55.2232C41.6492 55.2427 41.5027 55.4657 41.4172 55.8922C41.4703 56.0127 41.5176 56.0711 41.5591 56.0672C41.6421 56.0594 41.7004 56.0121 41.7341 55.9252ZM69.3551 70.1905L69.9871 70.5706C70.293 70.7093 70.4723 71.0587 70.5248 71.6188C70.5365 71.7432 70.4982 71.8933 70.4101 72.0689C70.3219 72.2446 70.2451 72.4297 70.1796 72.6241C69.5878 74.1234 68.8045 74.9188 67.8296 75.0102C67.5185 75.0393 67.0048 74.805 66.2885 74.3072C65.5722 73.8094 65.0994 73.3411 64.8699 72.9022C64.6612 72.4615 64.4888 72.1847 64.3526 72.0719C64.2373 71.9572 64.1757 71.8583 64.1679 71.7753C64.1465 71.5472 64.2061 71.2905 64.3468 71.0053C64.5082 70.7181 64.6119 70.3736 64.6579 69.9717C64.702 69.5491 64.8916 69.2279 65.2267 69.0082C65.5806 68.7657 65.8318 68.5434 65.9802 68.3412C66.1287 68.1389 66.3377 68.0252 66.6074 67.9999C66.7733 67.9843 66.9461 68.0414 67.1256 68.171C67.3052 68.3007 67.5479 68.4348 67.8539 68.5735C68.1786 68.6896 68.5209 68.9923 68.8806 69.4817L69.3551 70.1905ZM120.409 59.409L120.6 58.7633L121.324 57.7852C121.675 57.0618 121.979 56.6253 122.237 56.4755C122.263 56.3057 122.311 56.1443 122.38 55.9913C122.449 55.8383 122.49 55.6043 122.502 55.2893L122.736 54.7652C122.811 54.6745 122.847 54.6084 122.843 54.5669C122.839 54.5254 122.744 54.4087 122.559 54.2169L122.342 53.5781C122.326 53.4121 121.725 52.914 120.538 52.0837L120.289 52.107L117.947 51.228L117.794 50.9286L117.539 50.8897L117.239 51.0433L117.177 51.0491L116.09 50.8372C115.218 50.6888 114.642 50.565 114.36 50.4658C114.323 50.5112 114.263 50.5377 114.18 50.5455L112.909 50.3822C112.548 50.3323 112.323 50.2697 112.232 50.1945C112.16 50.0966 111.975 50.0198 111.677 49.9641C111.397 49.8857 111.212 49.8088 111.122 49.7337C111.031 49.6585 110.861 49.6325 110.612 49.6559L109.852 49.9155C109.846 49.8533 109.546 49.7768 108.951 49.686C108.849 49.4864 108.777 49.3885 108.736 49.3924L107.845 49.6014C107.216 49.3674 106.891 49.2514 106.871 49.2534C106.767 49.2631 106.399 49.2453 105.767 49.1999C105.133 49.1338 104.717 49.0472 104.519 48.9403C104.32 48.8333 104.029 48.7351 103.644 48.6457L103.44 48.4765C103.394 48.4389 103.276 48.4081 103.086 48.3841L102.526 48.4367C102.401 48.4483 102.215 48.3611 101.967 48.1751C101.741 47.9871 101.441 47.806 101.069 47.6316C100.718 47.4553 100.387 47.162 100.076 46.7517C99.7846 46.3187 99.607 45.875 99.5435 45.4206C99.4981 45.383 99.4735 45.3435 99.4696 45.302L99.5629 44.2888C99.631 43.0061 100.112 41.7787 101.007 40.6067C101.12 40.0311 101.425 39.5946 101.92 39.297L102.003 38.8498C102.556 38.2748 102.943 37.8201 103.162 37.4856C103.403 37.1492 103.68 36.8721 103.995 36.6543C104.307 36.4158 104.549 36.2048 104.72 36.0214L105.257 35.7199C105.218 35.5352 105.634 35.0568 106.503 34.2848C107.391 33.4901 108.085 32.9648 108.584 32.7087C109.102 32.43 109.439 32.231 109.595 32.1117C109.772 31.9905 110.276 31.7863 111.107 31.4992C111.262 30.9197 111.568 30.6085 112.024 30.5657L112.491 30.522L113.054 29.8414L113.9 29.8248C113.938 29.7795 114.04 29.6443 114.208 29.4194C114.373 29.1737 114.673 29.0305 115.109 28.9896L118.766 27.4855L119.015 27.4621L119.269 27.501C119.435 27.4855 119.629 27.3208 119.851 27.0071C120.093 26.6914 120.422 26.5141 120.837 26.4752C120.92 26.4675 121.083 26.5358 121.327 26.6804C121.331 26.7219 121.353 26.7407 121.395 26.7368L122.18 26.412L123.151 26.3838L124.335 25.9589C125.103 25.887 125.794 26.0105 126.41 26.3294L126.461 26.1991L126.443 26.0124C126.41 25.6598 126.59 25.465 126.985 25.428C127.151 25.4125 127.258 25.4442 127.307 25.5233L127.701 25.7061L127.919 25.6857C127.96 25.6818 128.242 25.781 128.763 25.9832C129.055 25.7466 129.242 25.6244 129.325 25.6167C129.719 25.5797 130.046 25.7165 130.305 26.027L130.828 25.9151C130.978 25.7336 131.074 25.6409 131.116 25.6371C131.24 25.6254 131.422 25.7758 131.66 26.0882L131.853 26.1329L132.631 26.06C132.672 26.0561 132.761 26.1106 132.897 26.2233L133.266 26.4713C133.447 26.6217 133.574 26.7458 133.646 26.8437C133.718 26.9415 133.799 27.0281 133.89 27.1033C134.408 26.8245 134.687 26.6832 134.729 26.6793C134.936 26.6599 135.108 26.8216 135.245 27.1645C135.272 27.4549 135.476 27.7288 135.856 27.9861C136.254 28.2208 136.468 28.4936 136.498 28.8048C136.973 28.9694 137.233 29.2799 137.275 29.7362L138.01 31.2054L137.935 31.746C138.132 32.0623 138.232 32.2412 138.236 32.2827L138.22 33.4456L138.458 34.6473C138.518 35.2903 138.269 35.8682 137.71 36.3809C137.586 36.3926 137.387 36.5054 137.114 36.7193C136.86 36.9105 136.712 37.0081 136.671 37.012C136.131 37.0625 135.757 36.9721 135.547 36.7407C135.355 36.4866 135.171 36.3051 134.993 36.1962C134.816 36.0873 134.717 35.9291 134.698 35.7217C134.653 35.2447 134.931 34.7478 135.531 34.2312C135.822 34.204 136.02 34.0912 136.127 33.8928C136.086 33.4572 135.965 33.1652 135.763 33.0168C135.56 32.8683 135.331 32.6596 135.076 32.3906C134.841 32.1197 134.592 31.9129 134.327 31.7703C134.061 31.607 133.832 31.3982 133.641 31.1441C133.47 30.8881 133.323 30.7659 133.199 30.7776L132.769 30.8807L131.849 30.7786C130.883 30.7436 129.992 30.6075 129.174 30.3702L128.552 30.4286L126.848 30.3372C126.57 30.4889 126.161 30.59 125.621 30.6405L123.597 31.1442L122.751 31.1607C122.689 31.1666 122.135 31.3964 121.09 31.8501L120.784 31.9415L119.944 32.0203C119.903 32.0242 119.643 32.1531 119.164 32.4072C118.707 32.6594 118.316 32.8425 117.992 32.9566L117.723 33.1073C117.686 33.1527 117.626 33.1793 117.543 33.187L117.039 33.1715L114.426 34.7661L113.967 34.558C113.599 34.4251 113.394 34.3606 113.353 34.3645C113.063 34.3917 112.931 34.5505 112.958 34.8409L112.951 35.4379C112.697 35.6292 112.533 35.7701 112.458 35.8609C112.382 35.9516 112.284 36.0236 112.164 36.0767L111.791 36.1117C111.542 36.1351 111.314 36.2715 111.107 36.5211C110.919 36.748 110.743 36.8795 110.579 36.9158C110.415 36.9521 110.185 37.0678 109.89 37.263C109.856 37.3498 109.698 37.4483 109.415 37.5585C109.133 37.6687 108.923 37.8872 108.786 38.2139C108.668 38.5179 108.505 38.6796 108.298 38.699L107.664 38.6329L107.38 39.2873C106.954 39.4318 106.711 39.5174 106.651 39.544C106.414 39.9219 106.17 40.2168 105.918 40.4288C105.666 40.6407 105.416 40.8734 105.167 41.1269C104.938 41.3577 104.772 41.593 104.668 41.8328C104.586 42.0707 104.438 42.2729 104.223 42.4395C104.007 42.5854 103.835 42.8735 103.708 43.3039L103.426 43.6442C102.948 44.1284 102.733 44.6194 102.779 45.1172C102.812 45.4698 103.086 45.7058 103.599 45.8251C104.112 45.9443 104.436 46.05 104.57 46.142C104.704 46.2341 104.896 46.2684 105.145 46.2451C105.394 46.2217 105.637 46.2512 105.875 46.3336C106.113 46.4159 106.512 46.5458 107.073 46.7234C107.208 47.0456 107.327 47.2018 107.431 47.1921C107.472 47.1882 107.547 47.0974 107.656 46.9198C107.765 46.7422 107.944 46.6418 108.193 46.6184C108.463 46.5931 108.738 46.7348 109.018 47.0433L109.249 46.8333L109.373 46.8216L109.79 46.9082L109.852 46.9023L110.208 46.6806C110.245 46.6353 110.306 46.6087 110.389 46.6009C110.451 46.5951 110.782 46.6686 111.382 46.8216L111.444 46.8158C111.486 46.8119 111.648 46.7549 111.931 46.6447C112.249 46.6985 112.432 46.7442 112.477 46.7817L112.936 46.9898C112.942 47.052 112.986 47.0793 113.069 47.0715C113.152 47.0637 113.273 47.0106 113.431 46.912C113.587 46.7928 113.738 46.7263 113.883 46.7127C114.049 46.6971 114.246 46.7937 114.475 47.0024C114.793 46.8261 114.973 46.736 115.015 46.7321C115.201 46.7146 115.537 46.8401 116.023 47.1084L116.626 47.1775L117.31 47.1133L118.355 47.2037C118.674 47.4876 118.997 47.6979 119.324 47.8347C119.344 47.6027 119.479 47.475 119.727 47.4516C120.059 47.4205 120.58 47.5077 121.29 47.7132L121.545 47.7521L121.811 47.9154C122.156 47.7994 122.37 47.7375 122.453 47.7297C122.868 47.6908 123.089 47.8165 123.116 48.1069C123.139 48.3558 123.107 48.6832 123.02 49.089C123.061 49.0851 123.127 49.1207 123.218 49.1959C123.31 49.0617 123.416 48.9681 123.537 48.9149L124.008 48.5882C124.084 48.4975 124.142 48.4501 124.184 48.4463C124.661 48.4015 125.366 48.6702 126.299 49.2523C127.233 49.8344 127.801 50.5448 128.006 51.3836C128.029 51.6325 128.139 51.9151 128.336 52.2314L128.25 52.6475L128.359 53.1395C128.362 53.181 128.335 53.3301 128.275 53.5868L128.256 54.0593C128.223 54.1462 128.167 54.2246 128.09 54.2946C128.013 54.3646 127.958 54.4431 127.924 54.5299L128.16 55.0413L128.172 55.1658C128.18 55.2488 128.107 55.3706 127.955 55.5314C127.824 55.6902 127.743 55.8338 127.713 55.9621C127.683 56.0905 127.623 56.2321 127.533 56.387C127.441 56.5212 127.383 56.6836 127.359 56.8741C127.335 57.0647 127.148 57.3019 126.798 57.5859C126.467 57.8471 126.307 58.0399 126.319 58.1644C126.33 58.2888 126.378 58.3472 126.461 58.3394C126.71 58.3161 126.958 58.1777 127.206 57.9242C127.473 57.6481 127.678 57.4825 127.819 57.4274C127.96 57.3723 128.198 57.2245 128.531 56.984L131.327 55.3408C133.408 54.0995 134.573 53.4672 134.821 53.4438C135.153 53.4127 135.335 53.5631 135.366 53.895C135.378 54.0194 135.255 54.2716 134.997 54.6514C135.047 55.6302 134.676 56.2405 133.882 56.4823C133.591 56.7189 133.372 56.959 133.228 57.2027L132.979 57.2261C132.515 57.8555 131.951 58.2013 131.287 58.2635L131.1 58.281C130.405 59.1204 129.511 59.6332 128.42 59.8192C127.762 60.6133 127.194 61.0327 126.717 61.0774L126.231 61.2485C125.732 61.5046 125.379 61.6423 125.171 61.6617C125.13 61.6656 125.055 61.7564 124.946 61.934L124.511 62.32C124.125 62.4399 123.721 62.7079 123.3 63.1241C122.878 63.5402 122.546 63.7911 122.303 63.8767C122.079 63.9395 121.838 64.0458 121.58 64.1956C121.322 64.3453 120.299 65.1526 118.511 66.6176L118.118 66.78C117.344 67.2292 116.865 67.588 116.681 67.8563C116.495 68.1039 116.265 68.3243 115.99 68.5175L115.866 68.5291C115.389 68.5739 114.858 68.9375 114.273 69.6201C114.241 69.7277 113.801 69.9468 112.954 70.2774C112.125 70.5853 111.339 71.0251 110.598 71.5968C110.112 71.7679 109.515 71.9912 108.809 72.2667C108.102 72.5422 107.585 72.7162 107.257 72.7888L105.123 73.4597C104.653 73.5874 104.115 73.7634 103.509 73.9877C103.124 73.8982 102.796 73.8662 102.527 73.8914L101.972 74.0062C101.889 74.014 101.748 73.954 101.548 73.8263C101.368 73.6967 101.126 73.5729 100.822 73.4549C100.52 73.3577 100.342 73.0187 100.287 72.4379C100.239 71.9193 100.762 71.3576 101.856 70.7529C102.948 70.1273 103.661 69.6943 103.994 69.4539C104.138 69.2101 104.406 69.0491 104.796 68.9706C105.207 68.8902 105.548 68.7327 105.819 68.4981C106.09 68.2634 106.518 68.0349 107.104 67.8126L108.287 67.0425C108.346 66.9952 108.396 66.9696 108.437 66.9657L108.873 66.9249C109.018 66.9113 109.225 66.7768 109.494 66.5214C109.763 66.266 110.048 66.0718 110.35 65.939L110.723 65.904C110.765 65.9001 110.822 65.8424 110.895 65.7309C110.968 65.6194 111.142 65.4671 111.417 65.2739L111.505 65.2029L111.816 65.1738C112.027 64.9657 112.282 64.7848 112.581 64.6312C112.881 64.4776 113.166 64.2835 113.437 64.0488L115.776 62.8879L116.342 62.8976C116.466 62.8859 116.613 62.778 116.782 62.5738C116.97 62.3469 117.418 62.0958 118.124 61.8203C118.212 61.6446 118.412 61.4271 118.722 61.1679C119.033 60.9086 119.396 60.5397 119.811 60.0614L120.409 59.409ZM110.28 68.2054L109.838 68.184C109.563 68.3772 109.282 68.4977 108.993 68.5457C108.726 68.5917 108.309 68.8296 107.742 69.2594C107.194 69.6665 106.552 70.0719 105.816 70.4757C105.08 70.8796 104.716 71.1333 104.726 71.2371C105.731 71.0173 106.762 70.6381 107.821 70.0994L110.003 69.2671C110.285 69.157 110.475 69.0555 110.57 68.9628C110.687 68.8682 110.905 68.7327 111.223 68.5564L111.686 68.1364C111.786 68.0851 112.006 67.9808 112.347 67.8233C112.688 67.6658 112.852 67.5248 112.841 67.4003C112.833 67.3173 112.788 67.2798 112.705 67.2875C111.958 67.3575 111.377 67.5271 110.963 67.7961C110.549 68.0651 110.321 68.2015 110.28 68.2054ZM135.8 53.0382L136.404 52.448C136.898 52.3598 137.143 52.0753 137.14 51.5943C137.137 51.1133 137.44 50.6664 138.05 50.2535L138.374 49.6896C138.656 49.3493 139.469 48.865 140.812 48.2369C141.145 47.9964 141.366 47.7874 141.475 47.6098C141.512 47.5644 141.552 47.5398 141.593 47.5359L142.103 47.6137C142.372 47.5884 142.708 47.4837 143.109 47.2996C143.531 47.1136 143.939 47.0021 144.333 46.9651L145.634 46.7804C145.717 46.7726 145.889 46.8193 146.149 46.9204C146.431 47.0196 146.758 47.0517 147.132 47.0167C147.588 46.9739 148.022 47.1424 148.434 47.5223C148.867 47.9001 149.1 48.2654 149.133 48.618C149.194 49.261 148.923 49.9455 148.322 50.6715C147.72 51.3975 147.226 51.8205 146.84 51.9404C146.52 52.3261 146.272 52.5795 146.095 52.7007C145.916 52.8012 145.733 52.9649 145.545 53.1917C145.376 53.3959 145.229 53.5039 145.104 53.5155C145.021 53.5233 144.957 53.5084 144.912 53.4708C144.864 53.4125 144.799 53.3872 144.716 53.395C144.384 53.4261 144.059 53.8646 143.741 54.7105L143.175 54.7008C142.844 54.962 142.639 55.2323 142.561 55.5117C142.482 55.791 142.277 55.9463 141.945 55.9774C141.25 56.8168 140.767 57.2492 140.498 57.2745C140.456 57.2783 140.307 57.2505 140.05 57.1908C139.904 57.4138 139.841 57.6394 139.863 57.8676C139.886 58.1165 139.734 58.2772 139.406 58.3498L139.036 58.7611L138.719 58.728L138.158 59.4398C137.847 59.4689 137.535 59.6028 137.223 59.8413C137.205 60.0941 137.173 60.4215 137.127 60.8234C137.079 61.2045 137.057 61.4158 137.061 61.4573C137.117 62.0588 137.695 62.3081 138.794 62.205L140.267 61.8472C140.661 61.8102 141.015 61.6725 141.327 61.4339C141.66 61.1935 142.024 61.0547 142.418 61.0178C142.542 61.0061 142.725 60.9471 142.966 60.8408L143.289 60.9361C143.405 60.6114 143.648 60.3061 144.019 60.0202C144.39 59.7343 144.689 59.5807 144.918 59.5593L145.211 59.3435C145.271 59.0868 145.38 58.9092 145.538 58.8107L145.766 58.5695C145.917 58.388 146.065 58.2905 146.21 58.2769L146.645 58.236L146.764 58.1621C146.962 57.5995 147.275 57.2563 147.703 57.1325C148.15 56.986 148.415 56.8041 148.5 56.587C148.605 56.3679 148.8 56.224 149.087 56.1553C149.373 56.0866 149.599 55.9294 149.765 55.6837C149.949 55.4154 150.176 55.1639 150.447 54.9292C150.718 54.6946 150.901 54.5205 150.994 54.4071C151.109 54.2917 151.208 54.2301 151.291 54.2223C151.416 54.2107 151.486 54.2982 151.504 54.4849C151.521 54.6715 151.572 54.761 151.655 54.7532C151.738 54.7454 151.775 54.7001 151.767 54.6171C151.76 54.5341 151.729 54.4324 151.676 54.3118L151.656 54.094C151.626 53.7829 151.773 53.5599 152.095 53.4251L153.411 52.3915C153.411 51.952 153.502 51.6924 153.683 51.6127C153.883 51.5103 154.03 51.4127 154.126 51.32C154.22 51.2066 154.329 51.144 154.454 51.1324C154.724 51.1071 154.873 51.25 154.902 51.5611L154.822 52.3847L155.057 53.2102C155.068 53.3346 154.981 53.5207 154.795 53.7683C154.628 53.9932 154.514 54.3387 154.453 54.8047C154.39 55.2501 154.278 55.5012 154.116 55.5583L153.929 55.5758C153.592 56.0049 153.314 56.2716 153.094 56.376C152.892 56.4577 152.738 56.5977 152.631 56.796L151.687 58.1086C151.499 58.3355 151.34 58.5387 151.21 58.7183C151.081 58.8978 150.974 58.9915 150.891 58.9993L150.619 58.7737C150.615 58.7322 150.572 58.7153 150.489 58.7231C150.281 58.7426 150.158 58.8797 150.119 59.1344C150.101 59.3872 150.018 59.6147 149.87 59.817C149.275 60.1657 148.895 60.4733 148.732 60.7397L148.551 60.8194L147.991 60.8719C147.721 60.8972 147.554 61.1221 147.489 61.5467C147.423 61.9505 147.143 62.2069 146.651 62.3158C146.18 62.4227 145.849 62.5793 145.66 62.7854C145.622 62.8308 145.532 62.881 145.391 62.9361C145.25 62.9912 144.975 63.1844 144.567 63.5156L142.041 64.6941C141.843 64.8172 141.713 64.8817 141.651 64.8875L140.791 65.0937C140.667 65.1053 140.535 65.034 140.395 64.8798C140.255 64.7255 140.164 64.6503 140.122 64.6542L139.58 64.8934C139.177 65.0567 138.788 65.1559 138.415 65.1909C138.208 65.2104 137.973 65.1592 137.71 65.0373C137.448 64.9154 137.241 64.8302 137.09 64.7816C136.488 64.838 136.019 64.4112 135.683 63.5011L135.315 63.5983C135.232 63.6061 134.883 62.896 134.268 61.468C134.128 61.3137 133.92 61.2181 133.645 61.1812C133.367 61.1235 133.213 60.9287 133.182 60.5968C133.094 59.6634 133.233 59.0227 133.598 58.6746C133.982 58.3038 134.187 58.0335 134.213 57.8637L134.497 56.205C134.574 56.135 134.658 55.9178 134.749 55.5535L135.342 54.1797C135.412 54.0267 135.564 53.6462 135.8 53.0382ZM142.19 50.5559L141.834 50.7775C141.755 50.8268 141.524 51.0368 141.14 51.4076C140.775 51.7557 140.405 52.0519 140.031 52.2963C139.675 52.518 139.329 53.0631 138.991 53.9317C138.675 54.7983 138.523 55.2939 138.534 55.4183C138.546 55.5428 138.614 55.5992 138.739 55.5875L139.753 55.0216C140.129 54.798 140.47 54.5254 140.775 54.2039C141.1 53.8805 141.565 53.4812 142.169 53.0061L142.395 52.7338C142.428 52.6469 142.601 52.4842 142.914 52.2457C143.245 51.9845 143.484 51.7424 143.63 51.5194L143.93 51.3658C144.23 50.7727 144.55 50.3974 144.891 50.2398C145.253 50.0804 145.428 49.9384 145.416 49.814C145.393 49.5651 145.184 49.4591 144.79 49.496C144.624 49.5116 144.385 49.6386 144.073 49.8772L143.357 49.9443C143.274 49.9521 143.058 50.0979 142.708 50.3818L142.19 50.5559ZM155.63 56.5148L155.61 56.297C155.583 56.0066 155.582 55.7765 155.608 55.6067C155.452 55.2865 155.362 54.9915 155.337 54.7219C155.333 54.6804 155.409 54.3803 155.566 53.8215L155.756 52.8308C155.866 52.4438 155.93 52.239 155.949 52.2163C155.794 51.8961 155.714 51.7152 155.71 51.6737C155.665 51.1967 155.763 50.7899 156.004 50.4535C156.244 50.1171 156.431 49.6601 156.566 49.0826L157.01 47.1263L157.803 44.5409C157.818 44.4768 157.896 44.3021 158.037 44.0169C158.198 43.7297 158.322 43.4879 158.408 43.2915C158.513 43.0724 158.652 42.7665 158.824 42.3737L159.129 42.2823C159.205 42.1915 159.238 42.1047 159.231 42.0217C159.227 41.9802 159.17 41.8182 159.059 41.5356L159.979 39.6289L160.507 38.2297C160.682 37.8577 160.888 37.6081 161.128 37.4811C161.47 36.6747 161.79 36.174 162.085 35.9788C162.173 35.5731 162.361 35.1265 162.65 34.639L163.235 34.5214C163.312 34.2212 163.395 33.9937 163.485 33.8388L163.489 33.2107C163.501 33.3352 163.55 33.2992 163.636 33.1028C163.72 32.8856 163.841 32.4977 163.998 31.9389L164.747 30.8957L164.955 30.4367C165.046 30.2818 165.185 29.9862 165.374 29.55C165.674 29.3964 165.912 29.1439 166.088 28.7926L166.692 28.2024C166.629 27.9781 166.83 27.4466 167.296 26.6078C167.635 26.4295 167.939 26.2127 168.208 25.9573L168.632 25.792C168.564 25.0661 168.776 24.5439 169.269 24.2257L169.619 23.9417C169.936 23.7447 170.115 23.6442 170.156 23.6403L170.368 23.5577C170.609 23.4514 170.896 23.3827 171.228 23.3516C171.995 23.2796 172.717 23.5048 173.394 24.0273C174.069 24.529 174.44 25.1428 174.508 25.8688C174.535 26.1592 174.408 26.4746 174.126 26.8149L174.025 27.0754C173.842 28.2435 173.688 28.8334 173.563 28.845C173.48 28.8528 173.372 28.9257 173.238 29.0638C173.261 29.7522 173.256 30.1398 173.222 30.2267C172.854 30.3239 172.711 30.8081 172.793 31.6793C172.763 31.8076 172.628 32.04 172.388 32.3764C172.166 32.6902 172.008 33.1235 171.913 33.6764C171.817 34.2086 171.685 34.4824 171.519 34.498L171.177 34.5301L171.314 34.988C171.341 35.2784 171.224 35.5824 170.96 35.9C170.716 36.195 170.577 36.5009 170.544 36.8179C170.511 37.1349 170.297 37.5316 169.903 38.008L169.638 38.535C169.533 38.7541 169.388 38.9874 169.201 39.235C169.015 39.4827 168.872 39.8518 168.772 40.3425L168.103 41.9118C167.638 42.9807 167.259 43.508 166.964 43.4937C166.853 44.3202 166.773 44.7985 166.722 44.9288C166.672 45.0591 166.537 45.1868 166.319 45.3119C166.1 45.437 165.941 45.6402 165.842 45.9216C165.741 46.1821 165.624 46.3815 165.49 46.5195L165.038 47.7232C164.72 47.8995 164.507 48.1916 164.398 48.5993C164.074 48.7134 163.893 49.0128 163.855 49.4977C163.78 49.5884 163.693 49.7848 163.596 50.0869L162.609 51.278C162.086 51.7246 161.828 52.2091 161.835 52.7316C161.841 53.2333 161.594 53.5075 161.096 53.5541C160.744 53.5872 160.211 53.4802 159.497 53.2333L159.435 53.2391C159.4 53.5353 159.285 53.8705 159.09 54.2445L159.293 55.0729C159.303 55.1766 159.198 55.8455 158.979 57.0797C159.174 57.3753 159.277 57.5853 159.289 57.7097L159.291 58.4001L159.525 59.2256C159.693 59.9003 159.974 60.2192 160.368 60.1823L161.127 60.2367C161.168 60.2329 161.413 60.053 161.861 59.6971L162.954 58.9669C162.995 58.963 163.018 58.9818 163.022 59.0233C163.237 59.0868 163.407 59.1128 163.531 59.1011C163.739 59.0816 163.827 58.906 163.796 58.5741L163.758 58.1696C163.863 57.9505 163.996 57.8125 164.158 57.7554C164.341 57.6964 164.498 57.5875 164.63 57.4287C164.761 57.2699 164.869 57.1866 164.952 57.1788L165.263 57.1497C165.574 57.1205 165.695 56.7429 165.627 56.0169C165.706 55.9677 165.802 55.875 165.915 55.7389L166.289 55.7039C166.455 55.6883 166.612 55.4747 166.762 55.0631C166.931 54.6288 167.052 54.3663 167.128 54.2755C167.497 54.1991 167.751 54.1125 167.888 54.0159C168.439 52.7506 168.891 52.1015 169.243 52.0684L169.43 52.0509C169.752 51.686 169.911 51.3781 169.908 51.1272C169.925 50.8537 170.012 50.6677 170.17 50.5691C170.349 50.4687 170.505 50.3494 170.639 50.2113C170.772 50.0732 170.86 50.0023 170.901 49.9984C171.212 49.9692 171.379 50.0687 171.4 50.2969L171.388 51.1768L171.694 52.0898C171.701 52.1728 171.624 52.3475 171.46 52.6139C171.316 52.8576 171.257 53.1246 171.284 53.415C171.341 54.0166 171.267 54.3478 171.064 54.4087C170.86 54.4697 170.697 54.6314 170.575 54.8939C170.472 55.1337 170.275 55.372 169.983 55.6086C169.69 55.8244 169.477 56.1268 169.346 56.5157L168.829 56.6898L168.536 56.9056C168.347 57.572 168.114 57.9913 167.837 58.1638C167.581 58.3342 167.28 58.8019 166.933 59.5668C166.871 59.5726 166.842 59.5963 166.846 59.6378L166.342 59.6222C166.187 59.9716 166.018 60.1862 165.837 60.2659C165.657 60.3456 165.513 60.4847 165.406 60.683C165.297 60.8606 165.082 61.0272 164.762 61.1828C164.463 61.3364 164.279 61.5001 164.212 61.6738C164.144 61.8475 164.029 61.9525 163.865 61.9888C163.701 62.0251 163.553 62.1227 163.421 62.2815C163.288 62.4195 163.169 62.4934 163.065 62.5032C163.024 62.5071 162.877 62.4999 162.624 62.4818L162.5 62.4934C162.17 62.7754 161.892 62.9271 161.663 62.9485C161.394 62.9738 161.201 63.0337 161.084 63.1284C160.952 63.0571 160.749 63.0133 160.475 62.9971C160.222 62.979 159.922 62.9025 159.575 62.7676C159.23 62.8837 159.016 62.9456 158.933 62.9534C158.581 62.9864 158.102 62.686 157.499 62.052C156.894 61.3974 156.56 60.7381 156.498 60.0744C156.496 60.0537 156.357 59.9098 156.08 59.6427C155.823 59.353 155.678 59.0318 155.645 58.6791L155.616 58.368L155.643 57.9888L155.587 57.3977L155.632 57.2051C155.939 57.1345 156.091 57.0784 156.087 57.0369L155.63 56.5148ZM161.173 47.6776L161.792 47.2429C161.843 46.9033 162.076 46.4839 162.49 45.9848C162.901 45.4649 163.2 45.1962 163.387 45.1787L163.636 45.1554C163.622 45.0102 163.64 44.8621 163.689 44.7111C163.737 44.56 163.75 44.3601 163.726 44.1111C163.715 43.9867 163.963 43.6182 164.47 43.0056L164.667 42.4223C164.803 41.8655 165.228 41.3757 165.941 40.9531C166.175 40.3244 166.365 40.0032 166.51 39.9896L166.753 39.904C166.807 39.5851 166.947 39.2895 167.172 39.0173L167.279 38.8189L167.233 38.3211C167.229 38.2796 167.348 38.101 167.59 37.7854C167.852 37.447 168.033 37.1475 168.134 36.8869C168.233 36.6056 168.38 36.3826 168.573 36.218C168.788 36.0514 168.919 35.7775 168.967 35.3964L169.459 35.2875C169.434 35.0179 169.438 34.8396 169.472 34.7527L169.505 34.4358C169.585 34.1771 169.887 33.4897 170.41 32.3735L170.8 31.1756C170.788 31.0512 170.858 30.8982 171.008 30.7167C171.177 30.5125 171.246 30.2445 171.215 29.9126L171.368 28.8625C171.323 28.3855 171.218 28.1547 171.052 28.1703C170.858 28.3349 170.671 28.4571 170.49 28.5368C170.33 28.6146 170.199 29.0035 170.097 29.7036C169.488 29.9071 169.153 30.2419 169.093 30.708C169.05 31.1513 168.837 31.548 168.451 31.8981L168.268 32.2919C168.248 32.5239 168.073 32.7809 167.744 33.0629C167.415 33.3449 167.123 33.8012 166.868 34.4319C165.965 35.9604 165.467 36.7813 165.373 36.8947L165.096 37.2973L164.624 37.2788C164.738 37.6029 164.797 37.7857 164.801 37.8272C164.813 37.9516 164.762 38.0819 164.649 38.218C164.534 38.3334 164.454 38.477 164.407 38.6488C164.36 38.8205 164.254 39.0293 164.089 39.2749C163.922 39.4999 163.779 39.869 163.659 40.3824C163.559 40.8731 163.45 41.1657 163.334 41.2604L162.892 41.239C162.638 41.4302 162.519 41.6088 162.534 41.7747L162.669 42.2016C162.676 42.2845 162.624 42.3941 162.511 42.5302C162.417 42.6436 162.334 42.8712 162.261 43.2128C162.189 43.5544 161.977 44.0869 161.626 44.8102C161.274 45.5129 161.009 46.2596 160.832 47.0504C160.674 47.8185 160.49 48.317 160.282 48.5458C160.327 48.5834 160.391 48.5983 160.474 48.5905C160.744 48.5653 160.977 48.2609 161.173 47.6776ZM180.997 35.0218L180.697 33.8259L180.679 33.6392C180.588 32.6643 180.869 32.0939 181.523 31.928C181.666 31.8936 182.089 31.7179 182.792 31.401C183.173 31.4489 183.588 31.7448 184.037 32.2887C184.504 32.8098 184.758 33.2882 184.799 33.7238C184.803 33.7653 184.78 33.8615 184.732 34.0125C184.683 34.1636 184.668 34.4475 184.686 34.8643C184.702 35.2603 184.528 35.6324 184.163 35.9805C183.817 36.3059 183.426 36.489 182.99 36.5298C182.7 36.5571 182.308 36.395 181.815 36.0437C181.34 35.6697 181.068 35.3291 180.997 35.0218ZM169.015 51.8388L169.472 51.3565L169.658 51.339C169.804 51.3254 170.007 51.1494 170.268 50.811L170.567 50.6574C170.924 49.9962 171.253 49.5992 171.554 49.4663L172.017 49.0463C172.092 48.9556 172.2 48.8723 172.339 48.7964C172.499 48.7186 172.729 48.4982 173.03 48.1353C173.35 47.7496 173.613 47.547 173.821 47.5276C174.028 47.5081 174.196 47.5133 174.324 47.5431C174.425 47.2825 174.652 47.0207 175.004 46.7575C175.354 46.4736 175.628 46.155 175.825 45.8017L176.212 45.5771C176.528 45.3801 176.799 45.1454 177.024 44.8732C177.269 44.5782 177.598 44.4113 178.013 44.3724C178.615 44.316 179.266 44.5688 179.968 45.1308C180.688 45.6701 181.074 46.2198 181.127 46.7798L180.825 49.2563C180.64 51.0732 180.333 52.0435 179.905 52.1673L179.842 52.8324C179.571 53.067 179.442 53.2466 179.453 53.371L179.71 54.1003C179.72 54.204 179.62 54.3702 179.411 54.5991C179.37 54.6029 179.355 54.6671 179.367 54.7916L179.486 56.0672C179.508 56.2954 179.38 56.4957 179.103 56.6681C179.149 56.7057 179.215 56.7414 179.302 56.7751C179.414 56.6389 179.689 56.5505 180.124 56.5096L180.628 56.5252L181.248 55.7765C181.389 55.7214 181.578 55.6096 181.813 55.4411C182.067 55.2498 182.494 55.0006 183.093 54.6934L186.877 51.1999C187.384 50.5873 187.783 50.2674 188.074 50.2402C188.385 50.211 188.559 50.3935 188.596 50.7876C188.639 51.2439 188.581 51.6364 188.424 51.9651C188.285 52.271 188.163 52.6486 188.059 53.0978C187.953 53.5262 187.804 53.8332 187.612 54.0186C187.441 54.202 187.303 54.4033 187.198 54.6224C187.091 54.8207 186.775 55.1328 186.25 55.5587C185.745 55.9826 185.315 56.4101 184.957 56.8412C184.619 57.2495 184.333 57.5483 184.1 57.7376L182.852 58.8276L182.695 59.1562C182.657 59.2016 182.469 59.3134 182.13 59.4917C181.81 59.6472 181.525 59.8414 181.274 60.0741L180.744 60.4377C180.627 60.5323 180.424 60.6036 180.136 60.6516C179.868 60.6976 179.641 60.8445 179.455 61.0921C179.267 61.3189 179.111 61.4382 178.987 61.4499L178.514 61.4314L177.909 61.6764C177.557 61.7095 177.102 61.5429 176.544 61.1767C176.006 60.7878 175.714 60.3548 175.669 59.8777L175.652 59.691L175.673 59.2496C175.665 59.1666 175.584 58.965 175.428 58.6448C175.27 58.3039 175.19 58.1126 175.186 58.0712L175.207 57.6297L175.128 57.4489C175.075 56.8888 175.083 56.5323 175.153 56.3794C175.222 56.2264 175.266 56.0235 175.284 55.7707C175.3 55.4972 175.321 55.2755 175.347 55.1056L175.43 54.3132C175.49 54.0565 175.578 53.8809 175.694 53.7862C175.72 53.6164 175.777 53.3286 175.865 52.9228L175.936 52.3511L176.207 51.8864C176.357 51.7049 176.43 51.4783 176.426 51.2067C176.44 50.9124 176.526 50.601 176.683 50.2723C176.841 49.9437 176.917 49.7483 176.911 49.686C176.887 49.4371 176.751 49.3244 176.502 49.3477C176.419 49.3555 176.176 49.5457 175.771 49.9184L175.194 49.7843C175.152 49.7881 175.048 49.9026 174.881 50.1275C174.888 50.2105 174.801 50.2814 174.618 50.3404C174.435 50.3994 174.274 50.5715 174.133 50.8567L173.89 50.9423L173.468 50.7935L173.343 50.8052C173.136 50.8246 173.033 51.0645 173.034 51.5247C172.837 51.878 172.557 52.1239 172.193 52.2627L171.526 52.5135C171.306 52.6179 171.157 52.8201 171.081 53.1202C171.004 53.4204 170.822 53.7095 170.534 53.9875C170.245 54.2449 170.048 54.3784 169.944 54.3881C169.363 54.4426 169.043 54.1483 168.983 53.5053L169.094 52.0196L169.015 51.8388ZM200.697 45.4786L201.53 44.9924C201.803 44.7785 202.058 44.4826 202.294 44.1047L203.31 43.2248C203.894 42.7516 204.279 42.5062 204.465 42.4887L204.981 42.6288C205.022 42.6249 205.135 42.4887 205.319 42.2204C205.522 41.9293 205.769 41.7702 206.059 41.743C206.432 41.708 206.967 41.9404 207.662 42.4401C208.358 42.9399 208.726 43.4075 208.767 43.8431L208.742 44.9127C208.757 45.0786 208.884 45.5375 209.122 46.2894L209.145 46.5383L209.091 47.2967L209.288 48.0629L209.089 49.6196C209.126 50.0137 209.279 50.1981 209.549 50.1728C209.87 49.8079 210.152 49.5826 210.396 49.497L210.79 49.0206C210.941 48.8391 211.057 48.7445 211.14 48.7367C211.223 48.7289 211.318 48.6259 211.425 48.4275C211.551 48.2065 211.714 48.0447 211.913 47.9423C212.113 47.8399 212.244 47.6811 212.308 47.4659C213.351 46.0917 214.175 45.2821 214.78 45.0371C214.863 45.0293 214.988 44.913 215.155 44.688C215.343 44.4612 215.497 44.3211 215.618 44.268L216.253 43.6749L216.544 43.7731L216.607 43.7673C216.648 43.7634 216.804 43.6441 217.075 43.4094C217.346 43.1748 217.544 43.0516 217.668 43.04C218.456 42.9661 219.125 43.1754 219.673 43.6681C220.24 44.138 220.538 44.5182 220.565 44.8086L220.476 45.5388L220.785 46.4829L220.843 47.1051L220.749 47.7731C220.76 47.8976 220.86 48.0661 221.047 48.2787C221.255 48.4894 221.363 48.6362 221.371 48.7191C221.147 49.0121 221.039 49.2001 221.047 49.2831L221.162 49.8373L221.167 51.5631C221.18 51.7083 221.337 51.9342 221.638 52.2408C221.755 52.1462 221.924 52.057 222.147 51.9734C222.369 51.8898 222.54 51.8111 222.658 51.7372C222.775 51.6425 222.833 51.5952 222.833 51.5952C222.831 51.5745 222.82 51.5651 222.799 51.567C222.841 51.5631 222.969 51.5929 223.184 51.6565L223.309 51.6448C223.475 51.6292 223.553 51.4649 223.545 51.1518C223.535 50.818 223.717 50.5289 224.091 50.2845L224.844 50.2768C224.881 50.2314 224.949 50.0577 225.046 49.7556C225.162 49.4308 225.556 48.944 226.227 48.2952C226.918 47.6237 227.46 47.2694 227.854 47.2325C228.186 47.2014 228.366 47.331 228.393 47.6214C228.401 47.7044 228.379 47.926 228.33 48.2864C228.523 48.5613 228.629 48.8024 228.648 49.0098C228.685 49.4039 228.383 49.8612 227.741 50.3817C227.12 50.9003 226.666 51.5184 226.377 52.2359L226.264 52.372L225.636 52.3682C225.595 52.3721 225.507 52.5477 225.372 52.8951C225.256 53.2199 225.096 53.4127 224.893 53.4737C224.689 53.5346 224.55 53.6104 224.474 53.7012L223.859 54.1669C223.742 54.2616 223.367 54.7257 222.734 55.5593C222.12 56.3702 221.574 56.798 221.097 56.8427C220.889 56.8622 220.506 56.7934 219.947 56.6366C219.387 56.459 219.002 56.2648 218.794 56.0542C218.586 55.8435 218.292 55.6095 217.912 55.3522C217.553 55.0929 217.336 54.5588 217.26 53.7498C217.256 53.7084 217.301 53.6309 217.395 53.5175C217.51 53.4021 217.564 53.3133 217.558 53.2511C217.023 52.6735 216.743 52.2499 216.717 51.9803C216.706 51.8558 216.714 51.719 216.742 51.57C216.77 51.4209 216.778 51.2841 216.766 51.1596L216.602 50.0765L216.674 49.5048L216.579 49.1684L216.617 47.5641C216.594 47.3152 216.437 47.2043 216.147 47.2316C216.064 47.2393 215.957 47.333 215.828 47.5126C215.698 47.6921 215.524 47.8444 215.306 47.9695C215.106 48.072 214.905 48.3837 214.703 48.9049C214.349 49.1473 214.109 49.3791 213.983 49.6001C213.876 49.7984 213.781 49.9015 213.698 49.9093C213.657 49.9132 213.572 49.9002 213.444 49.8704C213.21 50.0597 213.103 50.258 213.123 50.4654L213.134 50.5899L213.22 50.833C213.238 51.0197 213.099 51.2105 212.803 51.4057C212.507 51.6008 212.163 52.062 211.771 52.7892C211.564 52.8087 211.421 52.843 211.342 52.8923L211.038 53.674C210.842 53.8179 210.666 54.0542 210.508 54.3828L210.152 54.6045C210.033 54.8878 209.909 55.1296 209.781 55.3299L209.626 55.6896C208.834 56.8311 208.261 57.4184 207.908 57.4514C207.556 57.4845 207.087 57.0577 206.501 56.1709C205.916 55.2842 205.599 54.5815 205.551 54.063L205.567 52.9001C205.563 52.8586 205.465 52.7005 205.272 52.4256L205.26 52.3012C205.256 52.2597 205.317 52.0134 205.442 51.5622L205.354 50.6288C205.35 50.5873 205.324 50.5271 205.274 50.448L205.26 50.2924C205.256 50.2509 205.323 50.0772 205.462 49.7713L205.191 48.8865L205.269 48.377L205.104 47.2938L205.138 46.3177C205.132 46.2554 205.06 46.1576 204.922 46.024C204.803 45.8678 204.723 45.7916 204.681 45.7955C204.536 45.8091 204.123 46.0885 203.442 46.6337C202.781 47.1769 202.339 47.5949 202.115 47.8879C201.892 48.1809 201.59 48.5335 201.21 48.9458C200.794 49.1941 200.543 49.7512 200.457 50.6172C200.461 50.6587 200.421 50.6833 200.338 50.6911C200.334 50.6496 200.268 50.6139 200.14 50.5841L200.015 50.5958C199.912 50.6055 199.632 51.0816 199.176 52.0241L199.063 52.1602L198.461 52.0912C197.963 52.1379 197.763 52.6901 197.863 53.748C197.88 53.9347 197.757 54.0718 197.493 54.1593C197.25 54.2449 197.07 54.4396 196.952 54.7436C196.834 55.0476 196.665 55.3669 196.445 55.7014C195.987 55.9535 195.732 56.1344 195.68 56.2439C195.682 56.2647 195.483 56.5972 195.083 57.2415C194.683 57.8858 194.467 58.2618 194.435 58.3694C194.404 58.477 194.27 58.615 194.035 58.7836C193.818 58.9294 193.715 59.0542 193.725 59.1579L193.867 59.6781C193.899 60.01 193.593 60.206 192.95 60.2663C191.705 60.383 190.961 59.1449 190.718 56.5522C190.691 56.2618 190.785 55.9286 191.001 55.5526C191.236 55.154 191.453 54.6837 191.654 54.1418C192.011 53.7108 192.424 53.0966 192.893 52.2993C193.362 51.502 193.719 50.9559 193.964 50.661L194.307 49.9697C194.284 49.7208 194.318 49.5292 194.41 49.395C194.502 49.2609 194.539 49.1004 194.522 48.9138C194.491 48.5819 194.392 48.4237 194.226 48.4393C193.832 48.4762 193.531 48.6091 193.322 48.8379C193.111 49.046 192.865 49.2051 192.582 49.3153C192.32 49.4236 192.157 49.5853 192.094 49.8005C191.815 49.9522 191.529 50.251 191.236 50.697C190.962 51.1202 190.778 51.3886 190.684 51.502C190.59 51.6155 190.5 51.7704 190.414 51.9668C190.346 52.1405 190.241 52.2445 190.098 52.2789C189.955 52.3133 189.827 52.3985 189.714 52.5346C189.601 52.6707 189.41 52.7514 189.14 52.7767C188.953 52.7942 188.76 52.6241 188.559 52.2663C188.377 51.8858 188.282 51.654 188.274 51.5711C188.132 50.0569 189.015 48.6558 190.924 47.3678C191.18 47.1973 191.374 47.0327 191.506 46.8739C191.658 46.7131 191.813 46.5835 191.971 46.485L192.075 46.2555C192.218 45.991 192.807 45.5801 193.843 45.0226L194.279 44.9818L196.314 44.2574C197.186 43.9664 197.726 44.9305 197.935 47.15L197.925 47.7159L198.073 47.9531C198.394 47.5882 198.719 47.2647 199.049 46.9827C199.397 46.6781 199.644 46.4143 199.791 46.1913C199.937 45.9683 200.239 45.7307 200.697 45.4786ZM279.384 45.54L279.259 45.5517C279.267 45.6346 279.084 45.9134 278.71 46.3878L278.243 46.4316L278.062 46.5113C277.574 47.1012 277.215 47.4068 276.987 47.4282L276.353 47.3621L276.229 47.3738C275.959 47.3991 275.705 47.5903 275.466 47.9474C275.226 48.2838 274.95 48.4666 274.639 48.4958C274.514 48.5075 274.28 48.4666 273.937 48.3733C273.719 48.7285 273.351 48.9304 272.832 48.9791L271.206 50.0418C271.006 50.1442 270.837 50.2437 270.7 50.3403C270.583 50.4349 270.391 50.5053 270.123 50.5513C269.856 50.5973 269.575 50.7282 269.281 50.9441C268.986 51.1392 268.745 51.2455 268.558 51.263L267.822 51.1123C267.186 51.695 266.519 52.061 265.822 52.21C265.145 52.3572 264.655 52.4868 264.352 52.599L263.487 52.7429L262.181 53.2106C261.881 53.3642 261.524 53.4604 261.109 53.4993C260.591 53.548 260.085 53.3966 259.592 53.0453C259.358 53.2346 259.119 53.4767 258.875 53.7716L258.694 53.8513C258.653 53.8552 258.567 53.8319 258.436 53.7813C258.306 53.7308 258.2 53.7094 258.117 53.7171C258.075 53.721 257.995 53.7599 257.876 53.8338C257.779 53.9058 257.667 53.9476 257.543 53.9593C257.398 53.9729 257.045 53.7862 256.486 53.3992C256.352 53.5373 256.224 53.6122 256.099 53.6238C255.56 53.6744 255.1 53.3409 254.718 52.6233L254.207 52.8596C254.124 52.8674 253.983 52.7027 253.784 52.3657C253.583 52.0079 253.469 51.6838 253.442 51.3934C253.368 50.6052 254.911 48.9853 258.071 46.5338C261.231 44.0823 263.224 42.6922 264.051 42.3636L264.342 42.1166C264.455 41.9805 264.584 41.9056 264.729 41.892C264.771 41.8881 264.878 41.9199 265.052 41.9873L265.239 41.9698C265.488 41.9465 265.65 41.7847 265.727 41.4846C265.803 41.1845 266.038 41.016 266.433 40.979L266.738 40.8876L270.073 38.6289C270.231 38.5304 270.781 38.2591 271.723 37.8151C272.665 37.3711 273.303 37.0392 273.638 36.8195C273.992 36.5771 274.547 36.3576 275.303 36.1612L275.596 35.9454C275.915 35.7691 276.188 35.6702 276.416 35.6488C277.806 35.5185 278.565 36.1379 278.693 37.5069L278.289 38.5492C278.044 39.2836 277.652 39.6761 277.112 39.7266C276.946 39.7422 276.817 39.702 276.724 39.6061C276.63 39.4894 276.551 39.434 276.489 39.4398L274.908 39.6508L274.2 39.4661C274.181 39.4888 273.951 39.5941 273.508 39.7821L273.01 39.8287C272.927 39.8365 272.662 40.0183 272.214 40.3742L271.434 40.7612C270.558 41.0108 269.375 41.5611 267.885 42.4122C266.396 43.2633 265.524 43.6797 265.272 43.6616C264.893 43.8645 264.584 44.1341 264.343 44.4706C264.101 44.7862 263.607 45.1045 262.863 45.4254C260.193 47.0776 258.885 48.1838 258.937 48.7438C258.982 49.2209 260.29 49.3389 262.862 49.0977C264.065 48.9849 264.801 48.8008 265.07 48.5455L268.33 47.4866L268.609 47.1152L269.262 47.0539C269.532 47.0286 269.811 46.8873 270.101 46.63C270.391 46.3727 270.764 46.2226 271.22 46.1798C271.511 46.1526 271.782 46.033 272.034 45.821C272.307 45.6071 272.536 45.481 272.72 45.4428C272.903 45.3838 273.053 45.307 273.17 45.2124C273.307 45.1158 273.65 44.979 274.198 44.8021C274.745 44.6043 275.08 44.3846 275.204 44.1428L275.56 43.9211C275.676 43.8265 275.863 43.6939 276.119 43.5235L276.492 43.4885C276.533 43.4846 276.717 43.3209 277.042 42.9974L278.426 42.0203L278.799 41.9853C279.214 41.9464 279.586 41.5558 279.913 40.8136C280.141 40.5621 280.452 40.4179 280.846 40.381C281.42 40.0342 282.043 39.4213 282.714 38.5423L283.501 37.9035C283.956 37.4005 284.304 36.9808 284.545 36.6444C284.586 36.6405 284.605 36.6178 284.601 36.5763L285.105 36.5919L285.149 36.3994C285.145 36.3579 285.118 36.2872 285.067 36.1874L285.055 36.063C285.039 35.897 285.111 35.7648 285.269 35.6663C285.427 35.5677 285.502 35.477 285.494 35.394L285.247 34.7581C285.322 34.6674 285.352 34.5391 285.336 34.3731C285.297 33.9583 285.058 33.6355 284.617 33.4047L284.538 33.2239L284.514 32.975C284.299 32.9114 284.055 32.8716 283.781 32.8554C283.573 32.4146 282.984 32.0513 282.016 31.7654C281.068 31.4776 279.686 31.241 277.869 31.0557L275.174 30.7747L273.91 31.0187C273.703 31.0382 273.388 31.0259 272.965 30.9818C272.564 30.9358 272.269 30.9215 272.083 30.939C271.896 30.9565 271.599 30.9112 271.191 30.8029C270.648 31.0421 270.294 31.1695 270.128 31.185L269.364 31.0684L268.473 31.2774C266.69 31.4446 265.773 31.269 265.725 30.7504C265.571 29.1118 266.411 27.8089 268.246 26.8418C268.487 26.7355 268.735 26.5867 268.989 26.3955L271.405 25.3843C271.608 25.3234 271.888 25.182 272.244 24.9604C272.621 24.7367 272.969 24.5471 273.289 24.3916L273.701 24.1018L274.038 24.0075C274.184 23.7845 274.507 23.545 275.006 23.289C275.524 23.0102 276.338 22.4317 277.449 21.5534C278.557 20.6543 279.175 20.1047 279.303 19.9044C279.419 19.8097 279.587 19.6999 279.805 19.5748C280.045 19.4477 280.136 19.0834 280.08 18.4819C280.043 18.0878 279.799 17.8282 279.347 17.7031L278.951 17.4892C278.902 17.4101 278.792 17.3576 278.622 17.3317C278.473 17.3038 278.302 17.2675 278.11 17.2228C277.936 17.1554 276.989 17.0977 275.269 17.0497L273.435 16.9078L272.731 17.0993L271.978 17.1071L270.616 17.6428L269.987 17.2938C269.983 17.2523 269.94 17.2355 269.857 17.2432C269.774 17.251 269.659 17.3664 269.513 17.5894C269.364 17.7916 269.197 17.9015 269.01 17.919C268.678 17.9501 268.342 17.9397 268.003 17.8879L267.878 17.8995C267.567 17.9287 267.421 18.047 267.441 18.2544C267.452 18.3789 267.71 18.7837 268.214 19.4688L268.142 20.0405L268.271 20.7503C268.287 20.9163 268.156 21.2005 267.88 21.603L267.856 22.0133C267.766 22.3984 267.556 23.0563 267.225 23.9871C266.914 24.916 266.748 25.4861 266.726 25.6974L265.841 27.9774L265.713 28.6172C265.351 29.8857 265.082 30.706 264.908 31.0781C264.734 31.4502 264.612 31.8277 264.543 32.2108C264.475 32.5939 264.312 32.9754 264.054 33.3552L263.037 36.9032C262.947 37.0581 262.806 37.2282 262.614 37.4136C262.439 37.995 262.289 38.6264 262.164 39.3077C262.221 39.9092 262.096 40.4754 261.79 41.0063L261.721 41.6091C261.729 41.6921 261.664 41.8969 261.527 42.2236C261.389 42.5295 261.289 42.8109 261.23 43.0675C261.17 43.3242 261.057 43.4603 260.891 43.4759C260.29 43.5323 259.713 43.1784 259.16 42.4142C258.605 41.6292 258.229 41.1936 258.033 41.1074C257.641 40.7256 257.427 40.3377 257.39 39.9436C257.355 39.5702 257.489 38.9927 257.793 38.2109C258.117 37.4273 258.318 36.8957 258.396 36.6164C258.475 36.337 258.583 36.0443 258.722 35.7384C258.88 35.4097 258.989 35.1274 259.051 34.8915C259.11 34.6348 259.178 34.4611 259.253 34.3703C259.516 34.0527 259.648 33.6742 259.649 33.2347C259.648 32.7745 259.87 32.3561 260.316 31.9794C260.265 31.8796 260.233 31.7675 260.221 31.643C260.206 31.4771 260.311 31.258 260.536 30.9858C260.762 30.7135 260.895 30.4604 260.936 30.2264C260.996 29.9697 261.059 29.7545 261.127 29.5808L261.364 29.433C261.39 29.2632 261.402 29.0632 261.402 28.8331C261.399 28.5822 261.541 28.4224 261.828 28.3537C261.854 27.5143 261.978 27.0528 262.2 26.9692C262.441 26.8629 262.706 26.6707 262.993 26.3926C262.727 26.2293 262.588 26.0854 262.576 25.9609C262.534 25.5046 262.736 25.0985 263.184 24.7426C263.133 24.6428 263.062 24.5553 262.971 24.4801C262.899 24.3822 262.861 24.3125 262.857 24.271L263.441 22.4587C263.614 21.8565 263.924 21.3671 264.37 20.9905L264.432 20.9847L264.167 20.1621C264.14 19.8717 264.427 19.5833 265.027 19.2968C265.232 19.0265 265.304 18.7895 265.243 18.586L265.088 18.6006L264.572 18.4606L263.227 18.8378C262.861 18.9558 262.358 19.1704 261.718 19.4815L261.333 19.3921L261.177 19.4066C261.094 19.4144 260.936 19.5129 260.703 19.7022L260.468 19.8811C260.338 19.8306 260.211 19.8111 260.086 19.8228C259.464 19.8811 258.942 20.0033 258.52 20.1894C258.117 20.3527 257.758 20.4282 257.443 20.4159C257.324 20.4898 257.114 20.5932 256.813 20.7261L256.501 20.7552C256.46 20.7591 256.361 20.8207 256.205 20.94C256.067 21.0366 255.736 21.1827 255.21 21.3785C254.954 21.3189 254.804 21.291 254.763 21.2949C254.68 21.3027 254.416 21.5052 253.972 21.9026C253.526 22.2792 253.159 22.4915 252.871 22.5394C252.582 22.5874 252.361 22.6814 252.207 22.8214C252.073 22.9595 251.891 23.1335 251.659 23.3435L251.339 23.9386C251.283 24.2368 251.078 24.5071 250.724 24.7495C250.389 24.9692 250.156 25.1585 250.024 25.3173C249.892 25.4761 249.754 25.5623 249.609 25.5759C249.36 25.5993 249.053 25.4502 248.688 25.1287C248.342 24.7845 248.157 24.4879 248.134 24.239C248.07 23.5545 248.196 23.0091 248.514 22.6027C248.85 22.1735 249.175 21.735 249.489 21.2871C250.067 20.7517 250.905 20.3174 252.004 19.9842C253.123 19.6491 253.781 19.4096 253.976 19.2657C253.972 19.2242 253.991 19.2015 254.033 19.1976L254.579 19.3347C254.711 19.406 254.927 19.2498 255.226 18.8661C257.064 17.9404 258.429 17.4358 259.321 17.3522L259.446 17.3405L260.291 17.324L260.921 17.0138C261.362 16.8051 261.697 16.69 261.925 16.6686C262.174 16.6453 262.344 16.6712 262.434 16.7464C262.523 16.8009 262.609 16.8242 262.692 16.8164C262.816 16.8048 262.948 16.646 263.087 16.34C263.461 16.0956 263.988 15.9102 264.667 15.7838C265.366 15.6555 265.928 15.5087 266.352 15.3434L266.538 15.3259L267.291 15.3181L268.852 14.8893L270.982 14.8465L271.932 14.6005L272.747 14.5869L274.539 14.2933L277.412 14.4634C278.483 14.5094 279.611 14.8222 280.795 15.4016C281.978 15.9604 282.752 16.4109 283.119 16.7531C283.484 17.0746 283.699 17.5776 283.763 18.2621C283.903 19.7556 283.015 21.3349 281.1 23.0002C279.182 24.6446 277.636 25.6685 276.46 26.0717C275.04 26.7698 274.335 27.1811 274.347 27.3055C274.359 27.43 274.776 27.5269 275.598 27.5962C276.419 27.6449 276.948 27.7103 277.186 27.7926C277.424 27.875 277.628 27.9291 277.798 27.955C277.968 27.9809 278.386 28.0882 279.052 28.2768C279.718 28.4655 280.199 28.5669 280.493 28.5812C283.068 29.2605 284.596 30.0483 285.077 30.9448C285.141 30.9597 285.311 30.9856 285.587 31.0226C285.86 31.0388 286.165 31.5019 286.502 32.412C286.86 32.4411 287.188 32.9231 287.485 33.8578L287.644 34.2195C287.792 34.4567 287.875 34.6687 287.892 34.8554C288.048 36.5147 287.949 37.4657 287.595 37.7081C287.519 37.7988 287.475 37.9913 287.46 38.2856C287.444 38.5592 287.09 39.1364 286.399 40.0173C285.726 40.8755 285.194 41.3438 284.804 41.4223C284.704 41.4735 284.545 41.6663 284.325 42.0008L284.037 42.2789C283.721 42.4759 283.506 42.6425 283.393 42.7786C283.301 42.9128 283.204 42.9951 283.103 43.0256C283.001 43.0561 282.881 43.2243 282.742 43.5302C282.601 43.8154 282.417 43.9687 282.189 43.9901C282.143 43.9525 282.036 43.9208 281.866 43.8949L281.804 43.9007C281.061 44.9119 280.255 45.4583 279.384 45.54ZM300.834 23.7864L300.534 22.5905L300.516 22.4038C300.425 21.4289 300.706 20.8585 301.36 20.6926C301.503 20.6582 301.926 20.4826 302.629 20.1656C303.01 20.2136 303.425 20.5095 303.874 21.0533C304.341 21.5744 304.595 22.0528 304.636 22.4884C304.64 22.5299 304.617 22.6261 304.569 22.7772C304.52 22.9282 304.505 23.2121 304.523 23.6289C304.539 24.025 304.365 24.397 304 24.7451C303.654 25.0705 303.263 25.2536 302.827 25.2945C302.537 25.3217 302.145 25.1596 301.652 24.8083C301.177 24.4343 300.905 24.0937 300.834 23.7864ZM288.852 40.6034L289.309 40.1211L289.495 40.1036C289.641 40.09 289.844 39.914 290.105 39.5757L290.404 39.422C290.761 38.7609 291.09 38.3639 291.391 38.231L291.854 37.8109C291.929 37.7202 292.037 37.6369 292.176 37.561C292.336 37.4833 292.566 37.2629 292.867 36.8999C293.187 36.5142 293.45 36.3116 293.658 36.2922C293.865 36.2727 294.033 36.2779 294.161 36.3077C294.262 36.0472 294.489 35.7853 294.841 35.5221C295.191 35.2382 295.465 34.9196 295.662 34.5663L296.049 34.3417C296.365 34.1447 296.636 33.91 296.861 33.6378C297.106 33.3429 297.435 33.176 297.85 33.1371C298.452 33.0807 299.103 33.3335 299.805 33.8954C300.525 34.4347 300.911 34.9844 300.964 35.5445L300.662 38.0209C300.477 39.8378 300.17 40.8082 299.742 40.932L299.679 41.597C299.408 41.8317 299.279 42.0112 299.29 42.1357L299.547 42.8649C299.557 42.9686 299.457 43.1349 299.248 43.3637C299.207 43.3676 299.192 43.4318 299.204 43.5562L299.323 44.8319C299.345 45.06 299.217 45.2603 298.94 45.4327C298.986 45.4703 299.052 45.506 299.139 45.5397C299.251 45.4036 299.526 45.3151 299.961 45.2743L300.465 45.2898L301.085 44.5411C301.226 44.486 301.415 44.3742 301.65 44.2057C301.904 44.0145 302.331 43.7652 302.93 43.458L306.714 39.9645C307.221 39.3519 307.62 39.0321 307.911 39.0048C308.222 38.9757 308.396 39.1581 308.433 39.5522C308.476 40.0086 308.418 40.401 308.261 40.7297C308.122 41.0356 308 41.4132 307.896 41.8624C307.79 42.2909 307.641 42.5978 307.449 42.7832C307.278 42.9666 307.14 43.1679 307.035 43.387C306.928 43.5853 306.612 43.8974 306.087 44.3233C305.582 44.7472 305.152 45.1747 304.794 45.6058C304.456 46.0142 304.17 46.313 303.937 46.5022L302.689 47.5922L302.532 47.9208C302.494 47.9662 302.306 48.078 301.967 48.2563C301.647 48.4119 301.362 48.606 301.111 48.8387L300.581 49.2023C300.464 49.297 300.261 49.3683 299.973 49.4162C299.705 49.4623 299.478 49.6091 299.292 49.8567C299.104 50.0836 298.948 50.2028 298.824 50.2145L298.351 50.196L297.746 50.4411C297.394 50.4741 296.939 50.3075 296.381 49.9413C295.843 49.5524 295.551 49.1194 295.506 48.6423L295.489 48.4556L295.51 48.0142C295.502 47.9312 295.421 47.7297 295.265 47.4094C295.107 47.0685 295.027 46.8773 295.023 46.8358L295.044 46.3944L294.965 46.2135C294.912 45.6535 294.92 45.297 294.99 45.144C295.059 44.991 295.103 44.7881 295.121 44.5353C295.137 44.2618 295.158 44.0401 295.184 43.8703L295.267 43.0779C295.327 42.8212 295.415 42.6455 295.531 42.5509C295.557 42.381 295.614 42.0932 295.701 41.6875L295.773 41.1158L296.044 40.651C296.194 40.4695 296.267 40.243 296.263 39.9714C296.277 39.6771 296.363 39.3656 296.52 39.037C296.678 38.7083 296.754 38.5129 296.748 38.4507C296.724 38.2018 296.588 38.089 296.339 38.1123C296.256 38.1201 296.013 38.3103 295.608 38.6831L295.031 38.5489C294.989 38.5528 294.885 38.6672 294.718 38.8921C294.725 38.9751 294.638 39.0461 294.455 39.105C294.272 39.164 294.11 39.3361 293.97 39.6213L293.727 39.7069L293.305 39.5581L293.18 39.5698C292.973 39.5893 292.87 39.8291 292.871 40.2893C292.674 40.6426 292.394 40.8886 292.03 41.0273L291.363 41.2782C291.143 41.3825 290.994 41.5848 290.918 41.8849C290.841 42.185 290.659 42.4741 290.371 42.7522C290.082 43.0095 289.885 43.143 289.781 43.1528C289.2 43.2072 288.88 42.9129 288.82 42.2699L288.931 40.7842L288.852 40.6034ZM311.459 41.905L311.439 41.6872C311.412 41.3968 311.411 41.1667 311.437 40.9969C311.281 40.6766 311.191 40.3817 311.166 40.1121C311.162 40.0706 311.238 39.7705 311.395 39.2117L311.585 38.2209C311.695 37.834 311.759 37.6291 311.778 37.6064C311.623 37.2862 311.543 37.1054 311.539 37.0639C311.494 36.5868 311.592 36.1801 311.833 35.8437C312.073 35.5073 312.261 35.0503 312.395 34.4727L312.839 32.5165L313.632 29.9311C313.647 29.8669 313.725 29.6922 313.866 29.407C314.027 29.1199 314.151 28.8781 314.237 28.6817C314.342 28.4626 314.481 28.1567 314.653 27.7638L314.959 27.6724C315.034 27.5817 315.067 27.4948 315.06 27.4119C315.056 27.3704 314.999 27.2083 314.889 26.9257L315.808 25.019L316.336 23.6199C316.511 23.2478 316.717 22.9983 316.957 22.8712C317.3 22.0649 317.619 21.5641 317.914 21.369C318.002 20.9632 318.19 20.5166 318.479 20.0292L319.065 19.9115C319.141 19.6114 319.224 19.3839 319.314 19.229L319.318 18.6009C319.33 18.7253 319.379 18.6894 319.465 18.4929C319.549 18.2758 319.67 17.8879 319.827 17.3291L320.576 16.2858L320.785 15.8269C320.875 15.672 321.014 15.3764 321.204 14.9402C321.503 14.7865 321.741 14.5341 321.917 14.1827L322.521 13.5925C322.458 13.3683 322.659 12.8367 323.125 11.998C323.464 11.8197 323.768 11.6029 324.037 11.3475L324.461 11.1822C324.393 10.4562 324.605 9.9341 325.099 9.61583L325.449 9.33192C325.765 9.13486 325.944 9.03439 325.985 9.0305L326.197 8.94785C326.438 8.84155 326.725 8.77284 327.057 8.74172C327.824 8.66977 328.546 8.89501 329.223 9.41746C329.898 9.91916 330.269 10.533 330.337 11.259C330.365 11.5494 330.237 11.8647 329.955 12.205L329.854 12.4656C329.671 13.6337 329.517 14.2235 329.392 14.2352C329.309 14.243 329.201 14.3159 329.068 14.454C329.09 15.1424 329.085 15.53 329.051 15.6168C328.684 15.7141 328.541 16.1983 328.622 17.0695C328.592 17.1978 328.457 17.4302 328.217 17.7666C327.995 18.0803 327.837 18.5136 327.742 19.0666C327.646 19.5987 327.514 19.8726 327.349 19.8882L327.006 19.9202L327.143 20.3782C327.171 20.6686 327.053 20.9726 326.789 21.2902C326.545 21.5851 326.406 21.8911 326.373 22.2081C326.34 22.525 326.126 22.9217 325.732 23.3982L325.467 23.9252C325.362 24.1442 325.217 24.3776 325.031 24.6252C324.845 24.8728 324.701 25.242 324.601 25.7327L323.932 27.302C323.467 28.3708 323.088 28.8982 322.793 28.8839C322.683 29.7103 322.602 30.1887 322.551 30.319C322.501 30.4493 322.366 30.577 322.148 30.7021C321.929 30.8272 321.771 31.0304 321.671 31.3117C321.57 31.5723 321.453 31.7716 321.319 31.9097L320.867 33.1134C320.549 33.2897 320.336 33.5817 320.228 33.9894C319.903 34.1035 319.722 34.403 319.684 34.8879C319.609 34.9786 319.523 35.175 319.425 35.4771L318.439 36.6681C317.915 37.1148 317.657 37.5993 317.665 38.1217C317.67 38.6234 317.423 38.8976 316.926 38.9443C316.573 38.9774 316.04 38.8704 315.326 38.6235L315.264 38.6293C315.229 38.9255 315.114 39.2606 314.919 39.6346L315.122 40.463C315.132 40.5668 315.027 41.2357 314.808 42.4699C315.003 42.7654 315.106 42.9755 315.118 43.0999L315.12 43.7902L315.354 44.6157C315.522 45.2905 315.803 45.6094 316.197 45.5725L316.956 45.6269C316.997 45.623 317.242 45.4431 317.69 45.0873L318.783 44.3571C318.824 44.3532 318.847 44.372 318.851 44.4135C319.066 44.477 319.236 44.5029 319.36 44.4913C319.568 44.4718 319.656 44.2961 319.625 43.9643L319.587 43.5598C319.692 43.3407 319.825 43.2026 319.987 43.1456C320.17 43.0866 320.327 42.9777 320.459 42.8189C320.591 42.6601 320.698 42.5768 320.781 42.569L321.092 42.5398C321.403 42.5107 321.525 42.1331 321.457 41.4071C321.536 41.3578 321.632 41.2652 321.744 41.129L322.118 41.094C322.284 41.0785 322.441 40.8649 322.591 40.4533C322.76 40.019 322.882 39.7565 322.957 39.6657C323.326 39.5892 323.58 39.5027 323.717 39.4061C324.268 38.1408 324.72 37.4916 325.073 37.4586L325.259 37.4411C325.581 37.0761 325.74 36.7682 325.738 36.5174C325.754 36.2439 325.841 36.0578 325.999 35.9593C326.178 35.8588 326.334 35.7396 326.468 35.6015C326.601 35.4634 326.689 35.3924 326.73 35.3886C327.041 35.3594 327.208 35.4589 327.229 35.687L327.217 36.567L327.523 37.48C327.53 37.5629 327.453 37.7376 327.289 38.004C327.145 38.2478 327.086 38.5148 327.113 38.8052C327.17 39.4067 327.096 39.738 326.893 39.7989C326.689 39.8598 326.526 40.0216 326.405 40.2841C326.302 40.5239 326.104 40.7621 325.812 40.9987C325.519 41.2146 325.307 41.517 325.176 41.9059L324.658 42.0799L324.365 42.2958C324.176 42.9621 323.943 43.3815 323.667 43.5539C323.411 43.7244 323.109 44.1921 322.762 44.957C322.7 44.9628 322.671 44.9865 322.675 45.0279L322.171 45.0124C322.016 45.3618 321.847 45.5763 321.667 45.6561C321.486 45.7358 321.342 45.8748 321.235 46.0732C321.126 46.2508 320.911 46.4174 320.591 46.5729C320.292 46.7266 320.108 46.8902 320.041 47.064C319.973 47.2377 319.858 47.3427 319.694 47.379C319.53 47.4153 319.382 47.5128 319.25 47.6716C319.117 47.8097 318.998 47.8836 318.895 47.8933C318.853 47.8972 318.706 47.8901 318.453 47.8719L318.329 47.8836C317.999 48.1656 317.721 48.3173 317.493 48.3387C317.223 48.3639 317.03 48.4239 316.913 48.5185C316.781 48.4472 316.578 48.4035 316.304 48.3873C316.052 48.3691 315.751 48.2926 315.404 48.1578C315.059 48.2738 314.845 48.3357 314.762 48.3435C314.41 48.3766 313.932 48.0762 313.328 47.4422C312.723 46.7875 312.389 46.1283 312.327 45.4646C312.325 45.4438 312.186 45.2999 311.91 45.0329C311.652 44.7431 311.507 44.4219 311.474 44.0693L311.445 43.7582L311.472 43.379L311.417 42.7878L311.461 42.5953C311.769 42.5247 311.92 42.4686 311.916 42.4271L311.459 41.905ZM317.002 33.0677L317.621 32.6331C317.673 32.2934 317.905 31.8741 318.319 31.3749C318.73 30.8551 319.03 30.5864 319.216 30.5689L319.465 30.5456C319.452 30.4004 319.469 30.2523 319.518 30.1012C319.566 29.9502 319.579 29.7502 319.556 29.5013C319.544 29.3769 319.792 29.0084 320.299 28.3958L320.496 27.8124C320.632 27.2556 321.057 26.7659 321.771 26.3433C322.005 25.7145 322.194 25.3933 322.339 25.3797L322.582 25.2942C322.636 24.9753 322.776 24.6797 323.001 24.4074L323.108 24.2091L323.062 23.7113C323.058 23.6698 323.177 23.4912 323.42 23.1755C323.681 22.8372 323.862 22.5377 323.963 22.2771C324.062 21.9958 324.209 21.7728 324.403 21.6082C324.617 21.4416 324.748 21.1677 324.796 20.7866L325.288 20.6777C325.263 20.408 325.267 20.2298 325.301 20.1429L325.334 19.8259C325.414 19.5673 325.716 18.8799 326.239 17.7637L326.629 16.5658C326.617 16.4414 326.687 16.2884 326.837 16.1069C327.006 15.9027 327.075 15.6347 327.044 15.3028L327.197 14.2527C327.152 13.7756 327.047 13.5449 326.881 13.5604C326.687 13.7251 326.5 13.8473 326.319 13.927C326.159 14.0048 326.028 14.3937 325.926 15.0938C325.317 15.2973 324.983 15.6321 324.922 16.0981C324.88 16.5415 324.666 16.9382 324.28 17.2882L324.097 17.682C324.077 17.9141 323.902 18.1711 323.573 18.4531C323.244 18.735 322.952 19.1914 322.697 19.8221C321.794 21.3505 321.296 22.1715 321.202 22.2849L320.926 22.6874L320.453 22.669C320.567 22.9931 320.626 23.1759 320.63 23.2173C320.642 23.3418 320.591 23.4721 320.478 23.6082C320.364 23.7236 320.283 23.8672 320.236 24.0389C320.19 24.2107 320.084 24.4194 319.918 24.6651C319.751 24.89 319.608 25.2592 319.489 25.7726C319.388 26.2632 319.279 26.5559 319.163 26.6505L318.721 26.6292C318.467 26.8204 318.348 26.999 318.364 27.1649L318.498 27.5917C318.506 27.6747 318.453 27.7842 318.34 27.9204C318.246 28.0338 318.163 28.2613 318.09 28.6029C318.018 28.9445 317.806 29.477 317.455 30.2004C317.103 30.9031 316.838 31.6498 316.661 32.4406C316.503 33.2087 316.32 33.7072 316.111 33.936C316.156 33.9736 316.22 33.9885 316.303 33.9807C316.573 33.9554 316.806 33.6511 317.002 33.0677ZM326.283 66.9745L325.817 67.3634C325.621 67.5073 325.41 67.5899 325.181 67.6113C324.663 67.6599 324.133 67.3644 323.592 66.7246C323.03 66.0868 322.715 65.4049 322.647 64.6789C322.524 63.3721 322.571 62.4261 322.788 61.8407C322.987 61.2781 323.094 60.86 323.11 60.5865C323.108 60.5657 323.288 60.0258 323.649 58.9666C323.991 57.9302 324.335 57.1342 324.681 56.5787C325.026 56.0231 325.312 55.5046 325.539 55.023L325.64 54.7624C325.905 54.2354 326.173 53.865 326.446 53.6511C326.435 53.5266 326.788 53.0541 327.506 52.2334C328.247 51.4316 328.946 50.7384 329.602 50.1537L329.873 49.6889C330.341 49.3311 330.617 49.1483 330.7 49.1405L332.458 48.4735C332.608 48.292 332.983 47.9326 333.581 47.3952L333.83 47.3719L334.647 47.0442C335.083 46.794 335.771 46.5412 336.71 46.2858C337.667 46.0077 338.197 45.7488 338.3 45.509C338.422 45.2464 338.515 45.0076 338.579 44.7924C338.663 44.5752 338.86 44.1173 339.172 43.4185C339.222 43.0581 339.268 42.7713 339.311 42.558C339.353 42.3448 339.404 42.2145 339.462 42.1672C339.541 42.1179 339.647 41.9092 339.78 41.541C339.911 41.1521 340.048 40.8254 340.191 40.5609C340.232 40.557 340.251 40.5343 340.247 40.4929L340.011 39.9814C340.13 39.4681 340.268 39.1517 340.424 39.0325C340.599 38.8905 340.685 38.7988 340.681 38.7573L340.41 38.2177L340.831 37.0169C340.824 36.9339 340.778 36.8963 340.695 36.9041C339.668 37.7746 339.061 38.2187 338.874 38.2362C338.784 38.3911 338.579 38.6614 338.26 39.0471C337.919 39.2046 337.701 39.4447 337.605 39.7675L337.362 39.8531L337.205 40.1817C337.209 40.2232 337.141 40.2819 337.001 40.3577C336.862 40.4336 336.587 40.6267 336.177 40.9372L335.798 40.91C335.715 40.9178 335.631 41.1349 335.545 41.5614C335.231 42.0093 334.913 42.3007 334.591 42.4355C334.288 42.5477 334.1 42.6699 334.029 42.8021L333.809 43.1366L333.492 43.1035C333.057 43.1444 332.855 43.3307 332.886 43.6626C332.903 43.8493 332.799 44.0787 332.574 44.351C332.408 44.3665 332.206 44.4482 331.969 44.596L331.502 44.6398C331.338 45.1155 330.99 45.4306 330.461 45.5848L329.617 46.2917L329.105 46.528C328.868 46.6758 328.634 46.8547 328.402 47.0647C328.169 47.254 327.754 47.3975 327.156 47.4954C326.85 47.3567 326.389 47.243 325.774 47.1542C325.157 47.0446 324.637 46.0681 324.213 44.2246L324.151 44.2305C323.985 44.246 323.814 44.3248 323.639 44.4667C323.443 44.6106 323.304 44.6865 323.221 44.6943C322.723 44.7409 322.455 44.5568 322.416 44.142C322.328 43.2086 322.624 42.5636 323.302 42.2071L323.989 41.1697L325.797 39.0228C327.056 37.5028 327.906 36.5233 328.346 36.0845C328.786 35.6457 329.269 35.2133 329.794 34.7875L331.281 33.5808C331.788 33.1776 332.102 32.9599 332.224 32.9274C332.345 32.8743 332.463 32.79 332.577 32.6746C332.713 32.5573 333.082 32.3658 333.685 32.1L334.222 31.7986C335.346 31.2956 336.074 31.0285 336.406 30.9974L336.848 31.0188C337.076 30.9974 337.286 30.894 337.478 30.7086C337.768 30.6814 338.193 30.4114 338.752 29.8987L339.842 29.4825C340.144 29.3497 340.398 29.2735 340.606 29.254L341.197 29.1986C341.632 29.1578 341.945 29.4738 342.133 30.1466C342.343 30.8175 342.499 31.1481 342.603 31.1384C342.644 31.1345 342.754 30.9672 342.932 30.6366L343.339 30.2847C343.631 30.0481 343.818 29.9259 343.901 29.9181C344.399 29.8714 344.729 30.0497 344.893 30.4529L344.898 30.5151L345.037 30.659C345.317 31.6371 345.468 32.2403 345.49 32.4684C345.583 33.4641 345.438 34.2623 345.055 34.8632C344.693 35.4622 344.481 35.8796 344.419 36.1155C344.162 37.8346 343.866 39.1387 343.53 40.0281C343.448 40.266 343.256 40.8908 342.953 41.9027L342.671 42.243C342.592 42.2922 342.556 42.3584 342.564 42.4413L342.667 42.8711C342.367 43.4642 342.232 43.9267 342.264 44.2586C342.281 44.4452 342.151 44.8445 341.874 45.4564C341.919 45.494 342.106 45.5916 342.435 45.7491C342.782 45.8839 343.176 46.1818 343.617 46.6426C344.077 47.0808 344.318 47.4244 344.341 47.6733C344.347 47.7355 344.271 48.1507 344.113 48.9188C343.419 49.5488 342.812 49.8882 342.294 49.9368C342.086 49.9562 341.773 49.8496 341.354 49.6169L341.173 49.6966L341.161 49.5722C340.886 49.5352 340.66 49.4727 340.484 49.3845C340.331 49.3152 340.182 49.2873 340.037 49.3009C339.871 49.3165 339.796 49.4072 339.811 49.5732C339.819 49.6561 339.848 49.7372 339.897 49.8162C339.782 49.9316 339.631 50.1027 339.443 50.3296C339.449 50.3918 339.332 50.7062 339.092 51.2727C338.854 51.86 338.63 52.2577 338.419 52.4658C337.965 52.5293 337.686 52.9007 337.582 53.58C337.478 54.2593 337.321 54.703 337.11 54.9111L336.788 54.8158C336.215 56.2924 335.605 57.3749 334.958 58.0633C334.532 58.2079 334.311 58.3018 334.294 58.3453C334.3 58.4075 334.291 58.5443 334.269 58.7556C334.27 58.9857 334.053 59.3513 333.619 59.8523C333.207 60.3722 332.96 60.636 332.877 60.6438L332.572 60.7352L332.403 60.9394C332.462 61.3523 331.975 62.0676 330.94 63.0852C330.37 63.4735 330.07 63.7318 330.04 63.8602C329.911 64.2698 329.343 64.7939 328.335 65.4324L327.794 66.0167C327.548 66.2909 327.294 66.4925 327.035 66.6215L326.283 66.9745ZM334.556 40.0534L334.88 39.4895C334.989 39.3119 335.185 39.168 335.467 39.0578C335.771 38.9456 336.003 38.746 336.164 38.4588C336.596 37.7069 337.139 37.1329 337.792 36.7369L338.083 36.4899C338.337 35.8592 338.587 35.5115 338.832 35.4466C339.075 35.3611 339.276 35.154 339.433 34.8253C339.589 34.4759 339.657 34.1975 339.637 33.9901C339.63 33.9072 339.563 33.8715 339.439 33.8832C339.149 33.9104 338.897 34.0177 338.684 34.205C338.493 34.3904 338.355 34.487 338.272 34.4948L337.644 34.4909C337.29 34.7333 336.795 35.0308 336.158 35.3834L335.642 35.9027C335.409 36.0919 335.19 36.217 334.987 36.278C334.804 36.337 334.671 36.4854 334.589 36.7233C334.505 36.9404 334.38 37.0568 334.214 37.0723L333.977 37.2201C333.901 37.3109 333.667 37.3747 333.273 37.4117C333.077 37.5556 332.876 37.7523 332.669 38.0019C332.483 38.2495 332.369 38.3752 332.328 38.3791C331.899 38.9424 331.514 39.3028 331.173 39.4603C330.853 39.6159 330.652 39.8126 330.57 40.0505C330.185 40.1912 329.876 40.4608 329.641 40.8595C329.405 41.2374 329.179 41.5096 328.964 41.6762C328.769 41.8201 328.598 42.0035 328.451 42.2265L328.163 42.5046C328.047 42.5992 327.897 42.8958 327.713 43.3943C327.548 43.87 327.475 44.2013 327.492 44.388C327.504 44.5124 327.582 44.5678 327.728 44.5542C327.935 44.5348 328.305 44.3536 328.838 44.0107C329.39 43.6451 329.741 43.3716 329.891 43.1901C330.041 43.0086 330.148 42.9149 330.21 42.9091L331.398 42.8605C331.497 42.5791 331.688 42.3834 331.971 42.2732C332.274 42.161 332.496 41.9624 332.637 41.6772C332.777 41.3919 333.217 41.0578 333.955 40.6747L334.245 40.0826L334.556 40.0534ZM336.047 49.9261L335.125 50.1381C334.881 49.9935 334.697 49.9271 334.573 49.9388C334.49 49.9466 334.433 50.0146 334.404 50.143C334.186 50.4982 333.662 50.8297 332.833 51.1376C332.004 51.4455 331.445 51.7281 331.155 51.9855C330.888 52.2616 330.652 52.4198 330.446 52.46C330.241 52.5002 330.141 52.5514 330.147 52.6136C329.955 52.799 329.813 52.9588 329.721 53.0929C329.521 53.1954 329.326 53.3393 329.134 53.5246C328.944 53.7308 328.737 53.8653 328.512 53.9281C328.215 54.7721 327.983 55.2019 327.817 55.2174C327.776 55.2213 327.67 55.2103 327.5 55.1844L327.438 55.1902C327.219 55.7548 327.041 56.0854 326.903 56.1819C326.766 56.2785 326.652 56.4043 326.562 56.5592C326.474 56.7349 326.293 56.9296 326.02 57.1436C325.727 57.3594 325.549 57.69 325.486 58.1353C325.425 58.6014 325.328 58.9138 325.197 59.0726C325.046 59.2541 324.976 59.6164 324.985 60.1596L324.839 60.6127C324.789 60.743 324.739 61.1034 324.689 61.6939C324.621 62.3071 324.588 62.6241 324.59 62.6448C324.617 62.9352 324.766 63.1828 325.036 63.3877C325.11 63.2762 325.279 63.187 325.545 63.1203L327.311 62.2014C327.369 62.1541 327.579 61.9357 327.94 61.5461C328.303 61.1773 328.625 60.9274 328.905 60.7965C329.207 60.6636 329.469 60.4506 329.693 60.1577C329.835 59.8932 330.013 59.6673 330.226 59.48C330.459 59.2907 330.585 59.0697 330.603 58.8169C331.041 58.3573 331.44 57.9223 331.799 57.512C332.16 57.1225 332.381 56.7984 332.461 56.5397C332.564 56.2999 332.732 56.0853 332.966 55.8961L333.052 55.4799C333.092 55.4553 333.172 55.4164 333.292 55.3632C333.435 55.3289 333.633 54.9756 333.883 54.3034L334.592 52.8246C335.043 52.2801 335.388 51.6095 335.628 50.8129L336.028 50.3987C336.107 50.3494 336.14 50.2522 336.126 50.107L336.047 49.9261ZM359.987 18.2405L359.687 17.0446L359.669 16.8579C359.578 15.883 359.859 15.3126 360.513 15.1467C360.657 15.1123 361.079 14.9366 361.782 14.6197C362.163 14.6676 362.578 14.9635 363.027 15.5074C363.494 16.0285 363.748 16.5069 363.789 16.9425C363.793 16.984 363.77 17.0802 363.722 17.2313C363.673 17.3823 363.658 17.6662 363.676 18.083C363.692 18.479 363.518 18.8511 363.153 19.1992C362.807 19.5246 362.416 19.7077 361.98 19.7485C361.69 19.7758 361.298 19.6137 360.805 19.2624C360.33 18.8884 360.058 18.5478 359.987 18.2405ZM348.005 35.0575L348.462 34.5752L348.648 34.5577C348.794 34.5441 348.997 34.3681 349.258 34.0297L349.557 33.8761C349.914 33.2149 350.243 32.8179 350.544 32.685L351.007 32.265C351.082 32.1743 351.19 32.091 351.329 32.0151C351.489 31.9373 351.72 31.717 352.02 31.354C352.34 30.9683 352.603 30.7657 352.811 30.7463C353.018 30.7268 353.186 30.732 353.314 30.7618C353.416 30.5012 353.642 30.2394 353.994 29.9762C354.344 29.6923 354.618 29.3737 354.815 29.0204L355.202 28.7958C355.518 28.5988 355.789 28.3641 356.015 28.0919C356.259 27.7969 356.588 27.63 357.003 27.5911C357.605 27.5347 358.256 27.7875 358.958 28.3495C359.678 28.8888 360.064 29.4385 360.117 29.9985L359.815 32.475C359.63 34.2919 359.323 35.2622 358.895 35.386L358.832 36.0511C358.561 36.2857 358.432 36.4653 358.443 36.5898L358.7 37.319C358.71 37.4227 358.61 37.589 358.402 37.8178C358.36 37.8217 358.345 37.8858 358.357 38.0103L358.476 39.2859C358.498 39.5141 358.37 39.7144 358.093 39.8868C358.139 39.9244 358.205 39.9601 358.292 39.9938C358.404 39.8577 358.679 39.7692 359.114 39.7283L359.618 39.7439L360.238 38.9952C360.38 38.9401 360.568 38.8283 360.803 38.6598C361.057 38.4685 361.484 38.2193 362.083 37.9121L365.867 34.4186C366.374 33.806 366.773 33.4861 367.064 33.4589C367.375 33.4297 367.549 33.6122 367.586 34.0063C367.629 34.4626 367.571 34.8551 367.414 35.1838C367.275 35.4897 367.154 35.8673 367.049 36.3165C366.943 36.745 366.794 37.0519 366.602 37.2373C366.431 37.4207 366.293 37.622 366.188 37.8411C366.081 38.0394 365.765 38.3515 365.24 38.7774C364.735 39.2013 364.305 39.6288 363.948 40.0599C363.609 40.4682 363.323 40.767 363.09 40.9563L361.843 42.0463L361.685 42.3749C361.647 42.4203 361.459 42.5321 361.12 42.7104C360.8 42.8659 360.515 43.0601 360.265 43.2928L359.734 43.6564C359.617 43.7511 359.414 43.8224 359.126 43.8703C358.858 43.9163 358.631 44.0632 358.445 44.3108C358.257 44.5377 358.101 44.6569 357.977 44.6686L357.504 44.6501L356.899 44.8951C356.547 44.9282 356.092 44.7616 355.534 44.3954C354.996 44.0065 354.704 43.5735 354.659 43.0964L354.642 42.9097L354.663 42.4683C354.655 42.3853 354.574 42.1837 354.418 41.8635C354.261 41.5226 354.18 41.3314 354.176 41.2899L354.197 40.8484L354.118 40.6676C354.065 40.1076 354.074 39.751 354.143 39.5981C354.212 39.4451 354.256 39.2422 354.274 38.9894C354.29 38.7159 354.311 38.4942 354.337 38.3244L354.42 37.5319C354.48 37.2752 354.568 37.0996 354.684 37.0049C354.71 36.8351 354.767 36.5473 354.855 36.1415L354.927 35.5698L355.197 35.1051C355.347 34.9236 355.42 34.697 355.416 34.4254C355.43 34.1311 355.516 33.8197 355.673 33.4911C355.831 33.1624 355.907 32.967 355.901 32.9048C355.877 32.6558 355.741 32.5431 355.492 32.5664C355.409 32.5742 355.166 32.7644 354.761 33.1371L354.184 33.003C354.142 33.0069 354.038 33.1213 353.871 33.3462C353.878 33.4292 353.791 33.5001 353.608 33.5591C353.425 33.6181 353.264 33.7902 353.123 34.0754L352.88 34.161L352.458 34.0122L352.333 34.0239C352.126 34.0433 352.023 34.2832 352.024 34.7434C351.827 35.0967 351.547 35.3427 351.183 35.4814L350.516 35.7322C350.296 35.8366 350.147 36.0388 350.071 36.3389C349.994 36.6391 349.812 36.9282 349.524 37.2062C349.235 37.4636 349.038 37.5971 348.934 37.6068C348.353 37.6613 348.033 37.367 347.973 36.724L348.084 35.2383L348.005 35.0575ZM395.094 35.3507L395.218 35.339L395.541 35.4343C395.583 35.4304 395.622 35.4057 395.66 35.3604C395.627 35.0078 395.765 34.6914 396.073 34.4114C396.14 34.0076 396.34 33.6854 396.673 33.4449C397.027 33.2025 397.576 32.8058 398.319 32.2548L399.033 31.4974L399.389 31.2757L399.608 30.9413C399.811 30.6502 400.016 30.495 400.224 30.4755C400.535 30.4463 400.701 30.5458 400.723 30.774L400.501 31.4225L400.722 32.4376C400.757 32.811 400.653 33.1555 400.41 33.4712C400.189 33.7849 399.835 34.2471 399.348 34.8577L397.918 36.6866L397.119 37.2009C396.923 37.3448 396.75 37.5075 396.6 37.689L395.483 38.8295C395.51 39.1199 395.437 39.3465 395.264 39.5092L394.766 39.5558L394.529 39.7036C394.421 40.1114 394.032 40.535 393.361 40.9744L392.955 41.3264C392.821 41.4645 392.692 41.5394 392.568 41.551L391.685 41.5082L391.106 41.6881C390.94 41.7037 390.704 41.6421 390.398 41.5034C390.113 41.3627 389.821 41.2645 389.523 41.2088C389.223 41.1323 388.813 40.7836 388.295 40.1626C387.795 39.5189 387.515 39.0953 387.454 38.8918C387.446 38.8088 387.381 38.6789 387.26 38.5019C387.158 38.3023 387.105 38.1817 387.101 38.1402C387.097 38.0987 387.171 37.8826 387.322 37.4917L387.317 37.4295C387.311 37.3672 387.235 37.2279 387.089 37.0114C386.964 36.7929 386.886 36.5178 386.855 36.1859C386.837 35.9992 386.753 35.7665 386.601 35.4878C386.751 35.3063 386.823 35.1741 386.815 35.0911C386.807 35.0081 386.765 34.897 386.689 34.7576C386.612 34.5975 386.569 34.476 386.561 34.393L386.605 32.8509L386.407 32.0847L386.4 31.3322C386.359 30.8966 386.152 30.6963 385.778 30.7313C385.612 30.7469 385.416 30.8804 385.188 31.1319L384.976 31.2145C384.441 31.5367 384.069 31.8018 383.858 32.0099C383.645 32.1972 383.415 32.3026 383.166 32.3259C383.053 32.462 382.825 32.5985 382.482 32.7352L382.251 32.9453C382.176 33.036 382.021 33.176 381.788 33.3653C381.794 33.4275 381.433 33.8171 380.705 34.534C379.996 35.2282 379.356 35.8845 378.787 36.5029C378.217 37.1213 377.79 37.4752 377.505 37.5647C377.239 37.6314 377.129 37.9034 377.174 38.3804C377.181 38.4634 377.01 38.6468 376.66 38.9308C376.619 38.9346 376.422 39.1832 376.071 39.6765C375.716 39.4587 375.517 39.3518 375.476 39.3557C375.206 39.3809 375.041 39.7417 374.981 40.4378C374.882 40.7191 374.565 40.9162 374.032 41.029C373.992 41.0536 373.934 41.216 373.858 41.5161L373.745 41.6522L373.434 41.6814C373.393 41.6853 373.259 41.8234 373.033 42.0956C372.806 42.3471 372.602 42.5127 372.421 42.5925C372.204 43.1778 372.002 43.4792 371.815 43.4967C371.732 43.5045 371.604 43.4747 371.43 43.4073C371.277 43.3379 371.084 43.2828 370.85 43.242C370.616 43.2011 370.333 42.9765 370.002 42.5682C369.689 42.1371 369.519 41.766 369.489 41.4549C369.274 39.1525 369.602 37.8558 370.474 37.5647L370.525 37.4344L370.502 37.1855C370.476 36.9159 370.573 36.7185 370.791 36.5934C371.029 36.4456 371.256 36.1941 371.474 35.8389C371.69 35.4629 371.837 35.2503 371.916 35.201L372.321 35.1631C372.404 35.1553 372.425 34.9337 372.384 34.4981C372.372 34.3736 372.413 34.2547 372.507 34.1412C372.601 34.0278 372.65 33.8768 372.653 33.6881C372.655 33.4788 372.77 33.1437 372.998 32.6828C373.246 32.1992 373.366 31.916 373.358 31.833L373.284 31.7144C372.81 32.2401 372.461 32.5343 372.237 32.5972C372.013 32.6601 371.73 32.99 371.388 33.587L370.882 33.5404C370.071 34.2651 369.566 34.6786 369.366 34.781C369.166 34.8834 368.96 35.1434 368.749 35.5608C368.76 35.6853 368.695 35.775 368.554 35.8301C368.413 35.8852 368.159 36.0765 367.792 36.4038L367.605 36.4213C367.087 36.4699 366.792 36.1209 366.722 35.3741L367.209 33.5394C367.344 32.9619 367.735 32.4543 368.385 32.0168C369.053 31.5566 369.609 31.1278 370.053 30.7304C370.497 30.3331 370.957 30.1017 371.432 30.0362L371.621 29.7046C372.301 29.3689 372.738 28.8989 372.932 28.2948C373.127 27.6907 373.442 27.3682 373.877 27.3274C375.018 27.2204 375.929 27.5639 376.611 28.358C377.29 29.1313 377.653 29.7668 377.699 30.2647L377.84 31.0989C377.868 31.3893 377.843 31.7996 377.768 32.3298C377.554 32.7265 377.455 33.0182 377.473 33.2049C377.489 33.3708 377.6 33.4441 377.807 33.4246C377.932 33.413 378.09 33.3144 378.282 33.129C378.472 32.9229 378.684 32.7356 378.92 32.567C379.176 32.3966 379.32 32.2575 379.351 32.1499C379.512 31.6327 379.843 31.2564 380.344 31.0211C380.845 30.7858 381.152 30.6001 381.265 30.464L381.553 30.1859L381.758 29.6958C382.295 29.3944 382.647 29.1312 382.814 28.9063C382.981 28.6814 383.217 28.5232 383.523 28.4318C383.828 28.3404 384.163 28.1207 384.528 27.7726L384.983 27.6044L385.395 27.3147C385.433 27.2693 385.552 27.2058 385.754 27.1241C385.956 27.0424 386.247 26.9105 386.627 26.7284C387.026 26.5235 387.299 26.4143 387.444 26.4007C388.502 26.3015 389.371 26.6489 390.053 27.443C390.755 28.2351 391.13 28.8904 391.178 29.409L391.169 29.9748L391.372 30.8032L391.384 30.9277L391.295 32.6623L391.413 33.2476C391.504 34.2225 391.36 34.9161 390.98 35.3283C390.88 35.3795 390.838 35.4881 390.854 35.654L390.88 35.9341L391.625 37.1825C391.854 37.6213 392.021 37.8359 392.125 37.8261L393.094 37.4528C393.377 37.3426 393.595 37.1024 393.748 36.7323C393.906 36.6338 394.174 36.3576 394.549 35.9039C394.643 35.5603 394.824 35.3759 395.094 35.3507Z" fill="#115177"/>
</svg>
