<svg width="56" height="56" viewBox="0 0 56 56" fill="none" xmlns="http://www.w3.org/2000/svg">
<path fill-rule="evenodd" clip-rule="evenodd" d="M28 0C43.464 0 56 12.536 56 28C56 43.464 43.464 56 28 56C12.536 56 0 43.464 0 28C0 12.536 12.536 0 28 0ZM28.0049 50.4C28.0229 50.3996 28.0873 50.3944 28.2213 50.3334C28.39 50.2567 28.6806 50.0844 29.0692 49.7191C29.8764 48.9604 30.8571 47.6024 31.8028 45.5009C33.437 41.8693 34.6398 36.742 34.9317 30.8H21.0683C21.3602 36.742 22.563 41.8693 24.1972 45.5009C25.1429 47.6024 26.1236 48.9604 26.9308 49.7191C27.3194 50.0844 27.61 50.2567 27.7787 50.3334C27.9178 50.3967 27.9819 50.3999 27.9969 50.4H28.0049ZM19.5382 48.7466C17.2884 44.2124 15.7792 37.8958 15.4622 30.8H5.7733C6.79002 38.9534 12.1887 45.7459 19.5382 48.7466ZM5.7733 25.2H15.4622C15.7792 18.1042 17.2884 11.7876 19.5382 7.25336C12.1887 10.2541 6.79002 17.0466 5.7733 25.2ZM36.4618 48.7466C43.8113 45.7459 49.21 38.9534 50.2267 30.8H40.5378C40.2208 37.8958 38.7116 44.2124 36.4618 48.7466ZM50.2267 25.2C49.21 17.0466 43.8113 10.2541 36.4618 7.25336C38.7116 11.7876 40.2208 18.1042 40.5378 25.2H50.2267ZM27.9953 5.6C27.9776 5.60033 27.9133 5.60538 27.7787 5.66655C27.61 5.7433 27.3194 5.91563 26.9308 6.28086C26.1236 7.03957 25.1429 8.39756 24.1972 10.4991C22.563 14.1307 21.3602 19.258 21.0683 25.2H34.9317C34.6398 19.258 33.437 14.1307 31.8028 10.4991C30.8571 8.39756 29.8764 7.03957 29.0692 6.28086C28.6806 5.91563 28.39 5.7433 28.2213 5.66655C28.0822 5.60333 28.0181 5.60007 28.0031 5.6L27.9953 5.6Z" fill="#BC74A5"/>
</svg>
