<svg width="98" height="88" viewBox="0 0 98 88" fill="none" xmlns="http://www.w3.org/2000/svg">
<rect x="1" y="0.534668" width="96" height="86.0198" rx="12" fill="white" fill-opacity="0.2" stroke="url(#paint0_linear_69_11975)"/>
<rect x="13" y="11.2871" width="72" height="64.5149" rx="12" fill="white"/>
<g clip-path="url(#clip0_69_11975)">
<path d="M63.6006 40.9678C63.0376 42.4829 62.7947 44.1063 62.8955 45.7212C63.1748 50.2767 63.0647 53.7433 58.3167 56.5968C57.8513 56.8762 57.3098 57.0239 56.75 57.0239H52.6875C51.1367 57.0239 49.875 55.8933 49.875 54.5037V49.5158C49.875 49.0409 49.4651 48.6169 48.9133 48.6222C48.4199 48.6309 48 49.0148 48 49.4602V54.5037C48 55.8933 46.7383 57.0239 45.1875 57.0239H41.4375C40.9016 57.0239 40.3794 56.8876 39.9272 56.6297C34.9734 53.8039 34.6477 50.3353 34.9883 45.5924C35.0967 44.0866 34.8713 42.5245 34.3352 41.0139C33.5195 41.6308 33 42.5529 33 43.582V57.0239C33 57.4878 33.4197 57.8639 33.9375 57.8639H64.0625C64.5803 57.8639 65 57.4878 65 57.0239V43.5833C65 42.5275 64.4531 41.5842 63.6006 40.9678Z" fill="#BC74A5"/>
<path d="M36.8591 45.7003C36.5381 50.1709 36.8184 52.8649 40.9338 55.2127C41.2168 55.3739 41.4009 55.3439 42.1013 55.3439C41.5625 53.3057 40.4998 48.9288 40.4998 46.1035C40.4998 44.7426 40.9285 43.392 41.7207 42.2181C41.7488 41.6614 41.7629 39.6556 40.6572 38.1693C40.3701 37.7832 40.4863 37.2617 40.9172 37.0044C41.3479 36.7469 41.9302 36.8513 42.2173 37.2374C42.731 37.9276 43.0583 38.6836 43.2651 39.4025C43.7976 38.2492 44.2498 36.9786 44.2498 36.0231C44.2498 35.5593 44.6694 35.183 45.1873 35.183C45.7051 35.183 46.1248 35.5593 46.1248 36.0231C46.1248 37.0239 45.7768 38.194 45.332 39.2815C45.8113 39.0748 46.3113 38.9074 46.8257 38.7864C47.3264 38.6692 47.8391 38.9374 47.9702 39.3861C48.1016 39.8349 47.802 40.2941 47.3013 40.4116C44.4465 41.0823 42.3748 43.476 42.3748 46.1035C42.3748 48.9174 43.5601 53.5969 44.0305 55.3439H45.1873C45.7051 55.3439 46.1248 54.9679 46.1248 54.5039V49.4604C46.1248 48.0993 47.3603 46.9698 48.8791 46.9424C50.4641 46.9169 51.7498 48.0894 51.7498 49.5159V54.5039C51.7498 54.9679 52.1694 55.3439 52.6873 55.3439H53.844C54.3144 53.5965 55.4998 48.9152 55.4998 46.1035C55.4998 43.5644 53.6929 41.3234 51.0132 40.5234C50.522 40.3766 50.2563 39.901 50.4202 39.4606C50.5837 39.0207 51.1147 38.7825 51.606 38.9293C51.8479 39.0017 52.0837 39.0839 52.3142 39.1739C52.0185 37.86 52.4033 36.9532 52.8606 36.3766C53.1604 35.9983 53.7458 35.9097 54.168 36.1784C54.5898 36.447 54.689 36.9714 54.3892 37.3496C53.8843 37.9862 54.0747 38.9065 54.4866 39.77C54.7478 39.2953 55.102 38.7836 55.5806 38.2962C55.9226 37.9479 56.5149 37.9138 56.9038 38.2203C57.2925 38.5268 57.3303 39.0575 56.9883 39.406C56.1934 40.2158 55.8518 41.1298 55.719 41.6016C56.8247 42.9405 57.3748 44.5203 57.3748 46.1035C57.3748 48.9288 56.312 53.3057 55.7732 55.3439C56.7739 55.3439 56.9675 55.3846 57.272 55.2015C59.1274 54.0865 60.1851 52.8831 60.7012 51.2993C61.8997 47.6204 59.8303 44.4309 62.3022 39.3064C65.5142 32.6421 57.897 26.7078 51.1501 30.2843C49.8044 30.9971 48.1326 30.9973 46.7871 30.2846C40.0798 26.7291 32.4773 32.5737 35.5996 39.2314C36.5779 41.3201 37.0134 43.5569 36.8591 45.7003Z" fill="#BC74A5"/>
</g>
<defs>
<linearGradient id="paint0_linear_69_11975" x1="1" y1="0.534668" x2="86.5041" y2="95.9592" gradientUnits="userSpaceOnUse">
<stop stop-color="white"/>
<stop offset="1" stop-color="white" stop-opacity="0"/>
</linearGradient>
<clipPath id="clip0_69_11975">
<rect width="32" height="28.6733" fill="white" transform="translate(33 29.208)"/>
</clipPath>
</defs>
</svg>
