<svg width="98" height="98" viewBox="0 0 98 98" fill="none" xmlns="http://www.w3.org/2000/svg">
<rect x="1" y="1" width="96" height="96" rx="12" fill="white" fill-opacity="0.2" stroke="url(#paint0_linear_69_11934)"/>
<rect x="13" y="13" width="72" height="72" rx="12" fill="white"/>
<path d="M54.3508 60.7712C51.186 64.0381 46.8267 64.0269 43.6711 60.7456C40.4414 64.4336 35.7932 63.9067 33 59.718V61.5625C33 63.458 34.542 65 36.4375 65H61.562C63.4575 65 64.9993 63.458 64.9993 61.5625V59.718C62.1824 63.9436 57.5479 64.3928 54.3508 60.7712Z" fill="#BC74A5"/>
<path d="M38.7295 61.3381C40.2022 61.3381 41.4939 60.4736 42.4759 59.2524C40.7022 56.5977 39.8999 52.8132 41.9678 50.3806C40.9327 50.0276 39.7183 49.9756 38.7295 49.9756C37.5523 49.9756 36.0552 50.0488 34.9209 50.6174C33.4383 51.3611 32.8841 52.7803 33.0198 54.4331C33.251 57.3757 35.5772 61.3381 38.7295 61.3381Z" fill="#BC74A5"/>
<path d="M63.0801 50.6174C61.9456 50.0488 60.4487 49.9756 59.2712 49.9756C58.2944 49.9756 57.0969 50.0264 56.0701 50.3682C58.1523 52.8005 57.3542 56.6064 55.5508 59.2844C56.53 60.4888 57.812 61.3381 59.2712 61.3381C62.5952 61.3381 65.0005 56.9326 65.0005 53.9624C65.0005 51.9937 63.9563 51.0569 63.0801 50.6174Z" fill="#BC74A5"/>
<path d="M42.6152 53.9626C42.6152 57.0583 45.4185 61.3381 49.0239 61.3381C52.6289 61.3381 55.4326 57.0588 55.4326 53.9626C55.4326 49.9756 50.9417 49.9756 49.0239 49.9756C47.1062 49.9756 42.6152 49.9756 42.6152 53.9626Z" fill="#BC74A5"/>
<path d="M61.5618 33H36.4373C34.5417 33 33 34.542 33 36.4375V38.282C35.8276 34.0398 40.4641 33.6213 43.6484 37.2288C46.8132 33.9619 51.1726 33.9731 54.3281 37.2544C57.4797 33.6558 62.1399 33.991 64.999 38.282V36.4375C64.999 34.542 63.4573 33 61.5618 33Z" fill="#BC74A5"/>
<path d="M38.7292 36.6619C35.4053 36.6619 33 41.0674 33 44.0376C33 46.0063 34.0444 46.9431 34.9207 47.3826C36.0549 47.9512 37.5518 48.0244 38.7292 48.0244C39.7068 48.0244 40.9036 47.9736 41.9304 47.6318C39.8484 45.1995 40.6465 41.3936 42.45 38.7156C41.4705 37.5112 40.1887 36.6619 38.7292 36.6619Z" fill="#BC74A5"/>
<path d="M59.2703 36.6619C57.7979 36.6619 56.5061 37.5264 55.5234 38.7476C57.2981 41.4036 58.1001 45.1868 56.0322 47.6194C57.0674 47.9724 58.2815 48.0244 59.2703 48.0244C60.4478 48.0244 61.9446 47.9512 63.0791 47.3826C64.5618 46.6389 65.1157 45.22 64.9802 43.5669C64.749 40.6243 62.4229 36.6619 59.2703 36.6619Z" fill="#BC74A5"/>
<path d="M48.9751 36.6619C45.3872 36.6619 42.5664 40.9226 42.5664 44.0374C42.5664 48.0244 47.0576 48.0244 48.9751 48.0244C50.8928 48.0244 55.3838 48.0244 55.3838 44.0374C55.384 40.9211 52.5623 36.6619 48.9751 36.6619Z" fill="#BC74A5"/>
<defs>
<linearGradient id="paint0_linear_69_11934" x1="1" y1="1" x2="97" y2="97" gradientUnits="userSpaceOnUse">
<stop stop-color="white"/>
<stop offset="1" stop-color="white" stop-opacity="0"/>
</linearGradient>
</defs>
</svg>
