<svg width="98" height="88" viewBox="0 0 98 88" fill="none" xmlns="http://www.w3.org/2000/svg">
<rect x="1" y="0.534668" width="96" height="86.0198" rx="12" fill="white" fill-opacity="0.2" stroke="url(#paint0_linear_69_11951)"/>
<rect x="13" y="11.2871" width="72" height="64.5149" rx="12" fill="white"/>
<g clip-path="url(#clip0_69_11951)">
<path d="M53.6087 46.0787C53.1729 44.1562 51.2721 42.7046 48.9997 42.7046C46.7273 42.7046 44.8264 44.1561 44.3906 46.0787H53.6087Z" fill="#BC74A5"/>
<path d="M57.1468 47.7588H40.0843C39.491 47.7588 39.0471 48.2463 39.1658 48.7671C39.2291 49.0449 39.2906 49.3106 39.3415 49.5215L39.412 49.8143C40.1063 52.6979 40.5651 54.6029 41.2308 55.8347C41.9958 57.2501 43.1111 57.8812 44.8473 57.8812C45.5596 57.8812 46.5884 57.8075 47.2947 57.1698C48.2061 56.3469 48.1953 55.0572 48.1773 52.9205C48.1746 52.5952 48.1718 52.2591 48.1716 51.8968C48.1715 51.4976 48.5131 51.1532 48.9581 51.1338C49.433 51.1132 49.8266 51.4534 49.8266 51.8744C49.8266 52.2453 49.8238 52.5886 49.8209 52.9205C49.8029 55.0573 49.7921 56.347 50.7036 57.1698C51.4099 57.8075 52.4386 57.8812 53.151 57.8812C54.8871 57.8812 56.0025 57.25 56.7674 55.8347C57.4332 54.6029 57.8919 52.6979 58.5863 49.8143L58.6567 49.5217C58.7076 49.3107 58.7691 49.045 58.8324 48.7671C58.9511 48.2463 58.5072 47.7588 57.9139 47.7588H57.1468Z" fill="#BC74A5"/>
<path d="M39.752 41.0105H58.2475C58.6054 41.0105 58.932 40.8279 59.0895 40.54C59.9018 39.0541 60.3017 37.3989 60.312 35.4798V35.4798C60.3208 33.7843 59.5874 32.192 58.2469 30.996C56.938 29.8283 55.2116 29.1949 53.3833 29.2082C52.3403 29.2164 51.3392 29.4295 50.408 29.8419C49.5131 30.2382 48.4865 30.2382 47.5915 29.8419C46.6602 29.4296 45.6591 29.2164 44.6164 29.2083C42.787 29.1934 41.0615 29.8284 39.7526 30.9961C38.4121 32.192 37.6787 33.7844 37.6876 35.4799C37.6978 37.399 38.0977 39.0541 38.9101 40.54C39.0675 40.8279 39.3941 41.0105 39.752 41.0105Z" fill="#BC74A5"/>
</g>
<defs>
<linearGradient id="paint0_linear_69_11951" x1="1" y1="0.534668" x2="86.5041" y2="95.9592" gradientUnits="userSpaceOnUse">
<stop stop-color="white"/>
<stop offset="1" stop-color="white" stop-opacity="0"/>
</linearGradient>
<clipPath id="clip0_69_11951">
<rect width="32" height="28.6733" fill="white" transform="translate(33 29.208)"/>
</clipPath>
</defs>
</svg>
