<svg width="98" height="88" viewBox="0 0 98 88" fill="none" xmlns="http://www.w3.org/2000/svg">
<rect x="1" y="0.638672" width="96" height="86.0198" rx="12" fill="white" fill-opacity="0.2" stroke="url(#paint0_linear_69_11964)"/>
<rect x="13" y="11.3911" width="72" height="64.5149" rx="12" fill="white"/>
<g clip-path="url(#clip0_69_11964)">
<path d="M61.291 57.8535C62.5293 56.492 62.415 53.8013 62.4138 53.7731C62.4132 52.7685 62.0956 51.5842 61.8298 50.7629C61.5321 49.8438 61.7258 48.8622 62.3624 48.0696C62.4258 47.9908 62.4875 47.9099 62.5463 47.83C63.4007 46.6749 63.8515 45.2899 63.8515 43.8229V43.0216C63.8515 40.7302 60.2629 40.6938 60.1092 40.6934C58.9183 40.6939 57.7069 41.0174 56.756 41.6698C56.6463 41.7451 56.5394 41.825 56.4172 41.8833C56.3611 41.9099 56.3017 41.9325 56.2486 41.9636C56.0281 42.0926 55.8457 42.3236 55.6491 42.4839C55.408 42.68 55.1537 42.8648 54.8846 43.0297C54.3332 43.3671 53.6874 43.6498 53.0057 43.6498C52.6903 43.6498 52.4343 43.4209 52.4343 43.1377C52.4343 42.8546 52.6903 42.6257 53.0057 42.6257C53.7382 42.6257 54.6629 41.9304 55.2 41.4445C54.9686 41.3159 54.6703 41.1721 54.3057 41.0445C53.2199 40.6651 52.0096 40.6021 50.877 40.8428C49.9655 41.0363 48.9866 41.4347 48.6158 42.2642C48.5175 42.4843 48.4609 42.7352 48.4609 43.0219V43.8238C48.4609 44.8519 48.6861 45.8811 49.1507 46.8227C49.4546 47.4382 49.933 47.9671 50.2587 48.5723C50.6278 49.2569 50.7198 50.0295 50.4822 50.7638C50.2159 51.5851 49.8987 52.7695 49.8987 53.7515C49.897 53.8012 49.7833 56.4929 51.0211 57.8545C51.609 56.0803 53.4348 51.346 56.156 51.346C58.8772 51.346 60.703 56.0794 61.291 57.8535Z" fill="#BC74A5"/>
<path d="M47.8475 46.6476C47.4373 45.5969 47.2755 44.4484 47.2978 43.3394C47.3092 42.768 47.3778 42.1837 47.6556 41.6697C48.1036 40.8412 49.0402 40.302 50.0122 40.003C52.0363 39.3809 54.4157 39.6466 56.1558 40.7833C56.2455 40.7245 56.354 40.6594 56.4729 40.5923C56.4906 40.5821 56.5112 40.5718 56.53 40.5616C56.9655 40.3215 57.4318 40.1326 57.9158 39.9871C57.9569 39.9748 57.9912 39.9605 58.0334 39.9488C58.8575 38.3446 59.2918 36.5386 59.2918 34.7091V33.408C59.2918 29.3691 53.262 29.3122 53.0054 29.3118C49.4293 29.3118 47.2915 31.0675 47.1379 31.1981C46.7584 31.6026 44.0207 34.4321 41.5771 34.4321C41.2617 34.4321 41.0057 34.2032 41.0057 33.92C41.0057 33.6368 41.2617 33.408 41.5771 33.408C43.0092 33.408 44.9292 31.8427 45.9029 30.9021C45.1092 30.365 43.2006 29.3118 40.4343 29.3118C40.1782 29.3123 34.1484 29.3691 34.1484 33.408V34.709C34.1484 37.1535 34.8861 39.4643 36.2811 41.39C36.3777 41.5236 36.4782 41.6568 36.5828 41.7899C37.5297 42.9942 37.8188 44.4843 37.3765 45.8769C36.9468 47.2302 36.4342 49.1857 36.4342 50.8165C36.4314 50.8876 36.2274 55.7448 38.5634 57.9532C38.5938 57.9813 38.632 57.9911 38.6772 57.9814C38.7052 57.9747 38.7543 57.9563 38.7715 57.9009C39.5555 55.3981 42.4453 47.2322 46.7202 47.2322C47.2522 47.2322 47.7807 47.3582 48.3036 47.6091C48.2888 47.5825 48.2784 47.5533 48.2642 47.5267C48.1259 47.2753 47.9997 47.0183 47.891 46.7535C47.8755 46.7188 47.8612 46.6834 47.8475 46.6476Z" fill="#BC74A5"/>
</g>
<defs>
<linearGradient id="paint0_linear_69_11964" x1="1" y1="0.638672" x2="86.5041" y2="96.0632" gradientUnits="userSpaceOnUse">
<stop stop-color="white"/>
<stop offset="1" stop-color="white" stop-opacity="0"/>
</linearGradient>
<clipPath id="clip0_69_11964">
<rect width="32" height="28.6733" fill="white" transform="translate(33 29.3118)"/>
</clipPath>
</defs>
</svg>
