<svg width="62" height="62" viewBox="0 0 62 62" fill="none" xmlns="http://www.w3.org/2000/svg">
<path d="M61 31C61 47.5685 47.5685 61 31 61C14.4315 61 0.999997 47.5685 0.999999 31C1 14.4315 14.4315 1 31 1L46 1C54.2843 1 61 7.71573 61 16L61 31Z" fill="white" fill-opacity="0.5" stroke="#E99E9E"/>
<path d="M8 31C8 18.2975 18.2975 8 31 8C43.7025 8 54 18.2975 54 31C54 43.7025 43.7025 54 31 54C18.2975 54 8 43.7025 8 31Z" fill="#E99E9E"/>
<path d="M41 36V34L32.5 29V23.5C32.5 22.67 31.83 22 31 22C30.17 22 29.5 22.67 29.5 23.5V29L21 34V36L29.5 33.5V39L27 40.5V42L31 41L35 42V40.5L32.5 39V33.5L41 36Z" fill="white"/>
</svg>
