<svg width="62" height="62" viewBox="0 0 62 62" fill="none" xmlns="http://www.w3.org/2000/svg">
<path d="M61 31C61 47.5685 47.5685 61 31 61C14.4315 61 0.999997 47.5685 0.999999 31C1 14.4315 14.4315 1 31 1L46 1C54.2843 1 61 7.71573 61 16L61 31Z" fill="white" fill-opacity="0.5" stroke="#E99E9E"/>
<path d="M9 30.5C9 18.0736 19.0736 8 31.5 8C43.9264 8 54 18.0736 54 30.5C54 42.9264 43.9264 53 31.5 53C19.0736 53 9 42.9264 9 30.5Z" fill="#E99E9E"/>
<g clip-path="url(#clip0_346_17559)">
<path d="M30.9917 22.6667C26.3917 22.6667 22.6667 26.4001 22.6667 31.0001C22.6667 35.6001 26.3917 39.3334 30.9917 39.3334C35.6001 39.3334 39.3334 35.6001 39.3334 31.0001C39.3334 26.4001 35.6001 22.6667 30.9917 22.6667ZM31.0001 37.6667C27.3167 37.6667 24.3334 34.6834 24.3334 31.0001C24.3334 27.3167 27.3167 24.3334 31.0001 24.3334C34.6834 24.3334 37.6667 27.3167 37.6667 31.0001C37.6667 34.6834 34.6834 37.6667 31.0001 37.6667ZM33.9167 30.1667C34.6084 30.1667 35.1667 29.6084 35.1667 28.9167C35.1667 28.2251 34.6084 27.6667 33.9167 27.6667C33.2251 27.6667 32.6667 28.2251 32.6667 28.9167C32.6667 29.6084 33.2251 30.1667 33.9167 30.1667ZM28.0834 30.1667C28.7751 30.1667 29.3334 29.6084 29.3334 28.9167C29.3334 28.2251 28.7751 27.6667 28.0834 27.6667C27.3917 27.6667 26.8334 28.2251 26.8334 28.9167C26.8334 29.6084 27.3917 30.1667 28.0834 30.1667ZM31.0001 35.5834C32.9417 35.5834 34.5917 34.3667 35.2584 32.6667H26.7417C27.4084 34.3667 29.0584 35.5834 31.0001 35.5834Z" fill="white"/>
</g>
<defs>
<clipPath id="clip0_346_17559">
<rect width="20" height="20" fill="white" transform="translate(21 21)"/>
</clipPath>
</defs>
</svg>
