<svg width="62" height="62" viewBox="0 0 62 62" fill="none" xmlns="http://www.w3.org/2000/svg">
<path d="M61 31C61 47.5685 47.5685 61 31 61C14.4315 61 0.999997 47.5685 0.999999 31C1 14.4315 14.4315 1 31 1L46 1C54.2843 1 61 7.71573 61 16L61 31Z" fill="white" fill-opacity="0.5" stroke="#E99E9E"/>
<path d="M9 30.5C9 18.0736 19.0736 8 31.5 8C43.9264 8 54 18.0736 54 30.5C54 42.9264 43.9264 53 31.5 53C19.0736 53 9 42.9264 9 30.5Z" fill="#E99E9E"/>
<path d="M38.9925 35.0821C38.8597 36.1641 38.363 37.1577 37.5948 37.8784C36.8266 38.599 35.8393 38.9976 34.8163 39C28.8523 39 24 33.8242 24 27.4627C24.0023 26.3715 24.3759 25.3183 25.0515 24.4989C25.7271 23.6795 26.6587 23.1497 27.673 23.008C27.9316 22.9774 28.1926 23.0354 28.4181 23.1737C28.6437 23.312 28.8221 23.5234 28.9274 23.7771L30.4372 27.5348C30.5155 27.7298 30.5469 27.9426 30.5285 28.1539C30.5102 28.3652 30.4426 28.5682 30.332 28.7446L29.0851 30.7796C29.6498 32.0019 30.5801 32.9886 31.7291 33.5839L33.6145 32.2458C33.7796 32.1271 33.9704 32.0552 34.1689 32.037C34.3674 32.0187 34.5669 32.0548 34.7487 32.1417L38.2715 33.7441C38.5093 33.8565 38.7075 34.0467 38.8371 34.2873C38.9668 34.5279 39.0212 34.8063 38.9925 35.0821V35.0821ZM33.4192 24.8748C34.3338 25.1413 35.1675 25.6576 35.838 26.3728C36.5085 27.088 36.9925 27.9773 37.2424 28.9529C37.2756 29.0899 37.3503 29.2113 37.4549 29.2983C37.5595 29.3852 37.6882 29.4328 37.8208 29.4336C37.8742 29.4335 37.9272 29.4254 37.9785 29.4096C38.0549 29.3883 38.1265 29.3509 38.1892 29.2997C38.2519 29.2484 38.3043 29.1844 38.3435 29.1113C38.3827 29.0382 38.4078 28.9574 38.4173 28.8738C38.4269 28.7902 38.4207 28.7054 38.3991 28.6244C38.0987 27.4296 37.5088 26.3401 36.6888 25.4653C35.8687 24.5906 34.8473 23.9614 33.7271 23.6409C33.6487 23.6104 33.5653 23.5977 33.482 23.6036C33.3988 23.6094 33.3176 23.6337 33.2436 23.6748C33.1697 23.7159 33.1045 23.7731 33.0524 23.8425C33.0002 23.912 32.9622 23.9923 32.9408 24.0782C32.9193 24.1642 32.9149 24.2541 32.9277 24.342C32.9406 24.4299 32.9705 24.514 33.0155 24.5889C33.0605 24.6638 33.1196 24.728 33.1891 24.7772C33.2586 24.8264 33.337 24.8596 33.4192 24.8748V24.8748ZM32.7957 27.3505C33.3042 27.4989 33.7676 27.7861 34.1403 28.1837C34.513 28.5813 34.7822 29.0756 34.9214 29.6179C34.9534 29.7556 35.0278 29.8778 35.1327 29.9649C35.2375 30.0521 35.3668 30.0992 35.4998 30.0986C35.5507 30.0991 35.6015 30.091 35.65 30.0746C35.7271 30.0541 35.7995 30.0174 35.863 29.9666C35.9265 29.9157 35.9798 29.8518 36.0198 29.7786C36.0597 29.7053 36.0854 29.6243 36.0955 29.5403C36.1055 29.4563 36.0996 29.371 36.0782 29.2894C35.8885 28.5279 35.5134 27.8333 34.9911 27.2762C34.4688 26.719 33.8176 26.319 33.1037 26.1166C33.0253 26.0862 32.9418 26.0735 32.8586 26.0793C32.7753 26.0851 32.6942 26.1094 32.6202 26.1505C32.5462 26.1917 32.4811 26.2488 32.4289 26.3182C32.3768 26.3877 32.3388 26.468 32.3173 26.554C32.2959 26.64 32.2914 26.7298 32.3043 26.8177C32.3171 26.9056 32.347 26.9897 32.392 27.0646C32.437 27.1396 32.4962 27.2037 32.5657 27.2529C32.6352 27.3021 32.7135 27.3353 32.7957 27.3505V27.3505Z" fill="white"/>
</svg>
