<svg width="62" height="62" viewBox="0 0 62 62" fill="none" xmlns="http://www.w3.org/2000/svg">
<path d="M61 31C61 47.5685 47.5685 61 31 61C14.4315 61 0.999997 47.5685 0.999999 31C1 14.4315 14.4315 1 31 1L46 1C54.2843 1 61 7.71573 61 16L61 31Z" fill="white" fill-opacity="0.5" stroke="#E99E9E"/>
<path d="M9 30.5C9 18.0736 19.0736 8 31.5 8C43.9264 8 54 18.0736 54 30.5C54 42.9264 43.9264 53 31.5 53C19.0736 53 9 42.9264 9 30.5Z" fill="#E99E9E"/>
<path d="M35.264 22.9993C34.9478 23.0113 34.6415 22.8736 34.5115 22.638L34.0609 21.8211C33.8949 21.52 34.08 21.1733 34.4742 21.0465C34.8684 20.9198 35.3224 21.061 35.4885 21.3621L35.9391 22.179C36.1051 22.4801 35.9201 22.8268 35.5258 22.9535C35.4403 22.9811 35.3516 22.9959 35.264 22.9993Z" fill="white"/>
<path d="M37.405 22.9993C37.3483 23.0036 37.2903 22.989 37.2348 22.9526C37.0387 22.8248 36.9474 22.4782 37.031 22.1783L37.259 21.3592C37.3425 21.0592 37.5691 20.9196 37.7652 21.0474C37.9613 21.175 38.0526 21.5218 37.969 21.8217L37.7409 22.6408C37.6811 22.8558 37.5478 22.9883 37.405 22.9993Z" fill="white"/>
<path d="M38.6145 24.999C38.3736 25.015 38.1405 24.8311 38.0439 24.519C37.9213 24.1229 38.0644 23.6705 38.3634 23.5083L39.1927 23.0581C39.4918 22.8958 39.8336 23.0852 39.9561 23.4812C40.0787 23.877 39.9357 24.3294 39.6367 24.4917L38.8072 24.9419C38.7441 24.9762 38.679 24.9946 38.6145 24.999V24.999Z" fill="white"/>
<path d="M38.6734 28.1367C37.9683 26.2387 36.2545 25.0075 34.3072 25C34.3035 25 34.2998 25 34.2961 25C33.2733 25 32.5296 25.5482 31.8731 26.032C31.3743 26.3996 30.9431 26.7176 30.5 26.7218C30.057 26.7176 29.6256 26.3998 29.127 26.032C28.4704 25.5481 27.7267 25 26.7039 25C26.7003 25 26.6966 25 26.6929 25C24.7456 25.0075 23.0316 26.2387 22.3265 28.1367C21.5307 30.2792 22.343 31.9763 23.1287 33.6176C23.248 33.8669 23.3714 34.1249 23.4868 34.3799C23.6689 34.7819 23.8471 35.5036 24.0357 36.2677C24.4791 38.0642 24.9818 40.1005 26.1038 40.7713C26.4866 41.0001 26.9215 41.0586 27.3615 40.9403C28.5252 40.6278 28.9195 39.2859 29.2672 38.1019C29.6358 36.8473 29.9032 36.0831 30.5001 36.0759C31.0968 36.0831 31.3644 36.8473 31.7329 38.1019C32.0807 39.2859 32.4748 40.6278 33.6386 40.9403C33.7867 40.9801 33.9343 41 34.0795 41C34.3655 41 34.6425 40.9231 34.8962 40.7713C36.0183 40.1003 36.5211 38.0642 36.9645 36.2677C37.153 35.5036 37.3312 34.7819 37.5132 34.3799C37.6287 34.1248 37.7521 33.8669 37.8715 33.6175C38.657 31.9763 39.4694 30.2792 38.6734 28.1367V28.1367ZM26.7059 28.4401C26.1643 28.4422 25.7155 28.7818 25.5049 29.3485C25.4195 29.5783 25.204 29.7199 24.9751 29.7199C24.9089 29.7199 24.8416 29.7081 24.7759 29.683C24.4833 29.5714 24.3354 29.2408 24.4454 28.9444C24.8224 27.93 25.6869 27.2974 26.7016 27.2933H26.7038C27.0154 27.2933 27.2686 27.5486 27.2697 27.8646C27.2709 28.1812 27.0185 28.4389 26.7059 28.4401Z" fill="white"/>
</svg>
