<svg width="62" height="62" viewBox="0 0 62 62" fill="none" xmlns="http://www.w3.org/2000/svg">
<path d="M61 31C61 47.5685 47.5685 61 31 61C14.4315 61 0.999997 47.5685 0.999999 31C1 14.4315 14.4315 1 31 1L46 1C54.2843 1 61 7.71573 61 16L61 31Z" fill="white" fill-opacity="0.5" stroke="#E99E9E"/>
<path d="M9 30.5C9 18.0736 19.0736 8 31.5 8C43.9264 8 54 18.0736 54 30.5C54 42.9264 43.9264 53 31.5 53C19.0736 53 9 42.9264 9 30.5Z" fill="#E99E9E"/>
<path d="M16.9217 28.2922C16.7459 28.468 16.6471 28.7064 16.6471 28.9551C16.6471 29.2037 16.7459 29.4422 16.9217 29.618L20.0153 32.7116C20.1911 32.8874 20.4296 32.9862 20.6782 32.9862C20.9268 32.9862 21.1653 32.8874 21.3411 32.7116L26.2025 27.8502C26.3783 27.6744 26.4771 27.436 26.4771 27.1873C26.4771 26.9387 26.3783 26.7002 26.2025 26.5244L23.1089 23.4308C22.9331 23.255 22.6946 23.1562 22.446 23.1562C22.1973 23.1562 21.9589 23.255 21.7831 23.4308L16.9217 28.2922ZM18.4685 27.6293L18.9104 28.0712C19.1449 28.3056 19.2766 28.6236 19.2766 28.9551C19.2766 29.2866 19.1449 29.6045 18.9104 29.839L18.4685 30.2809L18.0266 29.839L18.4685 29.397C18.5857 29.2798 18.6516 29.1208 18.6516 28.9551C18.6516 28.7893 18.5857 28.6303 18.4685 28.5131L18.0266 28.0712L18.4685 27.6293ZM22.3355 28.8446C22.1304 29.0497 21.8522 29.1649 21.5621 29.1649C21.272 29.1649 20.9938 29.0497 20.7887 28.8446C20.5836 28.6395 20.4683 28.3613 20.4683 28.0712C20.4683 27.7811 20.5836 27.5029 20.7887 27.2978C20.9938 27.0927 21.272 26.9774 21.5621 26.9774C21.8522 26.9774 22.1304 27.0927 22.3355 27.2978C22.5406 27.5029 22.6558 27.7811 22.6558 28.0712C22.6558 28.3613 22.5406 28.6395 22.3355 28.8446ZM19.7943 31.6067L19.3524 31.1648L19.7943 30.7228C20.0287 30.4884 20.3467 30.3567 20.6782 30.3567C21.0097 30.3567 21.3277 30.4884 21.5621 30.7228L22.004 31.1648L21.5621 31.6067L21.1201 31.1648C21.0029 31.0476 20.844 30.9817 20.6782 30.9817C20.5124 30.9817 20.3535 31.0476 20.2363 31.1648L19.7943 31.6067ZM24.6557 26.7454C24.5385 26.8626 24.4726 27.0216 24.4726 27.1873C24.4726 27.3531 24.5385 27.512 24.6557 27.6293L25.0976 28.0712L24.6557 28.5131L24.2137 28.0712C23.9793 27.8368 23.8476 27.5188 23.8476 27.1873C23.8476 26.8558 23.9793 26.5378 24.2137 26.3034L24.6557 25.8615L25.0976 26.3034L24.6557 26.7454ZM22.8879 24.9776L23.3299 24.5357L23.7718 24.9776L23.3299 25.4195C23.0954 25.654 22.7775 25.7857 22.446 25.7857C22.1145 25.7857 21.7965 25.654 21.5621 25.4195L21.1201 24.9776L21.5621 24.5357L22.004 24.9776C22.1212 25.0948 22.2802 25.1607 22.446 25.1607C22.6117 25.1607 22.7707 25.0948 22.8879 24.9776ZM26.6444 26.0825C26.9374 26.3755 27.1021 26.7729 27.1021 27.1873C27.1021 27.6017 26.9374 27.9991 26.6444 28.2922L22.0416 32.895C22.2166 32.9786 22.4132 33.0058 22.6044 32.973C22.7956 32.9401 22.9718 32.8488 23.1089 32.7116L27.0864 28.7341C27.4966 28.3239 27.7271 27.7675 27.7271 27.1873C27.7271 26.6071 27.4966 26.0508 27.0864 25.6405L24.8767 23.4308C24.7396 23.2936 24.5633 23.2023 24.3722 23.1694C24.181 23.1366 23.9844 23.1638 23.8094 23.2474L26.6444 26.0825Z" fill="white"/>
<path d="M42.6625 31.7647C43.2577 31.7647 43.8306 31.9847 44.2642 32.3798C44.6977 32.7749 44.9594 33.3154 44.9958 33.8911L45 34.0294V39.3824C45 39.5388 44.9386 39.6895 44.8283 39.8038C44.7181 39.9182 44.5671 39.9877 44.406 39.9984C44.2448 40.009 44.0855 39.96 43.9602 39.8613C43.8349 39.7625 43.753 39.6214 43.731 39.4664L43.725 39.3824V37.5294H29.275V39.3824C29.275 39.5316 29.2192 39.6758 29.1179 39.7883C29.0167 39.9008 28.8768 39.9739 28.7242 39.9942L28.6375 40C28.4834 40 28.3346 39.9459 28.2185 39.8478C28.1024 39.7497 28.0269 39.6142 28.0059 39.4664L28 39.3824V34.0294C28 33.4527 28.227 32.8977 28.6349 32.4776C29.0427 32.0576 29.6006 31.8041 30.1947 31.7688L30.3375 31.7647H42.6625ZM32.0375 26H40.9625C41.5577 26 42.1306 26.22 42.5642 26.6151C42.9977 27.0102 43.2594 27.5507 43.2958 28.1264L43.3 28.2647V30.9412H40.75L40.7441 30.8448C40.7217 30.661 40.636 30.4898 40.5009 30.359C40.3658 30.2281 40.1892 30.1451 39.9995 30.1234L39.9 30.1176H38.2C37.9918 30.1177 37.7909 30.1917 37.6353 30.3258C37.4797 30.4598 37.3803 30.6445 37.3559 30.8448L37.35 30.9412H35.65L35.6441 30.8448C35.6217 30.661 35.536 30.4898 35.4009 30.359C35.2658 30.2281 35.0892 30.1451 34.8994 30.1234L34.8 30.1176H33.1C32.8918 30.1177 32.6909 30.1917 32.5353 30.3258C32.3797 30.4598 32.2803 30.6445 32.256 30.8448L32.25 30.9412H29.7V28.2647C29.7 27.688 29.927 27.133 30.3349 26.7129C30.7427 26.2929 31.3006 26.0393 31.8947 26.0041L32.0375 26Z" fill="white"/>
</svg>
