<svg width="62" height="62" viewBox="0 0 62 62" fill="none" xmlns="http://www.w3.org/2000/svg">
<path d="M61 31C61 47.5685 47.5685 61 31 61C14.4315 61 0.999997 47.5685 0.999999 31C1 14.4315 14.4315 1 31 1L46 1C54.2843 1 61 7.71573 61 16L61 31Z" fill="white" fill-opacity="0.5" stroke="#E99E9E"/>
<path d="M9 30.5C9 18.0736 19.0736 8 31.5 8C43.9264 8 54 18.0736 54 30.5C54 42.9264 43.9264 53 31.5 53C19.0736 53 9 42.9264 9 30.5Z" fill="#E99E9E"/>
<path d="M36.7697 23.7568C35.4084 23.0076 33.7907 22.8047 32.2725 23.1927C30.7543 23.5806 29.4599 24.5277 28.674 25.8256L28.4545 26.1882C28.4112 26.2596 28.3831 26.3384 28.3717 26.4202C28.3604 26.502 28.366 26.5851 28.3884 26.6648C28.4107 26.7445 28.4493 26.8192 28.5019 26.8847C28.5546 26.9501 28.6202 27.0051 28.6951 27.0463L32.6762 29.2382L30.2133 33.349C28.5625 33.5491 27.1032 34.3679 26.0136 35.5317C26.3329 35.5812 26.6317 35.7139 26.877 35.9151C27.1223 36.1164 27.3045 36.3783 27.4035 36.672C27.6099 37.2857 28.0392 37.4724 28.3852 37.4757C28.739 37.4799 29.142 37.2974 29.3335 36.749C29.45 36.4155 29.6736 36.1255 29.9726 35.9199C30.2716 35.7144 30.6309 35.6037 30.9996 35.6037C31.3682 35.6037 31.7275 35.7144 32.0265 35.9199C32.3256 36.1255 32.5492 36.4155 32.6657 36.749C32.858 37.2974 33.261 37.4799 33.614 37.4757C33.9599 37.4724 34.3893 37.2857 34.5965 36.672C34.6955 36.3783 34.8777 36.1164 35.123 35.9151C35.3683 35.7139 35.6671 35.5812 35.9864 35.5317C34.8854 34.3554 33.4067 33.5315 31.734 33.3423L33.8177 29.8661L37.8198 32.0697C37.8947 32.111 37.9774 32.1379 38.0631 32.1487C38.1489 32.1595 38.2361 32.1541 38.3197 32.1328C38.4032 32.1115 38.4816 32.0747 38.5503 32.0245C38.6189 31.9744 38.6765 31.9118 38.7198 31.8403L38.9393 31.477C39.7251 30.1791 39.9381 28.6367 39.5314 27.1891C39.1247 25.7415 38.1316 24.5072 36.7705 23.7577L36.7697 23.7568ZM26.3586 36.9935C26.3147 36.8628 26.2271 36.7495 26.1093 36.6708C25.9914 36.5921 25.8498 36.5524 25.706 36.5577C25.5622 36.563 25.4242 36.6131 25.3131 36.7003C25.202 36.7874 25.1239 36.9069 25.0907 37.0404C24.9063 37.7864 24.5578 38.1824 24.1767 38.4084C23.7728 38.6479 23.2547 38.7442 22.6585 38.7442C22.4839 38.7442 22.3164 38.8103 22.1929 38.9281C22.0694 39.0458 22 39.2055 22 39.3721C22 39.5386 22.0694 39.6983 22.1929 39.8161C22.3164 39.9338 22.4839 40 22.6585 40C23.3803 40 24.1776 39.887 24.8721 39.4751C25.2437 39.2544 25.5616 38.9607 25.8046 38.6135C27.1673 40.1758 29.6768 40.1683 31 38.5893C32.3469 40.1959 34.9214 40.1758 36.2657 38.5307C37.0102 39.4583 38.171 40 39.3415 40C39.5161 40 39.6836 39.9338 39.8071 39.8161C39.9306 39.6983 40 39.5386 40 39.3721C40 39.2055 39.9306 39.0458 39.8071 38.9281C39.6836 38.8103 39.5161 38.7442 39.3415 38.7442C38.3027 38.7442 37.2482 38.0769 36.897 36.9994C36.8554 36.872 36.7723 36.7605 36.6599 36.6812C36.5474 36.6018 36.4113 36.5587 36.2714 36.5581C36.1315 36.5574 35.995 36.5993 35.8817 36.6776C35.7684 36.7558 35.6843 36.8665 35.6414 36.9935C34.953 39.0363 32.296 39.002 31.6243 37.0806C31.5804 36.9558 31.4965 36.8474 31.3845 36.7706C31.2725 36.6938 31.138 36.6525 31 36.6525C30.862 36.6525 30.7275 36.6938 30.6155 36.7706C30.5035 36.8474 30.4196 36.9558 30.3757 37.0806C29.704 39.002 27.047 39.0355 26.3586 36.9935Z" fill="white"/>
</svg>
