<svg width="22" height="19" viewBox="0 0 22 19" fill="none" xmlns="http://www.w3.org/2000/svg">
<path fill-rule="evenodd" clip-rule="evenodd" d="M13.824 2.067C13.9711 1.8484 14.0259 1.58058 13.9766 1.32177C13.9274 1.06295 13.7779 0.834033 13.5608 0.68477C13.3437 0.535507 13.0765 0.477956 12.8172 0.524624C12.5579 0.571292 12.3274 0.718407 12.176 0.934L11 2.644L9.824 0.934C9.75022 0.824336 9.65544 0.730385 9.54513 0.657579C9.43482 0.584774 9.31117 0.534558 9.18133 0.509836C9.05149 0.485114 8.91804 0.486376 8.7887 0.513549C8.65935 0.540722 8.53667 0.593267 8.42776 0.668146C8.31884 0.743024 8.22585 0.838751 8.15416 0.94979C8.08247 1.06083 8.03351 1.18498 8.0101 1.31506C7.98669 1.44514 7.98929 1.57857 8.01777 1.70764C8.04625 1.83671 8.10003 1.95885 8.176 2.067L9.786 4.409L1.475 16.5H1C0.734784 16.5 0.48043 16.6054 0.292893 16.7929C0.105357 16.9804 0 17.2348 0 17.5C0 17.7652 0.105357 18.0196 0.292893 18.2071C0.48043 18.3946 0.734784 18.5 1 18.5H21C21.2652 18.5 21.5196 18.3946 21.7071 18.2071C21.8946 18.0196 22 17.7652 22 17.5C22 17.2348 21.8946 16.9804 21.7071 16.7929C21.5196 16.6054 21.2652 16.5 21 16.5H20.526L12.213 4.41L13.824 2.067ZM14.986 16.5H18.099L11 6.174L3.901 16.5H7.015L10.17 11.943C10.263 11.8089 10.387 11.6994 10.5316 11.6237C10.6761 11.548 10.8368 11.5085 11 11.5085C11.1632 11.5085 11.3239 11.548 11.4684 11.6237C11.613 11.6994 11.737 11.8089 11.83 11.943L14.985 16.5H14.986ZM9.447 16.5H12.553L11 14.257L9.447 16.5Z" fill="#E99E9E"/>
</svg>
