<svg width="20" height="20" viewBox="0 0 20 20" fill="none" xmlns="http://www.w3.org/2000/svg">
<path d="M8.75 3C8.55109 3 8.36032 3.07902 8.21967 3.21967C8.07902 3.36032 8 3.55109 8 3.75C8 3.94891 8.07902 4.13968 8.21967 4.28033C8.36032 4.42098 8.55109 4.5 8.75 4.5H11.25C11.4489 4.5 11.6397 4.42098 11.7803 4.28033C11.921 4.13968 12 3.94891 12 3.75C12 3.55109 11.921 3.36032 11.7803 3.21967C11.6397 3.07902 11.4489 3 11.25 3H8.75ZM2 3.75C2 2.75544 2.39509 1.80161 3.09835 1.09835C3.80161 0.395088 4.75544 0 5.75 0H14.25C15.2446 0 16.1984 0.395088 16.9017 1.09835C17.6049 1.80161 18 2.75544 18 3.75V7.5H19.227C19.4259 7.5 19.6167 7.57902 19.7573 7.71967C19.898 7.86032 19.977 8.05109 19.977 8.25C19.977 8.44891 19.898 8.63968 19.7573 8.78033C19.6167 8.92098 19.4259 9 19.227 9H18V17.75C18 18.2141 17.8156 18.6592 17.4874 18.9874C17.1592 19.3156 16.7141 19.5 16.25 19.5H14.75C14.2859 19.5 13.8408 19.3156 13.5126 18.9874C13.1844 18.6592 13 18.2141 13 17.75V16.5H7V17.75C7 18.2141 6.81563 18.6592 6.48744 18.9874C6.15925 19.3156 5.71413 19.5 5.25 19.5H3.75C3.28587 19.5 2.84075 19.3156 2.51256 18.9874C2.18437 18.6592 2 18.2141 2 17.75V9H0.75C0.551088 9 0.360322 8.92098 0.21967 8.78033C0.0790175 8.63968 0 8.44891 0 8.25C0 8.05109 0.0790175 7.86032 0.21967 7.71967C0.360322 7.57902 0.551088 7.5 0.75 7.5H2V3.75ZM14.5 16.5V17.75C14.5 17.888 14.612 18 14.75 18H16.25C16.3163 18 16.3799 17.9737 16.4268 17.9268C16.4737 17.8799 16.5 17.8163 16.5 17.75V16.5H14.5ZM3.5 16.5V17.75C3.5 17.888 3.612 18 3.75 18H5.25C5.3163 18 5.37989 17.9737 5.42678 17.9268C5.47366 17.8799 5.5 17.8163 5.5 17.75V16.5H3.5ZM5.75 1.5C5.15326 1.5 4.58097 1.73705 4.15901 2.15901C3.73705 2.58097 3.5 3.15326 3.5 3.75V10H16.5V3.75C16.5 3.15326 16.2629 2.58097 15.841 2.15901C15.419 1.73705 14.8467 1.5 14.25 1.5H5.75ZM7 13C7 12.7348 6.89464 12.4804 6.70711 12.2929C6.51957 12.1054 6.26522 12 6 12C5.73478 12 5.48043 12.1054 5.29289 12.2929C5.10536 12.4804 5 12.7348 5 13C5 13.2652 5.10536 13.5196 5.29289 13.7071C5.48043 13.8946 5.73478 14 6 14C6.26522 14 6.51957 13.8946 6.70711 13.7071C6.89464 13.5196 7 13.2652 7 13ZM14 14C14.2652 14 14.5196 13.8946 14.7071 13.7071C14.8946 13.5196 15 13.2652 15 13C15 12.7348 14.8946 12.4804 14.7071 12.2929C14.5196 12.1054 14.2652 12 14 12C13.7348 12 13.4804 12.1054 13.2929 12.2929C13.1054 12.4804 13 12.7348 13 13C13 13.2652 13.1054 13.5196 13.2929 13.7071C13.4804 13.8946 13.7348 14 14 14Z" fill="#E99E9E"/>
</svg>
