<svg width="17" height="19" viewBox="0 0 17 19" fill="none" xmlns="http://www.w3.org/2000/svg">
<path d="M6.21075 0.75C4.36575 0.75 2.78925 1.33875 1.6875 2.391C0.58575 3.4425 0 4.93875 0 6.63225C0 7.9095 0.489 8.8935 0.98475 9.7725C1.47975 10.6515 1.97775 11.4398 2.25 12.4215C2.5785 13.6313 2.8065 15.078 3.1875 16.2885C3.378 16.8915 3.60675 17.4428 3.96075 17.9055C4.3155 18.3682 4.878 18.7493 5.53125 18.7493C6.15825 18.7493 6.78225 18.4237 7.10175 17.9288C7.42125 17.4338 7.5 16.848 7.5 16.218C7.5 15.4448 7.5 14.238 7.66425 13.2885C7.74675 12.8138 7.887 12.4185 8.016 12.21C8.14425 12.0023 8.151 11.9993 8.25 11.9993C8.34975 11.9993 8.355 11.9993 8.48475 12.21C8.613 12.4215 8.754 12.8138 8.83575 13.2885C9.003 14.2373 9 15.4448 9 16.218C9 16.848 9.07875 17.4338 9.39825 17.9288C9.71775 18.4237 10.3418 18.7493 10.9688 18.7493C11.625 18.7493 12.1875 18.3713 12.5392 17.9055C12.8903 17.4398 13.122 16.8713 13.3125 16.2645C13.6935 15.0518 13.9245 13.6103 14.25 12.4208C14.5223 11.4398 15.0202 10.6515 15.516 9.77325C16.011 8.8935 16.5 7.9095 16.5 6.63225C16.5375 3.228 13.9455 0.75 10.5465 0.75C9.5595 0.75 8.394 1.116 8.20275 1.17225C7.59375 0.93225 6.9285 0.75 6.21075 0.75ZM6.21075 2.25C7.9485 2.25 9.9375 4.0785 9.9375 4.0785L10.992 3C10.992 3 10.497 2.61 10.1483 2.3205C10.3065 2.2965 10.4445 2.25 10.5472 2.25C13.2622 2.25 15.0293 3.9285 15 6.60975V6.63225C15 7.54125 14.6895 8.22675 14.2267 9.04725C13.764 9.867 13.1392 10.7843 12.7965 12.0233C12.4395 13.3275 12.2115 14.7712 11.883 15.8205C11.7188 16.3447 11.5162 16.7663 11.3438 16.992C11.1713 17.2178 11.115 17.25 10.9688 17.25C10.74 17.25 10.74 17.2267 10.6642 17.109C10.5877 16.992 10.5 16.6815 10.5 16.2188C10.5 15.4537 10.515 14.1862 10.3125 13.0312C10.2098 12.4537 10.0695 11.8973 9.77325 11.4142C9.47775 10.9305 8.91225 10.5 8.25 10.5C7.58775 10.5 7.02225 10.9305 6.72675 11.4142C6.4305 11.8973 6.28725 12.4537 6.1875 13.0312C5.985 14.1862 6 15.4537 6 16.2188C6 16.6815 5.91225 16.992 5.83575 17.1097C5.76 17.2267 5.76 17.25 5.53125 17.25C5.38125 17.25 5.3265 17.2148 5.15625 16.992C4.986 16.7693 4.78125 16.365 4.617 15.8438C4.28925 14.8013 4.0605 13.3418 3.70275 12.0233C3.36 10.7843 2.736 9.867 2.27325 9.04725C1.8105 8.22675 1.5 7.54425 1.5 6.6315C1.5 5.2815 1.95375 4.218 2.742 3.468C3.53025 2.718 4.6725 2.25 6.21075 2.25Z" fill="#E99E9E"/>
</svg>
