<svg width="17" height="19" viewBox="0 0 17 19" fill="none" xmlns="http://www.w3.org/2000/svg">
<path d="M6.21075 0.750732C4.36575 0.750732 2.78925 1.33948 1.6875 2.39173C0.58575 3.44323 0 4.93948 0 6.63298C0 7.91023 0.489 8.89423 0.98475 9.77323C1.47975 10.6522 1.97775 11.4405 2.25 12.4222C2.5785 13.632 2.8065 15.0787 3.1875 16.2892C3.378 16.8922 3.60675 17.4435 3.96075 17.9062C4.3155 18.369 4.878 18.75 5.53125 18.75C6.15825 18.75 6.78225 18.4245 7.10175 17.9295C7.42125 17.4345 7.5 16.8487 7.5 16.2187C7.5 15.4455 7.5 14.2387 7.66425 13.2892C7.74675 12.8145 7.887 12.4192 8.016 12.2107C8.14425 12.003 8.151 12 8.25 12C8.34975 12 8.355 12 8.48475 12.2107C8.613 12.4222 8.754 12.8145 8.83575 13.2892C9.003 14.238 9 15.4455 9 16.2187C9 16.8487 9.07875 17.4345 9.39825 17.9295C9.71775 18.4245 10.3418 18.75 10.9688 18.75C11.625 18.75 12.1875 18.372 12.5392 17.9062C12.8903 17.4405 13.122 16.872 13.3125 16.2652C13.6935 15.0525 13.9245 13.611 14.25 12.4215C14.5223 11.4405 15.0202 10.6522 15.516 9.77398C16.011 8.89423 16.5 7.91023 16.5 6.63298C16.5375 3.22873 13.9455 0.750732 10.5465 0.750732C9.5595 0.750732 8.394 1.11673 8.20275 1.17298C7.59375 0.932983 6.9285 0.750732 6.21075 0.750732ZM6.21075 2.25073C7.9485 2.25073 9.9375 4.07923 9.9375 4.07923L10.992 3.00073C10.992 3.00073 10.497 2.61073 10.1483 2.32123C10.3065 2.29723 10.4445 2.25073 10.5472 2.25073C13.2622 2.25073 15.0293 3.92923 15 6.61048V6.63298C15 7.54198 14.6895 8.22748 14.2267 9.04798C13.764 9.86773 13.1392 10.785 12.7965 12.024C12.4395 13.3282 12.2115 14.772 11.883 15.8212C11.7188 16.3455 11.5162 16.767 11.3438 16.9927C11.1713 17.2185 11.115 17.2507 10.9688 17.2507C10.74 17.2507 10.74 17.2275 10.6642 17.1097C10.5877 16.9927 10.5 16.6822 10.5 16.2195C10.5 15.4545 10.515 14.187 10.3125 13.032C10.2098 12.4545 10.0695 11.898 9.77325 11.415C9.47775 10.9312 8.91225 10.5007 8.25 10.5007C7.58775 10.5007 7.02225 10.9312 6.72675 11.415C6.4305 11.898 6.28725 12.4545 6.1875 13.032C5.985 14.187 6 15.4545 6 16.2195C6 16.6822 5.91225 16.9927 5.83575 17.1105C5.76 17.2275 5.76 17.2507 5.53125 17.2507C5.38125 17.2507 5.3265 17.2155 5.15625 16.9927C4.986 16.77 4.78125 16.3657 4.617 15.8445C4.28925 14.802 4.0605 13.3425 3.70275 12.024C3.36 10.785 2.736 9.86773 2.27325 9.04798C1.8105 8.22748 1.5 7.54498 1.5 6.63223C1.5 5.28223 1.95375 4.21873 2.742 3.46873C3.53025 2.71873 4.6725 2.25073 6.21075 2.25073Z" fill="#E99E9E"/>
</svg>
