<svg width="17" height="15" viewBox="0 0 17 15" fill="none" xmlns="http://www.w3.org/2000/svg">
<path d="M10.0833 1.74927H3.75C3.01226 1.74927 2.64318 1.74927 2.35221 1.90151C1.96425 2.1045 1.65622 2.49407 1.49552 2.98413C1.375 3.35167 1.375 3.81761 1.375 4.7495C2.68668 4.7495 3.75 6.09218 3.75 7.74904C3.75 9.40589 2.68668 10.7493 1.375 10.7493C1.375 11.6812 1.375 12.1471 1.49552 12.5146C1.65622 13.0047 1.96425 13.3939 2.35221 13.5969C2.64318 13.7492 3.01226 13.7493 3.75 13.7493H10.0833M10.0833 1.74927H13.25C13.9877 1.74927 14.3566 1.74927 14.6476 1.90151C15.0355 2.1045 15.3437 2.49407 15.5044 2.98413C15.6249 3.35167 15.6249 3.81762 15.6249 4.7495C14.3132 4.7495 13.25 6.09241 13.25 7.74927C13.25 9.40612 14.3132 10.7493 15.6249 10.7493C15.6249 11.6811 15.6249 12.1471 15.5044 12.5146C15.3437 13.0047 15.0355 13.3939 14.6476 13.5969C14.3566 13.7492 13.9877 13.7493 13.25 13.7493H10.0833M10.0833 1.74927V13.7493" stroke="#E99E9E" stroke-width="2" stroke-linecap="round" stroke-linejoin="round"/>
</svg>
