<svg width="25" height="24" viewBox="0 0 25 24" fill="none" xmlns="http://www.w3.org/2000/svg">
<path fill-rule="evenodd" clip-rule="evenodd" d="M0.5 12C0.5 5.37258 5.87258 0 12.5 0C19.1274 0 24.5 5.37258 24.5 12C24.5 18.6274 19.1274 24 12.5 24C5.87258 24 0.5 18.6274 0.5 12Z" fill="white"/>
<g clip-path="url(#clip0_644_14503)">
<path fill-rule="evenodd" clip-rule="evenodd" d="M7.25 7.62723C7.25 7.39457 7.34242 7.17145 7.50693 7.00694C7.67145 6.84242 7.89457 6.75 8.12723 6.75H16.8718C16.9871 6.74981 17.1013 6.77237 17.2079 6.81637C17.3145 6.86038 17.4113 6.92497 17.4929 7.00646C17.5744 7.08794 17.6391 7.18471 17.6833 7.29123C17.7274 7.39775 17.7501 7.51193 17.75 7.62723V16.3718C17.7501 16.4871 17.7275 16.6014 17.6835 16.7079C17.6394 16.8145 17.5748 16.9113 17.4932 16.9929C17.4117 17.0745 17.3149 17.1392 17.2084 17.1833C17.1018 17.2274 16.9876 17.2501 16.8723 17.25H8.12723C8.01199 17.25 7.89788 17.2273 7.79142 17.1832C7.68496 17.1391 7.58823 17.0744 7.50677 16.9929C7.4253 16.9114 7.36069 16.8146 7.31664 16.7081C7.27258 16.6017 7.24994 16.4875 7.25 16.3723V7.62723ZM11.4061 10.7534H12.8279V11.4674C13.0331 11.0569 13.5581 10.6875 14.347 10.6875C15.8595 10.6875 16.218 11.5051 16.218 13.0051V15.7838H14.6873V13.3469C14.6873 12.4925 14.4821 12.0105 13.9609 12.0105C13.2379 12.0105 12.9372 12.5303 12.9372 13.3469V15.7838H11.4061V10.7534ZM8.78109 15.7184H10.3122V10.6875H8.78109V15.718V15.7184ZM10.5312 9.04664C10.5341 9.17773 10.5108 9.30808 10.4626 9.43004C10.4145 9.55199 10.3424 9.6631 10.2507 9.75683C10.159 9.85057 10.0495 9.92504 9.92867 9.97589C9.80781 10.0267 9.678 10.0529 9.54688 10.0529C9.41575 10.0529 9.28594 10.0267 9.16508 9.97589C9.04421 9.92504 8.93472 9.85057 8.84303 9.75683C8.75133 9.6631 8.67929 9.55199 8.63111 9.43004C8.58294 9.30808 8.55961 9.17773 8.5625 9.04664C8.56817 8.78932 8.67437 8.54445 8.85835 8.36446C9.04234 8.18448 9.28949 8.0837 9.54688 8.0837C9.80426 8.0837 10.0514 8.18448 10.2354 8.36446C10.4194 8.54445 10.5256 8.78932 10.5312 9.04664V9.04664Z" fill="#115177"/>
</g>
<defs>
<clipPath id="clip0_644_14503">
<rect width="10.5" height="10.5" fill="white" transform="translate(7.25 6.75)"/>
</clipPath>
</defs>
</svg>
