<svg width="25" height="24" viewBox="0 0 25 24" fill="none" xmlns="http://www.w3.org/2000/svg">
<path fill-rule="evenodd" clip-rule="evenodd" d="M0.5 12C0.5 5.37258 5.87258 0 12.5 0C19.1274 0 24.5 5.37258 24.5 12C24.5 18.6274 19.1274 24 12.5 24C5.87258 24 0.5 18.6274 0.5 12Z" fill="white"/>
<path d="M10.9091 13.5912L14.0911 10.4092M9.71611 11.6024L8.92061 12.3978C8.04193 13.2765 8.04168 14.7013 8.92036 15.5799C9.79904 16.4586 11.2241 16.4584 12.1028 15.5797L12.8974 14.7843M12.1023 9.21566L12.8977 8.42016C13.7764 7.54148 15.2009 7.54164 16.0796 8.42032C16.9582 9.299 16.9582 10.7236 16.0795 11.6023L15.2844 12.3978" stroke="#115177" stroke-width="1.3" stroke-linecap="round" stroke-linejoin="round"/>
</svg>
