<svg width="25" height="24" viewBox="0 0 25 24" fill="none" xmlns="http://www.w3.org/2000/svg">
<path fill-rule="evenodd" clip-rule="evenodd" d="M0.5 12C0.5 5.37258 5.87258 0 12.5 0C19.1274 0 24.5 5.37258 24.5 12C24.5 18.6274 19.1274 24 12.5 24C5.87258 24 0.5 18.6274 0.5 12Z" fill="white"/>
<path d="M14.4046 7.86797H15.5V6.07922C15.311 6.05484 14.6611 6 13.9041 6C12.3248 6 11.2429 6.93141 11.2429 8.64328V10.2188H9.5V12.2184H11.2429V17.25H13.3797V12.2189H15.052L15.3175 10.2192H13.3792V8.84156C13.3797 8.26359 13.5457 7.86797 14.4046 7.86797Z" fill="#115177"/>
</svg>
