<svg width="25" height="24" viewBox="0 0 25 24" fill="none" xmlns="http://www.w3.org/2000/svg">
<path fill-rule="evenodd" clip-rule="evenodd" d="M0.5 12C0.5 5.37258 5.87258 0 12.5 0C19.1274 0 24.5 5.37258 24.5 12C24.5 18.6274 19.1274 24 12.5 24C5.87258 24 0.5 18.6274 0.5 12Z" fill="white"/>
<path fill-rule="evenodd" clip-rule="evenodd" d="M12.1406 10.0538L12.1658 10.469L11.7461 10.4181C10.2184 10.2232 8.88383 9.56226 7.75067 8.45216L7.19668 7.90135L7.05399 8.3081C6.75181 9.21482 6.94487 10.1724 7.5744 10.8164C7.91015 11.1723 7.83461 11.2232 7.25544 11.0113C7.05399 10.9435 6.87772 10.8927 6.86093 10.9181C6.80218 10.9774 7.00363 11.7486 7.16311 12.0536C7.38134 12.4773 7.82621 12.8925 8.31305 13.1383L8.72434 13.3332L8.23751 13.3417C7.76746 13.3417 7.75067 13.3501 7.80103 13.5281C7.96891 14.0789 8.63201 14.6636 9.37066 14.9178L9.89108 15.0958L9.43781 15.367C8.76631 15.7568 7.9773 15.9771 7.18829 15.994C6.81057 16.0025 6.5 16.0364 6.5 16.0618C6.5 16.1466 7.52404 16.6211 8.11999 16.8075C9.90786 17.3584 12.0315 17.1211 13.6263 16.1805C14.7595 15.511 15.8926 14.1806 16.4214 12.8925C16.7068 12.2062 16.9922 10.952 16.9922 10.3503C16.9922 9.96054 17.0174 9.90969 17.4874 9.44362C17.7644 9.17245 18.0246 8.87586 18.075 8.79112C18.1589 8.63011 18.1505 8.63011 17.7224 8.77417C17.009 9.02839 16.9083 8.9945 17.2608 8.61317C17.521 8.342 17.8316 7.8505 17.8316 7.70645C17.8316 7.68102 17.7057 7.72339 17.563 7.79966C17.4119 7.8844 17.0761 8.01151 16.8243 8.08778L16.3711 8.23184L15.9598 7.95219C15.7331 7.79966 15.4142 7.63018 15.2463 7.57934C14.8182 7.4607 14.1635 7.47765 13.7774 7.61323C12.7282 7.99456 12.0651 8.97755 12.1406 10.0538Z" fill="#115177"/>
</svg>
