<svg width="25" height="24" viewBox="0 0 25 24" fill="none" xmlns="http://www.w3.org/2000/svg">
<path fill-rule="evenodd" clip-rule="evenodd" d="M0.5 12C0.5 5.37258 5.87258 0 12.5 0C19.1274 0 24.5 5.37258 24.5 12C24.5 18.6274 19.1274 24 12.5 24C5.87258 24 0.5 18.6274 0.5 12Z" fill="white"/>
<path fill-rule="evenodd" clip-rule="evenodd" d="M12.5006 5.59985C10.7624 5.59985 10.5443 5.60745 9.86161 5.63852C9.18027 5.66972 8.7152 5.77759 8.30827 5.93586C7.88733 6.09933 7.53026 6.31799 7.17452 6.67386C6.81852 7.0296 6.59985 7.38667 6.43585 7.80748C6.27718 8.21455 6.16918 8.67975 6.13851 9.36083C6.10798 10.0435 6.09998 10.2618 6.09998 11.9999C6.09998 13.7381 6.10771 13.9555 6.13864 14.6382C6.16998 15.3196 6.27784 15.7846 6.43598 16.1916C6.59958 16.6125 6.81825 16.9696 7.17412 17.3253C7.52972 17.6813 7.88679 17.9005 8.30747 18.064C8.71467 18.2223 9.17987 18.3301 9.86108 18.3613C10.5438 18.3924 10.7618 18.4 12.4998 18.4C14.2381 18.4 14.4555 18.3924 15.1382 18.3613C15.8195 18.3301 16.2851 18.2223 16.6924 18.064C17.1132 17.9005 17.4697 17.6813 17.8253 17.3253C18.1813 16.9696 18.4 16.6125 18.564 16.1917C18.7213 15.7846 18.8293 15.3194 18.8613 14.6383C18.892 13.9557 18.9 13.7381 18.9 11.9999C18.9 10.2618 18.892 10.0436 18.8613 9.36096C18.8293 8.67962 18.7213 8.21455 18.564 7.80761C18.4 7.38667 18.1813 7.0296 17.8253 6.67386C17.4693 6.31786 17.1133 6.09919 16.692 5.93586C16.2839 5.77759 15.8186 5.66972 15.1373 5.63852C14.4546 5.60745 14.2373 5.59985 12.4986 5.59985H12.5006ZM11.9264 6.75318C12.0968 6.75291 12.2869 6.75318 12.5005 6.75318C14.2094 6.75318 14.4119 6.75931 15.0867 6.78998C15.7107 6.81851 16.0494 6.92278 16.275 7.01038C16.5737 7.12638 16.7866 7.26505 17.0105 7.48906C17.2345 7.71306 17.3731 7.92639 17.4894 8.22506C17.577 8.4504 17.6814 8.78907 17.7098 9.41308C17.7405 10.0877 17.7471 10.2904 17.7471 11.9984C17.7471 13.7065 17.7405 13.9091 17.7098 14.5838C17.6813 15.2078 17.577 15.5465 17.4894 15.7718C17.3734 16.0705 17.2345 16.2831 17.0105 16.507C16.7865 16.731 16.5738 16.8697 16.275 16.9857C16.0497 17.0737 15.7107 17.1777 15.0867 17.2062C14.412 17.2369 14.2094 17.2436 12.5005 17.2436C10.7916 17.2436 10.5891 17.2369 9.91439 17.2062C9.29038 17.1774 8.95171 17.0732 8.72598 16.9856C8.42731 16.8696 8.21397 16.7309 7.98997 16.5069C7.76597 16.2829 7.6273 16.0701 7.51103 15.7713C7.42343 15.5459 7.31903 15.2073 7.29063 14.5833C7.25996 13.9086 7.25383 13.7059 7.25383 11.9968C7.25383 10.2878 7.25996 10.0861 7.29063 9.41148C7.31916 8.78747 7.42343 8.4488 7.51103 8.2232C7.62703 7.92453 7.76597 7.71119 7.98997 7.48719C8.21397 7.26319 8.42731 7.12452 8.72598 7.00825C8.95158 6.92025 9.29038 6.81625 9.91439 6.78758C10.5048 6.76091 10.7336 6.75291 11.9264 6.75158V6.75318ZM15.9169 7.81586C15.4928 7.81586 15.1488 8.15946 15.1488 8.5836C15.1488 9.00761 15.4928 9.35161 15.9169 9.35161C16.3409 9.35161 16.6849 9.00761 16.6849 8.5836C16.6849 8.1596 16.3409 7.81586 15.9169 7.81586ZM12.5006 8.7132C10.6855 8.7132 9.21389 10.1848 9.21389 11.9999C9.21389 13.815 10.6855 15.2859 12.5006 15.2859C14.3157 15.2859 15.7868 13.815 15.7868 11.9999C15.7868 10.1848 14.3157 8.7132 12.5006 8.7132ZM12.5006 9.86655C13.6787 9.86655 14.6339 10.8216 14.6339 11.9999C14.6339 13.178 13.6787 14.1333 12.5006 14.1333C11.3223 14.1333 10.3672 13.178 10.3672 11.9999C10.3672 10.8216 11.3223 9.86655 12.5006 9.86655Z" fill="#115177"/>
</svg>
