<svg width="69" height="69" viewBox="0 0 69 69" fill="none" xmlns="http://www.w3.org/2000/svg">
<circle cx="34.5" cy="34.5" r="32" stroke="#115177" stroke-width="5"/>
<path d="M28 27H28.5V26.5V21.625C28.5 21.625 28.5 21.625 28.5 21.625C28.5 21.474 28.5547 21.3281 28.654 21.2142C28.7501 21.1041 28.8816 21.0312 29.0257 21.008L29.1421 21H38.875C39.0408 21 39.1997 21.0658 39.3169 21.1831C39.4342 21.3003 39.5 21.4592 39.5 21.625V26.5V27H40H42.625C43.7853 27 44.8981 27.4609 45.7186 28.2814C46.5391 29.1019 47 30.2147 47 31.375V41.125C47 42.2853 46.5391 43.3981 45.7186 44.2186C44.8981 45.0391 43.7853 45.5 42.625 45.5H25.375C24.2147 45.5 23.1019 45.0391 22.2814 44.2186C21.4609 43.3981 21 42.2853 21 41.125V31.375C21 30.2147 21.4609 29.1019 22.2814 28.2814C23.1019 27.4609 24.2147 27 25.375 27H28ZM30.25 22.25H29.75V22.75V26.5V27H30.25H37.75H38.25V26.5V22.75V22.25H37.75H30.25ZM30.625 37.5H32.75V39.625C32.75 40.056 32.9212 40.4693 33.226 40.7741C33.5307 41.0788 33.944 41.25 34.375 41.25C34.806 41.25 35.2193 41.0788 35.524 40.7741C35.8288 40.4693 36 40.056 36 39.625V37.5H38.125C38.556 37.5 38.9693 37.3288 39.274 37.0241C39.5788 36.7193 39.75 36.306 39.75 35.875C39.75 35.444 39.5788 35.0307 39.274 34.726C38.9693 34.4212 38.556 34.25 38.125 34.25H36V32.125C36 31.694 35.8288 31.2807 35.524 30.976C35.2193 30.6712 34.806 30.5 34.375 30.5C33.944 30.5 33.5307 30.6712 33.226 30.976C32.9212 31.2807 32.75 31.694 32.75 32.125V34.25H30.625C30.194 34.25 29.7807 34.4212 29.476 34.726C29.1712 35.0307 29 35.444 29 35.875C29 36.306 29.1712 36.7193 29.476 37.0241C29.7807 37.3288 30.194 37.5 30.625 37.5Z" fill="#115177" stroke="#115177"/>
</svg>
