<svg width="69" height="69" viewBox="0 0 69 69" fill="none" xmlns="http://www.w3.org/2000/svg">
<circle cx="34.5" cy="34.5" r="32" stroke="#115177" stroke-width="5"/>
<path d="M48.2179 32.8238L48.2334 32.8376L48.2501 32.85C48.3983 32.9612 48.5001 33.172 48.5001 33.425C48.5001 33.6781 48.3983 33.8889 48.2501 34L48.2216 34.0214L48.1965 34.0465C47.7221 34.5209 47.1453 34.5382 46.8036 34.1965L46.3536 33.7465L45.5001 32.8929V34.1V48.5C45.5001 48.8364 45.3901 49.0779 45.234 49.234C45.0779 49.3901 44.8365 49.5 44.5001 49.5H23.5001C23.1637 49.5 22.9222 49.3901 22.7661 49.234C22.61 49.0779 22.5001 48.8364 22.5001 48.5V34.1V32.6L21.6001 33.8L21.1739 34.3683C20.8298 34.6872 20.2677 34.6606 19.8036 34.1965C19.4643 33.8571 19.479 33.2859 19.9439 32.8134L33.4155 20.8386C33.8294 20.5372 34.3207 20.5372 34.7346 20.8386L48.2179 32.8238ZM36.0001 41V40H37.0001C37.5637 40 38.0722 39.81 38.4411 39.4411C38.81 39.0722 39.0001 38.5637 39.0001 38C39.0001 37.4364 38.81 36.9279 38.4411 36.559C38.0722 36.1901 37.5637 36 37.0001 36H36.0001V35C36.0001 34.4364 35.81 33.9279 35.4411 33.559C35.0722 33.1901 34.5637 33 34.0001 33C33.4365 33 32.9279 33.1901 32.559 33.559C32.1901 33.9279 32.0001 34.4364 32.0001 35V36H31.0001C30.4365 36 29.9279 36.1901 29.559 36.559C29.1901 36.9279 29.0001 37.4364 29.0001 38C29.0001 38.5637 29.1901 39.0722 29.559 39.4411C29.9279 39.81 30.4365 40 31.0001 40H32.0001V41C32.0001 41.5637 32.1901 42.0722 32.559 42.4411C32.9279 42.81 33.4365 43 34.0001 43C34.5637 43 35.0722 42.81 35.4411 42.4411C35.81 42.0722 36.0001 41.5637 36.0001 41Z" fill="#115177" stroke="#115177"/>
</svg>
