<svg width="69" height="69" viewBox="0 0 69 69" fill="none" xmlns="http://www.w3.org/2000/svg">
<circle cx="34.5" cy="34.5" r="32" stroke="#115177" stroke-width="5"/>
<g clip-path="url(#clip0_812_15916)">
<path fill-rule="evenodd" clip-rule="evenodd" d="M30.4645 22.7085C29.5268 22.9002 29 23.1603 29 23.4315V24H38.9998V27.1C38.9998 27.3652 39.1051 27.6196 39.2926 27.8071C39.4802 27.9946 39.7345 28.1 39.9998 28.1C40.265 28.1 40.5193 27.9946 40.7069 27.8071C40.8944 27.6196 40.9998 27.3652 40.9998 27.1V24H39V23.4315C39 23.1603 38.4732 22.9002 37.5355 22.7085C36.5979 22.5167 35.3261 22.409 34 22.409C32.6739 22.409 31.4021 22.5167 30.4645 22.7085ZM41 24H47.9998V44C47.9998 44.5304 47.789 45.0391 47.414 45.4142C47.0389 45.7893 46.5302 46 45.9998 46H21.9998C21.4693 46 20.9606 45.7893 20.5855 45.4142C20.2105 45.0391 19.9998 44.5304 19.9998 44V24H26.9998V27.1C26.9998 27.3652 27.1051 27.6196 27.2926 27.8071C27.4802 27.9946 27.7345 28.1 27.9998 28.1C28.265 28.1 28.5193 27.9946 28.7069 27.8071C28.8944 27.6196 28.9998 27.3652 28.9998 27.1V24H27V23.4315C27 23.2435 27.1811 23.0574 27.5328 22.8837C27.8846 22.71 28.4002 22.5522 29.0503 22.4193C29.7003 22.2863 30.4719 22.1809 31.3212 22.109C32.1705 22.037 33.0807 22 34 22C34.9193 22 35.8295 22.037 36.6788 22.109C37.5281 22.1809 38.2997 22.2863 38.9497 22.4193C39.5998 22.5522 40.1154 22.71 40.4672 22.8837C40.8189 23.0574 41 23.2435 41 23.4315V24ZM28 35C28 35.8284 27.3284 36.5 26.5 36.5C25.6716 36.5 25 35.8284 25 35C25 34.1716 25.6716 33.5 26.5 33.5C27.3284 33.5 28 34.1716 28 35ZM26.5 42.5C27.3284 42.5 28 41.8284 28 41C28 40.1716 27.3284 39.5 26.5 39.5C25.6716 39.5 25 40.1716 25 41C25 41.8284 25.6716 42.5 26.5 42.5ZM35.5 35C35.5 35.8284 34.8284 36.5 34 36.5C33.1716 36.5 32.5 35.8284 32.5 35C32.5 34.1716 33.1716 33.5 34 33.5C34.8284 33.5 35.5 34.1716 35.5 35ZM34 42.5C34.8284 42.5 35.5 41.8284 35.5 41C35.5 40.1716 34.8284 39.5 34 39.5C33.1716 39.5 32.5 40.1716 32.5 41C32.5 41.8284 33.1716 42.5 34 42.5ZM43 35C43 35.8284 42.3284 36.5 41.5 36.5C40.6716 36.5 40 35.8284 40 35C40 34.1716 40.6716 33.5 41.5 33.5C42.3284 33.5 43 34.1716 43 35ZM41.5 42.5C42.3284 42.5 43 41.8284 43 41C43 40.1716 42.3284 39.5 41.5 39.5C40.6716 39.5 40 40.1716 40 41C40 41.8284 40.6716 42.5 41.5 42.5Z" fill="#115177"/>
<path d="M29 23C29 21.8954 29.8954 21 31 21H37C38.1046 21 39 21.8954 39 23H29Z" fill="#115177"/>
</g>
<defs>
<clipPath id="clip0_812_15916">
<rect width="36" height="36" fill="white" transform="translate(17 16)"/>
</clipPath>
</defs>
</svg>
