<svg width="69" height="69" viewBox="0 0 69 69" fill="none" xmlns="http://www.w3.org/2000/svg">
<circle cx="34.5" cy="34.5" r="32" stroke="#115177" stroke-width="5"/>
<path d="M21.596 47.7858C21.4999 47.8959 21.3684 47.9688 21.2244 47.992L21.1104 47.9998C20.9646 47.9964 20.8244 47.9421 20.7142 47.846C20.6041 47.7499 20.5312 47.6184 20.508 47.4743L20.5 47.3579V37.625V37.625C20.5 36.7019 20.8521 35.8135 21.4845 35.1411C22.1153 34.4706 22.9774 34.0652 23.896 34.007L24.1324 34H45.875C46.7981 34 47.6865 34.3521 48.3589 34.9845C49.0294 35.6153 49.4348 36.4774 49.493 37.3959L49.5 37.6324V47.3748C49.5 47.3749 49.5 47.3749 49.5 47.375C49.4999 47.5333 49.4398 47.6857 49.3317 47.8013C49.2236 47.917 49.0756 47.9874 48.9176 47.9982C48.7596 48.009 48.6034 47.9594 48.4806 47.8595C48.3615 47.7626 48.2824 47.6255 48.258 47.4743L48.25 47.3579V44V43.5H47.75H22.25H21.75V44V47.375C21.75 47.526 21.6953 47.6719 21.596 47.7858ZM27.0637 31.5H23.5V27.125V27.125C23.5 26.2019 23.8521 25.3135 24.4845 24.6411C25.1153 23.9706 25.9774 23.5652 26.896 23.507L27.1324 23.5H42.875C43.7981 23.5 44.6865 23.8521 45.3589 24.4845C46.0294 25.1153 46.4348 25.9774 46.493 26.8959L46.5 27.1324V31.5H42.9363C42.8473 31.1557 42.6678 30.8397 42.414 30.586C42.0962 30.2681 41.6805 30.0666 41.2341 30.0139L41.2197 30.0123L41.2054 30.0114L41.0299 30.0009L41.0149 30H41H38H37.9999C37.5101 30.0001 37.0373 30.1799 36.6712 30.5054C36.373 30.7706 36.1625 31.1175 36.0637 31.5H33.9363C33.8473 31.1557 33.6678 30.8397 33.414 30.586C33.0962 30.2681 32.6805 30.0666 32.2341 30.0139L32.2197 30.0123L32.2054 30.0114L32.0299 30.0009L32.0149 30H32H29H28.9999C28.5101 30.0001 28.0373 30.1799 27.6712 30.5054C27.373 30.7706 27.1625 31.1175 27.0637 31.5Z" fill="#115177" stroke="#115177"/>
</svg>
