<svg width="69" height="69" viewBox="0 0 69 69" fill="none" xmlns="http://www.w3.org/2000/svg">
<circle cx="34.5" cy="34.5" r="32" stroke="#115177" stroke-width="5"/>
<path d="M36.5 30.4205V30.6961L36.733 30.8432L48.5 38.2756V40.3178L37.1505 36.7342L36.5 36.5288V37.211V45.251V45.5453L36.7573 45.6881L41 48.0443V49.3767L34.8585 48.0119L34.75 47.9878L34.6415 48.0119L28.5 49.3767V48.0442L32.7429 45.6866L33 45.5437V45.2495V37.2095V36.5272L32.3494 36.7327L21 40.3177V38.2756L32.767 30.8432L33 30.6961V30.4205V22.25C33 21.7859 33.1844 21.3408 33.5126 21.0126C33.8408 20.6844 34.2859 20.5 34.75 20.5C35.2141 20.5 35.6592 20.6844 35.9874 21.0126C36.3156 21.3408 36.5 21.7859 36.5 22.25V30.4205Z" fill="#115177" stroke="#115177"/>
</svg>
