<svg width="32" height="32" viewBox="0 0 32 32" fill="none" xmlns="http://www.w3.org/2000/svg">
<circle cx="16" cy="16" r="16" fill="#115177"/>
<path d="M16 5C9.94999 5 5 9.95884 5 16.0663C5 21.5884 9.02599 26.1717 14.284 27V19.2691H11.49V16.0663H14.284V13.6255C14.284 10.8534 15.923 9.32932 18.442 9.32932C19.641 9.32932 20.895 9.53916 20.895 9.53916V12.2671H19.509C18.145 12.2671 17.716 13.1175 17.716 13.99V16.0663H20.774L20.279 19.2691H17.716V27C20.3081 26.589 22.6684 25.2611 24.3709 23.2561C26.0734 21.2511 27.0059 18.701 27 16.0663C27 9.95884 22.05 5 16 5Z" fill="white"/>
</svg>
