<svg width="32" height="32" viewBox="0 0 32 32" fill="none" xmlns="http://www.w3.org/2000/svg">
<circle cx="16" cy="16" r="16" fill="#115177"/>
<path fill-rule="evenodd" clip-rule="evenodd" d="M7 8.50382C7 8.10498 7.15844 7.72248 7.44046 7.44046C7.72248 7.15844 8.10498 7 8.50382 7H23.4945C23.6922 6.99968 23.888 7.03834 24.0707 7.11378C24.2533 7.18922 24.4194 7.29996 24.5592 7.43964C24.699 7.57933 24.81 7.74522 24.8856 7.92783C24.9612 8.11044 25.0001 8.30617 25 8.50382V23.4945C25.0002 23.6922 24.9614 23.888 24.8859 24.0707C24.8104 24.2534 24.6996 24.4194 24.5598 24.5593C24.4201 24.6991 24.2541 24.81 24.0715 24.8856C23.8888 24.9612 23.6931 25.0001 23.4954 25H8.50382C8.30627 25 8.11065 24.9611 7.92814 24.8855C7.74564 24.8098 7.57982 24.699 7.44017 24.5593C7.30052 24.4195 7.18976 24.2536 7.11424 24.0711C7.03871 23.8886 6.99989 23.6929 7 23.4954V8.50382ZM14.1247 13.8629H16.5621V15.0869C16.9139 14.3833 17.8139 13.75 19.1664 13.75C21.7592 13.75 22.3736 15.1515 22.3736 17.7231V22.4865H19.7497V18.3089C19.7497 16.8444 19.3979 16.018 18.5045 16.018C17.2649 16.018 16.7495 16.909 16.7495 18.3089V22.4865H14.1247V13.8629ZM9.62473 22.3745H12.2495V13.75H9.62473V22.3736V22.3745ZM12.625 10.9371C12.6299 11.1618 12.59 11.3853 12.5074 11.5943C12.4248 11.8034 12.3013 11.9939 12.1441 12.1546C11.9869 12.3153 11.7992 12.4429 11.592 12.5301C11.3848 12.6173 11.1623 12.6622 10.9375 12.6622C10.7127 12.6622 10.4902 12.6173 10.283 12.5301C10.0758 12.4429 9.88809 12.3153 9.7309 12.1546C9.57371 11.9939 9.4502 11.8034 9.36762 11.5943C9.28504 11.3853 9.24505 11.1618 9.25 10.9371C9.25971 10.496 9.44177 10.0762 9.75718 9.76765C10.0726 9.45911 10.4963 9.28634 10.9375 9.28634C11.3787 9.28634 11.8024 9.45911 12.1178 9.76765C12.4332 10.0762 12.6153 10.496 12.625 10.9371Z" fill="white"/>
</svg>
