<svg width="32" height="32" viewBox="0 0 32 32" fill="none" xmlns="http://www.w3.org/2000/svg">
<circle cx="16" cy="16" r="16" fill="#115177"/>
<path d="M18.88 16C18.88 16.5696 18.7111 17.1264 18.3946 17.6C18.0782 18.0737 17.6284 18.4428 17.1021 18.6608C16.5759 18.8788 15.9968 18.9358 15.4381 18.8247C14.8795 18.7135 14.3663 18.4392 13.9635 18.0365C13.5608 17.6337 13.2865 17.1205 13.1753 16.5619C13.0642 16.0032 13.1212 15.4241 13.3392 14.8979C13.5572 14.3716 13.9263 13.9218 14.4 13.6054C14.8736 13.2889 15.4304 13.12 16 13.12C16.7631 13.1224 17.4943 13.4266 18.0338 13.9662C18.5734 14.5057 18.8776 15.2369 18.88 16ZM25 12.04V19.96C25 21.2967 24.469 22.5786 23.5238 23.5238C22.5786 24.469 21.2967 25 19.96 25H12.04C10.7033 25 9.42137 24.469 8.47618 23.5238C7.531 22.5786 7 21.2967 7 19.96V12.04C7 10.7033 7.531 9.42137 8.47618 8.47618C9.42137 7.531 10.7033 7 12.04 7H19.96C21.2967 7 22.5786 7.531 23.5238 8.47618C24.469 9.42137 25 10.7033 25 12.04ZM20.32 16C20.32 15.1456 20.0666 14.3104 19.5919 13.5999C19.1173 12.8895 18.4426 12.3358 17.6532 12.0088C16.8638 11.6819 15.9952 11.5963 15.1572 11.763C14.3192 11.9297 13.5495 12.3411 12.9453 12.9453C12.3411 13.5495 11.9297 14.3192 11.763 15.1572C11.5963 15.9952 11.6819 16.8638 12.0088 17.6532C12.3358 18.4426 12.8895 19.1173 13.5999 19.5919C14.3104 20.0666 15.1456 20.32 16 20.32C17.1457 20.32 18.2445 19.8649 19.0547 19.0547C19.8649 18.2445 20.32 17.1457 20.32 16ZM21.76 11.32C21.76 11.1064 21.6967 10.8976 21.578 10.72C21.4593 10.5424 21.2906 10.404 21.0933 10.3222C20.896 10.2405 20.6788 10.2191 20.4693 10.2608C20.2598 10.3024 20.0674 10.4053 19.9163 10.5563C19.7653 10.7074 19.6624 10.8998 19.6208 11.1093C19.5791 11.3188 19.6005 11.536 19.6822 11.7333C19.764 11.9306 19.9024 12.0993 20.08 12.218C20.2576 12.3367 20.4664 12.4 20.68 12.4C20.9664 12.4 21.2411 12.2862 21.4437 12.0837C21.6462 11.8811 21.76 11.6064 21.76 11.32Z" fill="white"/>
</svg>
