<svg width="56" height="56" viewBox="0 0 56 56" fill="none" xmlns="http://www.w3.org/2000/svg">
<path d="M27.9999 0C35.7233 0 41.9999 6.20667 41.9999 13.8833C41.9999 24.29 27.9999 39.6667 27.9999 39.6667C27.9999 39.6667 13.9999 24.29 13.9999 13.8833C13.9999 6.20667 20.2766 0 27.9999 0ZM27.9999 9.33333C26.7622 9.33333 25.5753 9.825 24.7001 10.7002C23.8249 11.5753 23.3333 12.7623 23.3333 14C23.3333 15.2377 23.8249 16.4247 24.7001 17.2998C25.5753 18.175 26.7622 18.6667 27.9999 18.6667C29.2376 18.6667 30.4246 18.175 31.2997 17.2998C32.1749 16.4247 32.6666 15.2377 32.6666 14C32.6666 12.7623 32.1749 11.5753 31.2997 10.7002C30.4246 9.825 29.2376 9.33333 27.9999 9.33333M46.6666 39.6667C46.6666 44.8233 38.3133 49 27.9999 49C17.6866 49 9.33325 44.8233 9.33325 39.6667C9.33325 36.6567 12.1799 33.9733 16.5899 32.27L18.0833 34.3933C15.5633 35.4433 13.9999 36.89 13.9999 38.5C13.9999 41.72 20.2766 44.3333 27.9999 44.3333C35.7233 44.3333 41.9999 41.72 41.9999 38.5C41.9999 36.89 40.4366 35.4433 37.9166 34.3933L39.4099 32.27C43.8199 33.9733 46.6666 36.6567 46.6666 39.6667Z" fill="#BC74A5"/>
<circle cx="28" cy="28" r="28" fill="url(#paint0_linear_328_13771)"/>
<path d="M28.0001 12.4445C33.149 12.4445 37.3334 16.5822 37.3334 21.7C37.3334 28.6378 28.0001 38.8889 28.0001 38.8889C28.0001 38.8889 18.6668 28.6378 18.6668 21.7C18.6668 16.5822 22.8512 12.4445 28.0001 12.4445ZM28.0001 18.6667C27.175 18.6667 26.3837 18.9945 25.8002 19.5779C25.2168 20.1614 24.889 20.9527 24.889 21.7778C24.889 22.6029 25.2168 23.3942 25.8002 23.9777C26.3837 24.5611 27.175 24.8889 28.0001 24.8889C28.8252 24.8889 29.6165 24.5611 30.2 23.9777C30.7834 23.3942 31.1112 22.6029 31.1112 21.7778C31.1112 20.9527 30.7834 20.1614 30.2 19.5779C29.6165 18.9945 28.8252 18.6667 28.0001 18.6667M40.4446 38.8889C40.4446 42.3267 34.8757 45.1111 28.0001 45.1111C21.1246 45.1111 15.5557 42.3267 15.5557 38.8889C15.5557 36.8822 17.4534 35.0933 20.3934 33.9578L21.389 35.3733C19.709 36.0733 18.6668 37.0378 18.6668 38.1111C18.6668 40.2578 22.8512 42 28.0001 42C33.149 42 37.3334 40.2578 37.3334 38.1111C37.3334 37.0378 36.2912 36.0733 34.6112 35.3733L35.6068 33.9578C38.5468 35.0933 40.4446 36.8822 40.4446 38.8889Z" fill="white"/>
<defs>
<linearGradient id="paint0_linear_328_13771" x1="51.6287" y1="4.33804" x2="-17.8229" y2="16.6137" gradientUnits="userSpaceOnUse">
<stop offset="0.40892" stop-color="#115177"/>
<stop offset="1" stop-color="#01CFC9"/>
</linearGradient>
</defs>
</svg>
