<svg width="56" height="56" viewBox="0 0 56 56" fill="none" xmlns="http://www.w3.org/2000/svg">
<circle cx="28" cy="28" r="28" fill="url(#paint0_linear_333_13904)"/>
<g clip-path="url(#clip0_333_13904)">
<path d="M16.1728 17.6896C15.8301 17.7698 16.0489 17.7552 15.7645 17.7917C14.5468 18.0542 15.451 18.2875 16.1728 17.6896ZM37.5885 18.1782C37.676 18.1198 37.9822 17.8209 37.027 17.5292C37.0853 17.8282 36.8301 17.799 36.8301 17.9667C37.5374 18.6084 37.8291 19.724 38.7333 19.9573C38.9083 19.1552 37.9312 18.7615 37.5885 18.1782ZM15.5239 17.4563C15.6333 18.1052 16.1218 16.7709 16.1291 16.2969C15.9395 16.4063 15.7499 16.5157 15.553 16.6032C16.0124 16.8365 15.6114 17.0844 15.1155 17.4563C14.1093 18.7105 16.0562 16.4792 15.5239 17.4563ZM27.9999 9.33337C17.6895 9.33337 9.33325 17.6896 9.33325 28C9.33325 38.3032 17.6895 46.6667 27.9999 46.6667C38.3103 46.6667 46.6666 38.3032 46.6666 28C46.6666 17.6896 38.3103 9.33337 27.9999 9.33337ZM28.4958 15.5896L28.5833 15.6188C28.2333 16.0709 30.4062 17.3907 28.8458 17.5C27.3874 17.9157 29.4583 17.1209 28.328 17.2594C28.926 16.4282 27.8541 16.4136 28.4958 15.5896ZM19.6437 16.7855C19.1187 16.348 17.4708 17.3834 18.0468 17.1355C19.476 16.574 18.1416 17.1938 18.477 17.8646C18.1708 18.499 18.3749 17.2375 17.6166 17.9886C17.0697 18.1125 15.728 19.3521 15.8958 18.973C15.852 19.5636 14.2989 20.2636 14.0874 21.248C13.577 22.6115 13.9635 21.1969 13.8687 20.6646C13.1395 19.7386 11.8124 22.2323 12.2062 23.2167C12.8697 22.05 12.8187 23.0927 12.3374 23.6105C12.826 24.5073 11.8926 25.674 12.8187 26.3375C13.227 26.4323 14.0437 24.9667 13.6864 26.4907C13.9343 25.1709 14.3718 26.8042 15.0791 26.4396C15.1228 27.1323 15.553 26.8115 15.6478 27.65C16.8291 27.5625 17.9083 29.5605 16.501 29.9396C16.7124 29.8813 17.128 30.2532 17.6093 29.9688C18.426 30.6177 20.577 30.698 20.6353 32.3021C19.1551 33.0094 20.2708 34.949 18.9874 35.6417C17.5145 35.423 18.4843 37.4573 17.8645 37.224C18.1124 38.6896 16.377 37.0344 17.0478 37.8438C18.2801 38.6021 16.5083 38.449 17.0624 39.0032C16.4426 38.8719 17.4489 40.1552 17.6166 40.6292C18.5062 42.073 16.851 40.3084 16.3624 39.8271C15.8958 38.8938 14.7947 37.1073 14.4885 35.6417C14.3135 33.5125 12.6655 32.0834 12.2864 30.0052C11.9072 28.8459 13.3291 26.9865 12.5635 26.3375C11.8999 25.8198 12.1697 24.048 11.776 23.1146C12.7603 18.849 15.8885 15.2542 19.6437 13.125C19.2572 13.4094 21.853 12.3886 21.5541 12.6365C21.4739 12.8188 23.0708 11.9438 24.0333 11.8125C23.9312 11.8271 21.5322 12.6875 22.1958 12.5709C21.1676 13.074 22.0937 12.7896 22.6041 12.5344C21.5833 13.2855 20.7958 13.074 19.6364 13.7375C18.4697 14.0438 18.7103 15.2542 17.8791 15.8594C18.3676 15.9469 19.5926 14.598 20.3072 14.124C21.9478 13.3292 19.476 15.5677 21.0364 14.6052C20.5114 15.0938 20.6208 15.874 20.2999 16.0927C20.1395 16.049 20.9343 16.4719 19.6437 16.7855ZM22.1958 13.4313C22.028 13.6573 21.7947 14.1459 21.6562 13.8469C21.4666 13.9417 21.3937 14.35 21.0364 14.0219C21.2478 13.8688 21.4666 13.5042 21.051 13.7302C21.2405 13.5261 22.9322 12.95 22.8374 12.7313C23.1364 12.5417 23.1072 12.4469 22.7645 12.5636C22.5895 12.5052 23.1801 12.0094 23.9676 11.9438C24.077 11.9438 24.1208 12.0167 23.9239 11.9948C22.7353 12.3594 23.2458 12.2573 24.0478 11.9948C23.7416 12.1698 23.5301 12.2209 23.4791 12.3011C24.2812 12.0094 23.4353 12.5125 23.6176 12.4761C23.3916 12.5927 23.6541 12.6292 23.2166 12.7969C23.2968 12.7313 22.502 13.2709 22.976 13.1105C22.5166 13.548 22.3124 13.5552 22.1958 13.4313ZM22.8958 14.474C22.9103 13.774 23.9166 13.3292 23.7926 13.2927C25.0322 12.7094 23.3624 13.3146 24.3395 12.7896C24.7041 12.7532 25.477 11.5865 26.5489 11.5136C27.7301 11.1563 27.1833 11.5355 28.0583 11.2L27.8833 11.3459C27.7301 11.3677 27.9197 11.6375 27.3655 12.0459C27.3072 12.6802 26.3083 12.3886 26.8041 13.0667C26.4833 12.6073 26.002 13.0521 26.6072 13.0959C25.9583 13.5917 24.4489 13.6792 23.727 14.5032C23.2603 15.174 22.8301 14.9625 22.8958 14.474ZM28.0801 16.8073C27.5843 18.0032 27.103 16.6323 27.978 16.4136C28.1968 16.5302 28.2843 16.5667 28.0801 16.8073ZM26.2135 14.4157C26.0676 13.8761 26.1843 14.1605 27.052 13.9052C27.6499 14.3355 26.5197 14.6198 26.2135 14.4157ZM39.7905 35.8167C39.1051 34.6355 40.6218 33.5417 41.1322 32.55C41.0666 33.7094 40.9208 34.8542 39.7905 35.8167ZM42.3718 22.3198C41.628 22.3782 40.9572 22.5532 40.2864 22.1302C38.7405 20.4386 40.5708 24.0407 41.0812 22.5677C42.9187 23.2677 41.052 26.2865 39.8926 25.973C39.2437 24.573 38.4416 23.0344 37.027 22.349C38.1135 23.5521 38.653 25.0323 39.8197 26.1188C39.8999 27.6355 41.4385 25.5646 41.3437 26.7386C41.4895 28.7584 39.0614 29.9688 39.4843 31.9959C40.3885 33.8407 37.7416 34.1761 38.0405 35.8313C36.976 37.0198 35.8385 38.624 33.928 38.3688C33.928 37.3625 33.4176 36.5094 33.301 35.474C32.2655 34.1615 34.3947 32.7542 33.0749 31.3834C31.551 31.0407 33.3885 28.9407 31.8208 29.1375C30.8801 28.1969 29.502 29.1084 28.153 29.1157C26.4614 29.2761 24.7187 27.0375 25.4697 25.4552C24.8718 23.8073 27.3655 23.3261 27.4312 21.875C28.627 20.8761 30.326 21 31.9447 20.7667C31.828 21.9261 33.053 21.9334 33.9791 22.3198C34.4968 21.0657 36.1082 22.524 37.2093 21.7292C37.5885 19.8771 36.1374 20.9927 35.3062 20.4021C34.2999 18.9292 37.4572 19.6438 37.1291 18.8709C35.9041 18.8636 36.5968 17.3615 35.7291 18.2C36.5093 18.3386 35.5905 18.9511 35.6124 18.2511C34.4312 17.9084 35.5687 19.5927 34.9708 19.7532C34.0593 19.374 34.4895 20.1834 34.5843 20.3073C34.1905 21.1605 33.7093 19.0532 32.5937 19.1115C31.4853 18.098 32.1562 19.5709 33.1187 19.8115C32.9145 19.8698 33.2353 20.7084 32.9801 20.3511C32.1853 19.2573 30.676 18.5282 29.7791 19.8698C29.6843 21.124 27.1322 21.4813 27.5405 20.0157C26.9426 18.499 29.3926 19.9719 29.1666 18.7615C27.5916 17.7188 29.5968 18.0542 30.1291 17.0771C31.3395 17.1136 30.1801 16.0855 30.7489 15.7865C30.6905 16.9021 31.6749 16.6907 32.4551 16.4792C32.2655 15.8375 32.9218 15.8594 32.5208 15.3271C34.3291 14.6052 31.1426 15.6625 31.7843 14.0802C31.0041 13.5407 31.4562 15.2688 31.7843 15.4511C31.8062 15.9834 31.3541 16.6396 30.7343 15.524C29.8301 16.1146 29.9249 14.9261 29.8666 15.05C29.7645 14.5907 30.552 14.5688 30.5593 13.7667C30.4937 13.2563 30.5083 12.9865 30.8728 12.9573C30.902 13.0302 32.3676 13.0521 32.8853 13.6573C31.4708 13.373 32.6739 13.8907 33.3083 14.1823C32.6301 13.65 33.578 14.1823 33.0239 13.5771C33.2426 13.6209 32.4187 12.7459 33.2645 13.5115C32.8051 12.9646 34.1614 13.125 33.3593 12.7167C34.5333 13.0448 33.8405 12.7459 33.1478 12.4469C31.2374 11.3094 36.5239 13.9855 34.3655 12.7969C35.7437 13.0959 31.4197 11.7323 33.3885 12.3302C32.6374 12.0021 33.3666 12.1844 34.0447 12.3959C32.827 12.0167 31.0041 11.3094 31.077 11.2802C31.4999 11.3094 31.9155 11.4042 32.3166 11.5209C33.5635 11.8927 31.9593 11.4334 32.302 11.4407C36.5895 12.5417 40.3447 15.4146 42.627 19.1698C43.1593 19.7313 44.6103 23.4427 43.852 21.7948C44.1947 23.1073 44.2458 24.5219 44.428 25.8636C44.0489 25.4407 43.626 23.8802 43.2614 23.0125C43.1082 23.348 42.9333 22.5386 42.3718 22.3198Z" fill="white"/>
</g>
<defs>
<linearGradient id="paint0_linear_333_13904" x1="51.6287" y1="4.33804" x2="-17.8229" y2="16.6137" gradientUnits="userSpaceOnUse">
<stop offset="0.40892" stop-color="#115177"/>
<stop offset="1" stop-color="#01CFC9"/>
</linearGradient>
<clipPath id="clip0_333_13904">
<rect width="37.3333" height="37.3333" fill="white" transform="translate(9.33325 9.33337)"/>
</clipPath>
</defs>
</svg>
