<svg width="56" height="56" viewBox="0 0 56 56" fill="none" xmlns="http://www.w3.org/2000/svg">
<circle cx="28" cy="28" r="28" fill="url(#paint0_linear_328_13873)"/>
<path d="M41.6586 15.9142C41.4922 15.7488 41.282 15.6342 41.0527 15.5841C40.8234 15.5339 40.5844 15.5502 40.3641 15.6309L13.24 25.4823C13.0061 25.5709 12.8047 25.7285 12.6626 25.9342C12.5204 26.1398 12.4443 26.3838 12.4443 26.6337C12.4443 26.8835 12.5204 27.1275 12.6626 27.3332C12.8047 27.5388 13.0061 27.6964 13.24 27.785L23.8307 32.0088L31.6474 24.177L33.3858 25.9133L25.5321 33.7574L29.7733 44.3353C29.8647 44.5644 30.0229 44.7609 30.2273 44.8992C30.4317 45.0375 30.673 45.1113 30.92 45.1111C31.1691 45.106 31.4109 45.0256 31.6134 44.8805C31.8158 44.7354 31.9696 44.5325 32.0542 44.2984L41.9175 17.2072C42.0015 16.9893 42.0218 16.7521 41.976 16.5231C41.9301 16.2942 41.8201 16.083 41.6586 15.9142Z" fill="white"/>
<defs>
<linearGradient id="paint0_linear_328_13873" x1="51.6287" y1="4.33804" x2="-17.8229" y2="16.6137" gradientUnits="userSpaceOnUse">
<stop offset="0.40892" stop-color="#115177"/>
<stop offset="1" stop-color="#01CFC9"/>
</linearGradient>
</defs>
</svg>
