<svg width="57" height="56" viewBox="0 0 57 56" fill="none" xmlns="http://www.w3.org/2000/svg">
<g clip-path="url(#clip0_74_12776)">
<path d="M18.2972 39.2769L19.5735 42.5954C15.8626 43.2988 13.0469 46.5642 13.0469 50.4767V52.0001H46.4272V50.4767C46.4272 46.0526 42.8278 42.4532 38.4038 42.4532H37.9501L36.7284 39.2769H18.2972Z" fill="#BC74A5"/>
<path d="M44.2608 25.2633V0H32.3563L28.4322 3.92408C25.2062 1.37191 20.6193 1.12796 17.1264 3.44247L16.4444 3.89433L16.4443 7.70486L26.7783 18.3609H30.9109L31.3628 17.6789C33.7555 14.0678 33.414 9.28752 30.6144 6.05051L33.6183 3.04689H41.2139V23.8783L44.2608 25.2633Z" fill="#BC74A5"/>
<path d="M47.8152 30.2253L40.1437 26.7383H21.378L12.7309 19.4216C11.2792 18.1932 9.47776 17.5356 7.59732 17.5356C7.37327 17.5356 7.14821 17.545 6.92244 17.5638C4.8015 17.7405 2.87627 18.7327 1.50162 20.3574L0.517578 21.5204L17.9012 36.2296H38.088L51.1413 42.163L51.7717 40.776C53.5898 36.7764 51.8148 32.0433 47.8152 30.2253Z" fill="#BC74A5"/>
</g>
<defs>
<clipPath id="clip0_74_12776">
<rect width="56" height="56" fill="white" transform="translate(0.5)"/>
</clipPath>
</defs>
</svg>
