<svg width="50" height="48" viewBox="0 0 50 48" fill="none" xmlns="http://www.w3.org/2000/svg">
<path d="M10.1673 21.6665H0.833984V47.3332H10.1673V21.6665Z" fill="#BC74A5"/>
<path d="M35.834 3.58317C37.3507 1.80984 39.7073 0.666504 42.134 0.666504C46.4507 0.666504 49.834 4.04984 49.834 8.3665C49.834 13.6632 43.044 19.7998 35.834 26.3332C28.624 19.7765 21.834 13.6398 21.834 8.3665C21.834 4.04984 25.2173 0.666504 29.534 0.666504C31.9607 0.666504 34.3173 1.80984 35.834 3.58317Z" fill="#BC74A5"/>
<path d="M45.1673 35.6665H28.834L23.9573 33.9632L24.7273 31.7698L28.834 33.3332H35.414C36.9307 33.3332 38.1673 32.0965 38.1673 30.5798C38.1673 29.4365 37.444 28.4098 36.3707 27.9898L19.4307 21.6665H14.834V42.7132L31.1673 47.3332L49.8573 40.3332C49.834 37.7665 47.7573 35.6665 45.1673 35.6665Z" fill="#BC74A5"/>
</svg>
