<svg width="49" height="50" viewBox="0 0 49 50" fill="none" xmlns="http://www.w3.org/2000/svg">
<g clip-path="url(#clip0_74_12746)">
<path d="M32.567 22.8287C34.4897 20.2447 35.5059 17.1764 35.5059 13.9556V5.76367C35.5059 4.97087 34.8631 4.32812 34.0703 4.32812C32.2564 4.32812 30.6255 3.32018 29.8141 1.69772L29.6121 1.29357C29.369 0.807207 28.8719 0.5 28.3281 0.5H20.6719C20.1281 0.5 19.631 0.807207 19.3879 1.29357L19.1859 1.69772C18.3745 3.32018 16.7436 4.32812 14.9297 4.32812C14.1369 4.32812 13.4941 4.97087 13.4941 5.76367V13.9556C13.4941 17.1764 14.5103 20.2447 16.433 22.8288C18.3557 25.4129 21.0025 27.268 24.0874 28.1934C24.222 28.2338 24.3609 28.254 24.5 28.254C24.6391 28.254 24.7779 28.2338 24.9126 28.1934C27.9975 27.2679 30.6443 25.4128 32.567 22.8287ZM29.5754 12.6851L24.1616 18.0988C23.8813 18.3792 23.5138 18.5194 23.1466 18.5194C22.7792 18.5194 22.4118 18.3793 22.1315 18.0988L19.4247 15.392C18.864 14.8314 18.864 13.9225 19.4247 13.3618C19.9852 12.8013 20.8942 12.8013 21.4548 13.3618L23.1467 15.0537L27.5455 10.655C28.106 10.0943 29.015 10.0943 29.5756 10.655C30.1361 11.2156 30.1361 12.1246 29.5754 12.6851Z" fill="#BC74A5"/>
<path d="M46.0483 13.6124C44.4844 13.6554 43.2579 14.9777 43.2579 16.5422V28.4454L37.8318 37.7755C37.573 38.2205 37.0971 38.4942 36.5823 38.4942C35.4681 38.4942 34.7729 37.2868 35.3322 36.3232L39.1075 29.8184C40.0594 28.1698 39.4944 26.0616 37.8458 25.1097C36.2645 24.1967 34.2456 24.6752 33.2422 26.2009L27.8329 34.4258C26.9086 35.8312 26.416 37.4765 26.416 39.1587V48.0645C26.416 48.8573 27.0588 49.5001 27.8516 49.5001H42.7794C43.5722 49.5001 44.2149 48.8573 44.2149 48.0645V42.8009L49.0001 31.3165V16.4825C49.0001 14.87 47.6708 13.568 46.0483 13.6124Z" fill="#BC74A5"/>
<path d="M15.7579 26.2009C14.7546 24.6753 12.7357 24.1968 11.1544 25.1097C9.50571 26.0616 8.94078 28.1698 9.89274 29.8184L13.668 36.3232C14.2273 37.2868 13.532 38.4941 12.418 38.4942C11.9032 38.4942 11.4272 38.2204 11.1685 37.7755L5.74219 28.4454V16.5422C5.74219 14.9777 4.51566 13.6554 2.95177 13.6124C1.32932 13.568 0 14.87 0 16.4825V31.3165L4.78516 42.8009V48.0645C4.78516 48.8573 5.4279 49.5001 6.2207 49.5001H21.1486C21.9414 49.5001 22.5841 48.8573 22.5841 48.0645V39.1587C22.5841 37.4765 22.0915 35.8312 21.1672 34.4258L15.7579 26.2009Z" fill="#BC74A5"/>
</g>
<defs>
<clipPath id="clip0_74_12746">
<rect width="49" height="49" fill="white" transform="translate(0 0.5)"/>
</clipPath>
</defs>
</svg>
