<svg width="50" height="50" viewBox="0 0 50 50" fill="none" xmlns="http://www.w3.org/2000/svg">
<g clip-path="url(#clip0_74_12767)">
<path d="M34.8643 6.33859C34.2778 6.36775 33.7096 6.03391 33.4684 5.46305L32.6325 3.48319C32.3245 2.75345 32.668 1.91305 33.3993 1.60576C34.1305 1.29883 34.9728 1.6409 35.2808 2.37064L36.1167 4.3505C36.4248 5.08024 36.0816 5.92063 35.35 6.22755C35.1915 6.29447 35.027 6.33036 34.8643 6.33859Z" fill="#BC74A5"/>
<path d="M40.7696 5.25851C40.5587 5.26898 40.3427 5.23346 40.1359 5.14524C39.4058 4.83495 39.066 3.99343 39.377 3.26519L40.226 1.27636C40.5371 0.548113 41.3808 0.209039 42.1109 0.519328C42.841 0.829242 43.1809 1.67113 42.8698 2.39937L42.0205 4.38821C41.7977 4.91009 41.3016 5.23197 40.7696 5.25851Z" fill="#BC74A5"/>
<path d="M44.169 10.0545C43.5776 10.0841 43.0052 9.74388 42.7678 9.16629C42.4669 8.43356 42.8183 7.59653 43.5525 7.29633L45.5889 6.46341C46.3231 6.16322 47.1624 6.51351 47.4633 7.24624C47.7643 7.97859 47.4132 8.81563 46.679 9.11582L44.6423 9.94874C44.4872 10.0123 44.3275 10.0463 44.169 10.0545Z" fill="#BC74A5"/>
<path d="M44.835 17.2491C43.045 12.5047 38.6946 9.4269 33.7513 9.4082C33.742 9.4082 33.7327 9.4082 33.7233 9.4082C31.127 9.4082 29.2391 10.7787 27.5725 11.9881C26.3063 12.907 25.2117 13.7018 24.0868 13.7122C22.9623 13.7018 21.8673 12.9074 20.6015 11.9881C18.9349 10.7783 17.047 9.4082 14.4507 9.4082C14.4413 9.4082 14.432 9.4082 14.4226 9.4082C9.47933 9.4269 5.12856 12.5047 3.33861 17.2491C1.31837 22.6052 3.38048 26.8475 5.37492 30.9504C5.67774 31.5736 5.99102 32.2185 6.28411 32.8559C6.74617 33.8608 7.19852 35.6649 7.67741 37.5749C8.80305 42.0658 10.079 47.1561 12.9273 48.8331C13.8989 49.4051 15.0028 49.5513 16.1199 49.2556C19.074 48.4742 20.0747 45.1198 20.9574 42.1601C21.8931 39.0239 22.572 37.1136 24.0872 37.0956C25.602 37.1136 26.2812 39.0239 27.2166 42.1601C28.0996 45.1198 29.1 48.4742 32.0541 49.2556C32.4302 49.355 32.8048 49.4047 33.1734 49.4047C33.8994 49.4047 34.6026 49.2126 35.2467 48.8331C38.095 47.1557 39.3713 42.0658 40.4969 37.5749C40.9754 35.6649 41.4278 33.8608 41.8899 32.8559C42.183 32.2181 42.4962 31.5736 42.7994 30.9501C44.7935 26.8475 46.8556 22.6052 44.835 17.2491ZM14.4555 18.0077C13.0809 18.0129 11.9414 18.8619 11.4069 20.2784C11.19 20.853 10.6431 21.207 10.0621 21.207C9.89392 21.207 9.72307 21.1775 9.55634 21.1147C8.81352 20.8358 8.43818 20.0092 8.71744 19.2683C9.67447 16.7325 11.8689 15.1512 14.4447 15.1411H14.4503C15.2413 15.1411 15.884 15.7792 15.887 16.5691C15.89 17.3606 15.2492 18.0047 14.4555 18.0077Z" fill="#BC74A5"/>
</g>
<defs>
<clipPath id="clip0_74_12767">
<rect width="49" height="49" fill="white" transform="translate(0.5 0.5)"/>
</clipPath>
</defs>
</svg>
