<svg width="50" height="50" viewBox="0 0 50 50" fill="none" xmlns="http://www.w3.org/2000/svg">
<g clip-path="url(#clip0_170_16171)">
<path d="M34.864 6.3384C34.2775 6.36756 33.7092 6.03372 33.4681 5.46287L32.6322 3.483C32.3241 2.75327 32.6677 1.91287 33.3989 1.60557C34.1302 1.29865 34.9724 1.64071 35.2805 2.37045L36.1164 4.35032C36.4244 5.08005 36.0812 5.92045 35.3496 6.22737C35.1911 6.29429 35.0266 6.33018 34.864 6.3384Z" fill="#115177"/>
<path d="M40.7697 5.25857C40.5588 5.26904 40.3427 5.23353 40.136 5.1453C39.4059 4.83501 39.0661 3.99349 39.3771 3.26525L40.2261 1.27642C40.5371 0.548174 41.3809 0.2091 42.111 0.519389C42.8411 0.829303 43.1809 1.67119 42.8699 2.39944L42.0205 4.38827C41.7977 4.91015 41.3016 5.23203 40.7697 5.25857Z" fill="#115177"/>
<path d="M44.1692 10.0547C43.5778 10.0842 43.0055 9.744 42.7681 9.16641C42.4671 8.43368 42.8185 7.59665 43.5528 7.29646L45.5891 6.46354C46.3233 6.16334 47.1626 6.51363 47.4635 7.24636C47.7645 7.97872 47.4134 8.81575 46.6792 9.11594L44.6425 9.94886C44.4874 10.0124 44.3277 10.0464 44.1692 10.0547Z" fill="#115177"/>
<path d="M44.8349 17.2489C43.045 12.5045 38.6946 9.42665 33.7513 9.40796C33.7419 9.40796 33.7326 9.40796 33.7232 9.40796C31.1269 9.40796 29.239 10.7785 27.5724 11.9878C26.3062 12.9067 25.2116 13.7015 24.0867 13.712C22.9622 13.7015 21.8672 12.9071 20.6014 11.9878C18.9348 10.7781 17.0469 9.40796 14.4506 9.40796C14.4413 9.40796 14.4319 9.40796 14.4226 9.40796C9.47927 9.42665 5.1285 12.5045 3.33855 17.2489C1.31831 22.6049 3.38042 26.8473 5.37486 30.9502C5.67768 31.5734 5.99095 32.2183 6.28405 32.8557C6.74611 33.8605 7.19846 35.6647 7.67735 37.5746C8.80299 42.0656 10.0789 47.1558 12.9272 48.8329C13.8988 49.4049 15.0028 49.551 16.1198 49.2553C19.0739 48.474 20.0747 45.1195 20.9573 42.1598C21.893 39.0237 22.5719 37.1133 24.0871 37.0954C25.6019 37.1133 26.2812 39.0237 27.2165 42.1598C28.0996 45.1195 29.0999 48.474 32.054 49.2553C32.4301 49.3548 32.8047 49.4045 33.1733 49.4045C33.8993 49.4045 34.6025 49.2123 35.2466 48.8329C38.0949 47.1554 39.3712 42.0656 40.4969 37.5746C40.9754 35.6647 41.4277 33.8605 41.8898 32.8557C42.1829 32.2179 42.4962 31.5734 42.7994 30.9498C44.7934 26.8473 46.8555 22.6049 44.8349 17.2489ZM14.4555 18.0074C13.0809 18.0127 11.9414 18.8617 11.4068 20.2781C11.19 20.8527 10.643 21.2068 10.0621 21.2068C9.89386 21.2068 9.72301 21.1772 9.55628 21.1144C8.81346 20.8355 8.43812 20.009 8.71738 19.268C9.67441 16.7323 11.8689 15.1509 14.4446 15.1408H14.4502C15.2413 15.1408 15.8839 15.779 15.8869 16.5689C15.8899 17.3603 15.2491 18.0044 14.4555 18.0074Z" fill="#115177"/>
</g>
<defs>
<clipPath id="clip0_170_16171">
<rect width="49" height="49" fill="white" transform="translate(0.5 0.5)"/>
</clipPath>
</defs>
</svg>
