<svg width="53" height="52" viewBox="0 0 53 52" fill="none" xmlns="http://www.w3.org/2000/svg">
<path d="M18.2967 39.2767L19.5731 42.5953C15.8622 43.2987 13.0464 46.564 13.0464 50.4765V52H46.4268V50.4765C46.4268 46.0525 42.8274 42.4531 38.4033 42.4531H37.9497L36.728 39.2767H18.2967Z" fill="#115177"/>
<path d="M44.2607 25.2633V0H32.3562L28.4321 3.92408C25.206 1.37191 20.6192 1.12796 17.1263 3.44247L16.4443 3.89433L16.4442 7.70486L26.7781 18.3609H30.9108L31.3627 17.6789C33.7554 14.0678 33.4138 9.28752 30.6143 6.05051L33.6182 3.04689H41.2138V23.8783L44.2607 25.2633Z" fill="#115177"/>
<path d="M47.8147 30.2255L40.1433 26.7386H21.3775L12.7304 19.4218C11.2787 18.1934 9.47727 17.5359 7.59683 17.5359C7.37279 17.5359 7.14772 17.5452 6.92195 17.564C4.80101 17.7407 2.87579 18.7329 1.50113 20.3576L0.51709 21.5206L17.9007 36.2298H38.0875L51.1408 42.1632L51.7712 40.7763C53.5893 36.7766 51.8144 32.0435 47.8147 30.2255Z" fill="#115177"/>
</svg>
