<svg width="50" height="48" viewBox="0 0 50 48" fill="none" xmlns="http://www.w3.org/2000/svg">
<path d="M10.1667 21.6667H0.833336V47.3334H10.1667V21.6667Z" fill="#115177"/>
<path d="M35.8333 3.58335C37.35 1.81002 39.7067 0.666687 42.1333 0.666687C46.45 0.666687 49.8333 4.05002 49.8333 8.36669C49.8333 13.6634 43.0433 19.8 35.8333 26.3334C28.6233 19.7767 21.8333 13.64 21.8333 8.36669C21.8333 4.05002 25.2167 0.666687 29.5333 0.666687C31.96 0.666687 34.3167 1.81002 35.8333 3.58335Z" fill="#115177"/>
<path d="M45.1667 35.6667H28.8333L23.9567 33.9634L24.7267 31.77L28.8333 33.3334H35.4133C36.93 33.3334 38.1667 32.0967 38.1667 30.58C38.1667 29.4367 37.4433 28.41 36.37 27.99L19.43 21.6667H14.8333V42.7134L31.1667 47.3334L49.8567 40.3334C49.8333 37.7667 47.7567 35.6667 45.1667 35.6667Z" fill="#115177"/>
</svg>
