<svg width="49" height="50" viewBox="0 0 49 50" fill="none" xmlns="http://www.w3.org/2000/svg">
<path d="M32.567 22.8287C34.4897 20.2447 35.5059 17.1764 35.5059 13.9556V5.76367C35.5059 4.97087 34.8631 4.32812 34.0703 4.32812C32.2564 4.32812 30.6255 3.32018 29.8141 1.69772L29.6121 1.29357C29.369 0.807207 28.8719 0.5 28.3281 0.5H20.6719C20.1281 0.5 19.631 0.807207 19.3879 1.29357L19.1859 1.69772C18.3745 3.32018 16.7436 4.32812 14.9297 4.32812C14.1369 4.32812 13.4941 4.97087 13.4941 5.76367V13.9556C13.4941 17.1764 14.5103 20.2447 16.433 22.8288C18.3557 25.4129 21.0025 27.268 24.0874 28.1934C24.222 28.2338 24.3609 28.254 24.5 28.254C24.6391 28.254 24.7779 28.2338 24.9126 28.1934C27.9975 27.2679 30.6443 25.4128 32.567 22.8287ZM29.5754 12.6851L24.1616 18.0988C23.8813 18.3792 23.5138 18.5194 23.1466 18.5194C22.7792 18.5194 22.4118 18.3793 22.1315 18.0988L19.4247 15.392C18.864 14.8314 18.864 13.9225 19.4247 13.3618C19.9852 12.8013 20.8942 12.8013 21.4548 13.3618L23.1467 15.0537L27.5455 10.655C28.106 10.0943 29.015 10.0943 29.5756 10.655C30.1361 11.2156 30.1361 12.1246 29.5754 12.6851Z" fill="#115177"/>
<path d="M46.0482 13.6123C44.4843 13.6553 43.2578 14.9776 43.2578 16.5421V28.4453L37.8317 37.7754C37.5729 38.2204 37.097 38.4941 36.5822 38.4941C35.468 38.4941 34.7728 37.2867 35.3321 36.3231L39.1074 29.8183C40.0593 28.1696 39.4944 26.0615 37.8457 25.1096C36.2644 24.1966 34.2455 24.6751 33.2422 26.2007L27.8328 34.4257C26.9085 35.8311 26.4159 37.4764 26.4159 39.1586V48.0644C26.4159 48.8572 27.0587 49.5 27.8515 49.5H42.7793C43.5721 49.5 44.2148 48.8572 44.2148 48.0644V42.8007L49 31.3164V16.4824C49 14.8698 47.6707 13.5679 46.0482 13.6123Z" fill="#115177"/>
<path d="M15.7579 26.2007C14.7546 24.6752 12.7357 24.1967 11.1544 25.1096C9.50571 26.0615 8.94078 28.1696 9.89274 29.8183L13.668 36.3231C14.2273 37.2867 13.532 38.494 12.418 38.4941C11.9032 38.4941 11.4272 38.2203 11.1685 37.7754L5.74219 28.4453V16.5421C5.74219 14.9776 4.51566 13.6553 2.95177 13.6123C1.32932 13.5679 0 14.8698 0 16.4824V31.3164L4.78516 42.8007V48.0644C4.78516 48.8572 5.4279 49.5 6.2207 49.5H21.1486C21.9414 49.5 22.5841 48.8572 22.5841 48.0644V39.1586C22.5841 37.4764 22.0915 35.8311 21.1672 34.4257L15.7579 26.2007Z" fill="#115177"/>
</svg>
