<svg width="50" height="48" viewBox="0 0 50 48" fill="none" xmlns="http://www.w3.org/2000/svg">
<path d="M9.66665 21.6667H0.333313V47.3334H9.66665V21.6667Z" fill="#115177"/>
<path d="M35.3333 3.58341C36.8499 1.81008 39.2066 0.666748 41.6333 0.666748C45.9499 0.666748 49.3333 4.05008 49.3333 8.36675C49.3333 13.6634 42.5433 19.8001 35.3333 26.3334C28.1233 19.7767 21.3333 13.6401 21.3333 8.36675C21.3333 4.05008 24.7166 0.666748 29.0333 0.666748C31.4599 0.666748 33.8166 1.81008 35.3333 3.58341Z" fill="#115177"/>
<path d="M44.6666 35.6667H28.3333L23.4566 33.9634L24.2266 31.7701L28.3333 33.3334H34.9133C36.43 33.3334 37.6666 32.0967 37.6666 30.5801C37.6666 29.4367 36.9433 28.4101 35.87 27.9901L18.93 21.6667H14.3333V42.7134L30.6666 47.3334L49.3566 40.3334C49.3333 37.7667 47.2566 35.6667 44.6666 35.6667Z" fill="#115177"/>
</svg>
