<svg width="49" height="50" viewBox="0 0 49 50" fill="none" xmlns="http://www.w3.org/2000/svg">
<g clip-path="url(#clip0_261_13605)">
<path d="M34.364 6.33834C33.7774 6.3675 33.2092 6.03366 32.9681 5.46281L32.1321 3.48294C31.8241 2.7532 32.1677 1.91281 32.8989 1.60551C33.6301 1.29859 34.4724 1.64065 34.7804 2.37039L35.6163 4.35025C35.9244 5.07999 35.5812 5.92039 34.8496 6.22731C34.6911 6.29423 34.5266 6.33012 34.364 6.33834Z" fill="#115177"/>
<path d="M40.2696 5.25851C40.0587 5.26898 39.8427 5.23346 39.6359 5.14524C38.9058 4.83495 38.566 3.99343 38.877 3.26519L39.726 1.27636C40.0371 0.548113 40.8808 0.209039 41.6109 0.519328C42.341 0.829242 42.6809 1.67113 42.3698 2.39937L41.5205 4.38821C41.2977 4.91009 40.8016 5.23197 40.2696 5.25851Z" fill="#115177"/>
<path d="M43.6693 10.0545C43.0778 10.0841 42.5055 9.74388 42.2681 9.16629C41.9671 8.43356 42.3186 7.59653 43.0528 7.29633L45.0891 6.46341C45.8233 6.16322 46.6626 6.51351 46.9636 7.24624C47.2645 7.97859 46.9135 8.81563 46.1792 9.11582L44.1425 9.94874C43.9874 10.0123 43.8278 10.0463 43.6693 10.0545Z" fill="#115177"/>
<path d="M44.335 17.2489C42.545 12.5045 38.1946 9.42665 33.2513 9.40796C33.242 9.40796 33.2327 9.40796 33.2233 9.40796C30.627 9.40796 28.7391 10.7785 27.0725 11.9878C25.8063 12.9067 24.7117 13.7015 23.5868 13.712C22.4623 13.7015 21.3673 12.9071 20.1015 11.9878C18.4349 10.7781 16.547 9.40796 13.9507 9.40796C13.9413 9.40796 13.932 9.40796 13.9226 9.40796C8.97933 9.42665 4.62856 12.5045 2.83861 17.2489C0.818374 22.6049 2.88048 26.8473 4.87492 30.9502C5.17774 31.5734 5.49102 32.2183 5.78411 32.8557C6.24617 33.8605 6.69852 35.6647 7.17741 37.5746C8.30305 42.0656 9.57897 47.1558 12.4273 48.8329C13.3989 49.4049 14.5028 49.551 15.6199 49.2553C18.574 48.474 19.5747 45.1195 20.4574 42.1598C21.3931 39.0237 22.072 37.1133 23.5872 37.0954C25.102 37.1133 25.7812 39.0237 26.7166 42.1598C27.5996 45.1195 28.6 48.474 31.5541 49.2553C31.9302 49.3548 32.3048 49.4045 32.6734 49.4045C33.3994 49.4045 34.1026 49.2123 34.7467 48.8329C37.595 47.1554 38.8713 42.0656 39.9969 37.5746C40.4754 35.6647 40.9278 33.8605 41.3899 32.8557C41.683 32.2179 41.9962 31.5734 42.2994 30.9498C44.2935 26.8473 46.3556 22.6049 44.335 17.2489ZM13.9555 18.0074C12.5809 18.0127 11.4414 18.8617 10.9069 20.2781C10.69 20.8527 10.1431 21.2068 9.56215 21.2068C9.39392 21.2068 9.22307 21.1772 9.05634 21.1144C8.31352 20.8355 7.93818 20.009 8.21744 19.268C9.17447 16.7323 11.3689 15.1509 13.9447 15.1408H13.9503C14.7413 15.1408 15.384 15.779 15.387 16.5689C15.39 17.3603 14.7492 18.0044 13.9555 18.0074Z" fill="#115177"/>
</g>
<defs>
<clipPath id="clip0_261_13605">
<rect width="49" height="49" fill="white" transform="translate(0 0.5)"/>
</clipPath>
</defs>
</svg>
