<svg width="52" height="52" viewBox="0 0 52 52" fill="none" xmlns="http://www.w3.org/2000/svg">
<path d="M17.7967 39.2769L19.073 42.5954C15.3621 43.2988 12.5464 46.5642 12.5464 50.4767V52.0001H45.9267V50.4767C45.9267 46.0526 42.3274 42.4532 37.9033 42.4532H37.4496L36.2279 39.2769H17.7967Z" fill="#115177"/>
<path d="M43.7607 25.2633V0H31.8562L27.9321 3.92408C24.706 1.37191 20.1192 1.12796 16.6263 3.44247L15.9443 3.89433L15.9442 7.70486L26.2781 18.3609H30.4108L30.8627 17.6789C33.2554 14.0678 32.9138 9.28752 30.1143 6.05051L33.1182 3.04689H40.7138V23.8783L43.7607 25.2633Z" fill="#115177"/>
<path d="M47.3147 30.2255L39.6433 26.7386H20.8775L12.2304 19.4218C10.7787 18.1934 8.97727 17.5359 7.09683 17.5359C6.87279 17.5359 6.64772 17.5452 6.42195 17.564C4.30101 17.7407 2.37579 18.7329 1.00113 20.3576L0.0170898 21.5206L17.4007 36.2298H37.5875L50.6408 42.1632L51.2712 40.7763C53.0893 36.7766 51.3144 32.0435 47.3147 30.2255V30.2255Z" fill="#115177"/>
</svg>
