<svg width="50" height="50" viewBox="0 0 50 50" fill="none" xmlns="http://www.w3.org/2000/svg">
<path d="M33.067 22.8287C34.9897 20.2447 36.0059 17.1764 36.0059 13.9556V5.76367C36.0059 4.97087 35.3631 4.32812 34.5703 4.32812C32.7564 4.32812 31.1255 3.32018 30.3141 1.69772L30.1121 1.29357C29.869 0.807207 29.3719 0.5 28.8281 0.5H21.1719C20.6281 0.5 20.131 0.807207 19.8879 1.29357L19.6859 1.69772C18.8745 3.32018 17.2436 4.32812 15.4297 4.32812C14.6369 4.32812 13.9941 4.97087 13.9941 5.76367V13.9556C13.9941 17.1764 15.0103 20.2447 16.933 22.8288C18.8557 25.4129 21.5025 27.268 24.5874 28.1934C24.722 28.2338 24.8609 28.254 25 28.254C25.1391 28.254 25.2779 28.2338 25.4126 28.1934C28.4975 27.2679 31.1443 25.4128 33.067 22.8287ZM30.0754 12.6851L24.6616 18.0988C24.3813 18.3792 24.0138 18.5194 23.6466 18.5194C23.2792 18.5194 22.9118 18.3793 22.6315 18.0988L19.9247 15.392C19.364 14.8314 19.364 13.9225 19.9247 13.3618C20.4852 12.8013 21.3942 12.8013 21.9548 13.3618L23.6467 15.0537L28.0455 10.655C28.606 10.0943 29.515 10.0943 30.0756 10.655C30.6361 11.2156 30.6361 12.1246 30.0754 12.6851V12.6851Z" fill="#115177"/>
<path d="M46.5482 13.6124C44.9843 13.6554 43.7578 14.9777 43.7578 16.5422V28.4454L38.3317 37.7755C38.0729 38.2205 37.597 38.4942 37.0822 38.4942C35.968 38.4942 35.2728 37.2868 35.8321 36.3232L39.6074 29.8184C40.5593 28.1698 39.9943 26.0616 38.3456 25.1097C36.7643 24.1967 34.7455 24.6752 33.7421 26.2009L28.3328 34.4258C27.4085 35.8312 26.9159 37.4765 26.9159 39.1587V48.0645C26.9159 48.8573 27.5586 49.5001 28.3514 49.5001H43.2792C44.0721 49.5001 44.7148 48.8573 44.7148 48.0645V42.8009L49.5 31.3165V16.4825C49.5 14.87 48.1706 13.568 46.5482 13.6124Z" fill="#115177"/>
<path d="M16.2579 26.2009C15.2546 24.6753 13.2357 24.1968 11.6544 25.1097C10.0057 26.0616 9.44078 28.1698 10.3927 29.8184L14.168 36.3232C14.7273 37.2868 14.032 38.4941 12.918 38.4942C12.4032 38.4942 11.9272 38.2204 11.6685 37.7755L6.24219 28.4454V16.5422C6.24219 14.9777 5.01566 13.6554 3.45177 13.6124C1.82932 13.568 0.5 14.87 0.5 16.4825V31.3165L5.28516 42.8009V48.0645C5.28516 48.8574 5.9279 49.5001 6.7207 49.5001H21.6486C22.4414 49.5001 23.0841 48.8574 23.0841 48.0645V39.1587C23.0841 37.4765 22.5915 35.8312 21.6672 34.4258L16.2579 26.2009Z" fill="#115177"/>
</svg>
