<svg width="57" height="56" viewBox="0 0 57 56" fill="none" xmlns="http://www.w3.org/2000/svg">
<path d="M37.8333 8.75C37.8333 8.28587 37.649 7.84075 37.3208 7.51256C36.9926 7.18437 36.5475 7 36.0833 7H20.9167L20.6787 7.01633C20.2597 7.07385 19.8757 7.28112 19.5978 7.59983C19.3198 7.91854 19.1667 8.32711 19.1667 8.75V16.3333H15.0833C13.0721 16.3333 11.1433 17.1323 9.72111 18.5544C8.29896 19.9766 7.5 21.9054 7.5 23.9167V39.0833C7.5 41.0946 8.29896 43.0234 9.72111 44.4456C11.1433 45.8677 13.0721 46.6667 15.0833 46.6667H41.9167C43.9279 46.6667 45.8567 45.8677 47.2789 44.4456C48.701 43.0234 49.5 41.0946 49.5 39.0833V23.9167C49.5 21.9054 48.701 19.9766 47.2789 18.5544C45.8567 17.1323 43.9279 16.3333 41.9167 16.3333H37.8333V8.75ZM22.6667 10.5H34.3333V16.3333H22.6667V10.5ZM27.3333 36.75V32.6667H23.25C22.7859 32.6667 22.3408 32.4823 22.0126 32.1541C21.6844 31.8259 21.5 31.3808 21.5 30.9167C21.5 30.4525 21.6844 30.0074 22.0126 29.6792C22.3408 29.351 22.7859 29.1667 23.25 29.1667H27.3333V25.0833C27.3333 24.6192 27.5177 24.1741 27.8459 23.8459C28.1741 23.5177 28.6192 23.3333 29.0833 23.3333C29.5475 23.3333 29.9926 23.5177 30.3208 23.8459C30.649 24.1741 30.8333 24.6192 30.8333 25.0833V29.1667H34.9167C35.3808 29.1667 35.8259 29.351 36.1541 29.6792C36.4823 30.0074 36.6667 30.4525 36.6667 30.9167C36.6667 31.3808 36.4823 31.8259 36.1541 32.1541C35.8259 32.4823 35.3808 32.6667 34.9167 32.6667H30.8333V36.75C30.8333 37.2141 30.649 37.6593 30.3208 37.9874C29.9926 38.3156 29.5475 38.5 29.0833 38.5C28.6192 38.5 28.1741 38.3156 27.8459 37.9874C27.5177 37.6593 27.3333 37.2141 27.3333 36.75V36.75Z" fill="#BC74A5"/>
</svg>
