<svg width="57" height="56" viewBox="0 0 57 56" fill="none" xmlns="http://www.w3.org/2000/svg">
<path d="M51.1333 24.0333L30.1333 5.36667C29.2 4.66667 28.0333 4.66667 27.1 5.36667L6.10001 24.0333C5.16668 24.9667 4.93335 26.3667 5.86668 27.3C6.80001 28.2333 8.20001 28.4667 9.13335 27.5333L9.83335 26.6V49C9.83335 50.4 10.7667 51.3333 12.1667 51.3333H44.8333C46.2333 51.3333 47.1667 50.4 47.1667 49V26.6L47.8667 27.3C48.8 28.2333 50.2 28 51.1333 27.0667C52.0667 26.3667 52.0667 24.7333 51.1333 24.0333ZM33.1667 35H30.8333V37.3333C30.8333 38.7333 29.9 39.6667 28.5 39.6667C27.1 39.6667 26.1667 38.7333 26.1667 37.3333V35H23.8333C22.4333 35 21.5 34.0667 21.5 32.6667C21.5 31.2667 22.4333 30.3333 23.8333 30.3333H26.1667V28C26.1667 26.6 27.1 25.6667 28.5 25.6667C29.9 25.6667 30.8333 26.6 30.8333 28V30.3333H33.1667C34.5667 30.3333 35.5 31.2667 35.5 32.6667C35.5 34.0667 34.5667 35 33.1667 35Z" fill="#BC74A5"/>
</svg>
