<svg width="56" height="56" viewBox="0 0 56 56" fill="none" xmlns="http://www.w3.org/2000/svg">
<g clip-path="url(#clip0_274_13383)">
<path fill-rule="evenodd" clip-rule="evenodd" d="M22.5003 11.991C21.0417 12.2893 20.2222 12.6938 20.2222 13.1157V14H35.7774V18.8222C35.7774 19.2348 35.9413 19.6305 36.233 19.9222C36.5248 20.2139 36.9204 20.3778 37.333 20.3778C37.7455 20.3778 38.1412 20.2139 38.4329 19.9222C38.7246 19.6305 38.8885 19.2348 38.8885 18.8222V14H35.7778V13.1157C35.7778 12.6938 34.9584 12.2893 33.4997 11.991C32.0411 11.6927 30.0628 11.5251 28 11.5251C25.9372 11.5251 23.9589 11.6927 22.5003 11.991ZM38.8889 14H49.7774V45.1111C49.7774 45.9363 49.4496 46.7276 48.8662 47.311C48.2827 47.8945 47.4914 48.2222 46.6663 48.2222H9.33297C8.50786 48.2222 7.71653 47.8945 7.13309 47.311C6.54964 46.7276 6.22186 45.9363 6.22186 45.1111V14H17.1108V18.8222C17.1108 19.2348 17.2746 19.6305 17.5664 19.9222C17.8581 20.2139 18.2537 20.3778 18.6663 20.3778C19.0789 20.3778 19.4745 20.2139 19.7663 19.9222C20.058 19.6305 20.2219 19.2348 20.2219 18.8222V14H17.1111V13.1157C17.1111 12.8233 17.3928 12.5337 17.94 12.2635C18.4872 11.9934 19.2893 11.7479 20.3004 11.5411C21.3115 11.3343 22.5119 11.1703 23.833 11.0584C25.1541 10.9465 26.5701 10.8889 28 10.8889C29.43 10.8889 30.8459 10.9465 32.167 11.0584C33.4881 11.1703 34.6885 11.3343 35.6996 11.5411C36.7108 11.7479 37.5128 11.9934 38.06 12.2635C38.6073 12.5337 38.8889 12.8233 38.8889 13.1157V14ZM18.6667 28C18.6667 29.2887 17.622 30.3334 16.3334 30.3334C15.0447 30.3334 14 29.2887 14 28C14 26.7114 15.0447 25.6667 16.3334 25.6667C17.622 25.6667 18.6667 26.7114 18.6667 28ZM16.3334 39.6667C17.622 39.6667 18.6667 38.622 18.6667 37.3334C18.6667 36.0447 17.622 35 16.3334 35C15.0447 35 14 36.0447 14 37.3334C14 38.622 15.0447 39.6667 16.3334 39.6667ZM30.3334 28C30.3334 29.2887 29.2887 30.3334 28 30.3334C26.7114 30.3334 25.6667 29.2887 25.6667 28C25.6667 26.7114 26.7114 25.6667 28 25.6667C29.2887 25.6667 30.3334 26.7114 30.3334 28ZM28 39.6667C29.2887 39.6667 30.3334 38.622 30.3334 37.3334C30.3334 36.0447 29.2887 35 28 35C26.7114 35 25.6667 36.0447 25.6667 37.3334C25.6667 38.622 26.7114 39.6667 28 39.6667ZM42 28C42 29.2887 40.9554 30.3334 39.6667 30.3334C38.378 30.3334 37.3334 29.2887 37.3334 28C37.3334 26.7114 38.378 25.6667 39.6667 25.6667C40.9554 25.6667 42 26.7114 42 28ZM39.6667 39.6667C40.9554 39.6667 42 38.622 42 37.3334C42 36.0447 40.9554 35 39.6667 35C38.378 35 37.3334 36.0447 37.3334 37.3334C37.3334 38.622 38.378 39.6667 39.6667 39.6667Z" fill="#BC74A5"/>
</g>
<defs>
<clipPath id="clip0_274_13383">
<rect width="56" height="56" fill="white"/>
</clipPath>
</defs>
</svg>
