<svg width="57" height="56" viewBox="0 0 57 56" fill="none" xmlns="http://www.w3.org/2000/svg">
<g clip-path="url(#clip0_372_16121)">
<path d="M45.4166 25.6666C47.0506 25.6666 48.6231 26.2899 49.8133 27.4094C51.0035 28.5289 51.7218 30.0604 51.8216 31.6913L51.8333 32.0833V47.25C51.8332 47.6934 51.6647 48.1202 51.362 48.4442C51.0593 48.7681 50.6449 48.9652 50.2026 48.9954C49.7602 49.0256 49.3229 48.8868 48.9789 48.607C48.635 48.3272 48.4101 47.9272 48.3496 47.488L48.3333 47.25V42H8.66663V47.25C8.66661 47.6729 8.51346 48.0814 8.2355 48.4002C7.95755 48.7189 7.57358 48.9261 7.15463 48.9837L6.91663 49C6.49374 49 6.08516 48.8468 5.76645 48.5689C5.44775 48.2909 5.24047 47.9069 5.18296 47.488L5.16663 47.25V32.0833C5.16654 30.4493 5.78984 28.8768 6.90938 27.6866C8.02891 26.4964 9.56034 25.7781 11.1913 25.6783L11.5833 25.6666H45.4166ZM16.25 9.33331H40.75C42.384 9.33323 43.9564 9.95653 45.1467 11.0761C46.3369 12.1956 47.0551 13.727 47.155 15.358L47.1666 15.75V23.3333H40.1666L40.1503 23.0603C40.0889 22.5395 39.8538 22.0545 39.4829 21.6837C39.1121 21.3128 38.6271 21.0777 38.1063 21.0163L37.8333 21H33.1666C32.5951 21.0001 32.0435 21.2099 31.6164 21.5896C31.1893 21.9694 30.9165 22.4927 30.8496 23.0603L30.8333 23.3333H26.1666L26.1503 23.0603C26.0889 22.5395 25.8538 22.0545 25.4829 21.6837C25.1121 21.3128 24.6271 21.0777 24.1063 21.0163L23.8333 21H19.1666C18.5951 21.0001 18.0435 21.2099 17.6164 21.5896C17.1893 21.9694 16.9165 22.4927 16.8496 23.0603L16.8333 23.3333H9.83329V15.75C9.83321 14.116 10.4565 12.5435 11.576 11.3533C12.6956 10.1631 14.227 9.4448 15.858 9.34498L16.25 9.33331Z" fill="#BC74A5"/>
</g>
<defs>
<clipPath id="clip0_372_16121">
<rect width="56" height="56" fill="white" transform="translate(0.5)"/>
</clipPath>
</defs>
</svg>
