<svg width="17" height="12" viewBox="0 0 17 12" fill="none" xmlns="http://www.w3.org/2000/svg">
<rect width="17" height="12" fill="white"/>
<path d="M3.32804 4.20005L0 1.80005V4.20005H3.32804Z" fill="#3F51B5"/>
<path d="M3.32804 4.20005L0 1.80005V4.20005H3.32804Z" fill="#3F51B5"/>
<path d="M13.672 4.20005L17 1.80005V4.20005H13.672Z" fill="#3F51B5"/>
<path d="M13.672 4.20005L17 1.80005V4.20005H13.672Z" fill="#3F51B5"/>
<path d="M3.32804 7.6L0 10V7.6H3.32804Z" fill="#3F51B5"/>
<path d="M3.32804 7.6L0 10V7.6H3.32804Z" fill="#3F51B5"/>
<path d="M13.672 7.6L17 10V7.6H13.672Z" fill="#3F51B5"/>
<path d="M13.672 7.6L17 10V7.6H13.672Z" fill="#3F51B5"/>
<rect x="7.73541" width="1.43915" height="12" fill="#E53935"/>
<rect y="6.79999" width="1.6" height="16.91" transform="rotate(-90 0 6.79999)" fill="#E53935"/>
<path d="M6.92591 0.100037H1.97882L6.92591 3.40004V0.100037Z" fill="#3F51B5"/>
<path d="M6.92591 11.9H1.97882L6.92591 8.59996V11.9Z" fill="#3F51B5"/>
<path d="M10.0741 0.100037H15.0212L10.0741 3.40004V0.100037Z" fill="#3F51B5"/>
<path d="M10.0741 11.9H15.0212L10.0741 8.59996V11.9Z" fill="#3F51B5"/>
<path d="M0 1.20001V0.200012L5.84656 4.30001H4.22751L0 1.20001Z" fill="#E53C38"/>
<path d="M17 10.9V11.9L11.1534 7.79996H12.7725L17 10.9Z" fill="#E53C38"/>
<path d="M11.783 4.30004H10.074L16.1005 0.100037H16.8201V0.800037L11.783 4.30004Z" fill="#E53C38"/>
<path d="M5.03704 7.8H6.74603L0.719582 12H5.24521e-06V11.3L5.03704 7.8Z" fill="#E53C38"/>
</svg>
