<svg width="17" height="12" viewBox="0 0 17 12" fill="none" xmlns="http://www.w3.org/2000/svg">
<g clip-path="url(#clip0_556_14012)">
<path d="M0 0H17V12H0V0Z" fill="#E30A17"/>
<path fill-rule="evenodd" clip-rule="evenodd" d="M6.02083 9C7.02903 9 7.91423 8.44245 8.41641 7.60266C8.00144 8.09211 7.39926 8.4 6.72917 8.4C5.47732 8.4 4.4625 7.32548 4.4625 6C4.4625 4.67452 5.47732 3.6 6.72917 3.6C7.39926 3.6 8.00143 3.90788 8.4164 4.39732C7.91422 3.55755 7.02902 3 6.02083 3C4.45603 3 3.1875 4.34315 3.1875 6C3.1875 7.65685 4.45603 9 6.02083 9ZM9.24279 6.33674L8.26391 5.99998L9.24279 5.66321V4.57339L9.84778 5.45507L10.8267 5.11829L10.2217 5.99998L10.8267 6.88166L9.84778 6.54488L9.24279 7.42656V6.33674Z" fill="white"/>
</g>
<defs>
<clipPath id="clip0_556_14012">
<rect width="17" height="12" fill="white"/>
</clipPath>
</defs>
</svg>
